M48
; DRILL file KiCad 10.0.5 date 2026-09-02T11:39:24
; FORMAT={-:-/ absolute / metric / decimal}
; #@! TF.CreationDate,2026-09-02T11:39:24+01:00
; #@! TF.GenerationSoftware,Kicad,Pcbnew,10.0.5
; #@! TF.FileFunction,MixedPlating,1,2
FMAT,2
METRIC
; #@! TA.AperFunction,Plated,PTH,ViaDrill
T1C0.300
; #@! TA.AperFunction,NonPlated,NPTH,ComponentDrill
T2C2.100
%
G90
G05
T1
X131.0Y-99.5
X131.125Y-101.875
X132.5Y-96.9
X132.65Y-88.5
X134.25Y-88.5
X141.5Y-92.0
X141.5Y-97.46
X143.0Y-106.0
X143.5Y-93.5
X143.5Y-115.5
X145.0Y-109.5
X145.151Y-110.5
X146.0Y-113.5
X146.0Y-118.0
X146.0Y-120.0
X146.174Y-107.826
X147.25Y-98.75
X147.5Y-110.0
X148.1Y-101.5
X148.75Y-100.0
X149.0Y-121.25
X149.0Y-122.5
X149.5Y-116.0
X149.5Y-117.5
X149.55Y-100.0
X150.05Y-101.5
X150.5Y-96.5
X150.5Y-98.8
X150.5Y-110.0
X150.75Y-95.25
X151.5Y-101.5
X153.0Y-110.0
X153.5Y-90.0
X153.502Y-98.0
X153.576Y-102.576
X153.861Y-106.453
X154.114Y-104.3
X154.25Y-101.0
X154.5Y-91.0
X155.089Y-106.05
X156.486Y-106.19
X156.5Y-102.0
X157.0Y-110.0
X157.0Y-117.5
X158.5Y-82.365
X158.5Y-90.0
X158.5Y-93.42
X159.0Y-88.5
X159.5Y-103.0
X159.726Y-86.4
X159.9Y-105.5
X160.5Y-104.5
X160.586Y-109.736
X161.0Y-107.0
X161.0Y-114.0
X161.5Y-111.0
X161.5Y-117.5
X161.5Y-119.0
X161.9Y-84.905
X162.5Y-83.0
X163.0Y-91.5
X163.1Y-84.0
X163.5Y-122.151
X163.5Y-123.5
X163.76Y-116.24
X165.0Y-120.0
X166.5Y-86.5
X166.5Y-110.0
X166.5Y-111.0
X167.5Y-111.0
X168.125Y-107.5
X168.5Y-90.566
X169.5Y-116.7
X169.5Y-117.7
X169.5Y-119.7
X170.0Y-111.0
X170.4Y-91.35
X170.9Y-118.5
X171.0Y-103.5
X171.0Y-111.0
X171.0Y-122.0
X171.4Y-114.0
X171.563Y-112.398
X172.062Y-111.438
X172.1Y-117.932
X172.488Y-92.5
X172.5Y-105.5
X172.5Y-108.5
X173.4Y-89.6
X174.5Y-116.0
X174.6Y-112.0
X179.5Y-101.5
X179.85Y-89.27
X179.85Y-91.81
X180.75Y-104.0
X181.0Y-100.75
X181.05Y-94.551
X181.25Y-97.388
X182.051Y-91.051
T2
X132.0Y-111.0
X134.5Y-82.5
X180.5Y-112.95
X181.75Y-82.5
M30
