M48
; DRILL file KiCad 10.0.5 date 2026-09-01T11:03:57
; FORMAT={-:-/ absolute / metric / decimal}
; #@! TF.CreationDate,2026-09-01T11:03:57+01:00
; #@! TF.GenerationSoftware,Kicad,Pcbnew,10.0.5
; #@! TF.FileFunction,Plated,1,2,PTH
FMAT,2
METRIC
; #@! TA.AperFunction,Plated,PTH,ViaDrill
T1C0.300
%
G90
G05
T1
X118.75Y-104.2
X118.875Y-107.875
X120.259Y-103.1
X120.4Y-96.0
X122.0Y-96.0
X141.5Y-92.0
X141.5Y-97.46
X143.5Y-93.5
X144.5Y-105.5
X145.0Y-109.5
X145.151Y-110.5
X145.5Y-103.0
X146.0Y-113.5
X147.213Y-105.5
X147.5Y-110.0
X147.7Y-120.0
X147.7Y-121.25
X147.7Y-122.5
X149.5Y-116.0
X149.5Y-117.5
X150.0Y-107.0
X150.05Y-102.662
X150.7Y-102.1
X152.0Y-99.5
X152.5Y-101.6
X152.887Y-106.8
X153.125Y-102.1
X153.5Y-90.0
X153.502Y-100.35
X153.674Y-109.326
X154.0Y-105.0
X154.253Y-105.759
X154.5Y-91.0
X155.0Y-105.0
X156.5Y-103.0
X157.0Y-109.0
X157.0Y-117.5
X157.811Y-103.4
X158.5Y-90.0
X158.5Y-93.42
X159.0Y-88.5
X159.0Y-104.5
X159.0Y-105.5
X159.726Y-86.62
X160.025Y-82.365
X160.025Y-84.905
X160.85Y-108.5
X161.0Y-107.0
X161.5Y-111.0
X161.5Y-119.0
X161.52Y-115.8
X162.62Y-115.8
X164.975Y-81.095
X164.975Y-82.365
X164.975Y-83.635
X165.0Y-121.5
X165.5Y-91.5
X165.5Y-123.0
X166.5Y-110.0
X166.5Y-111.0
X166.5Y-115.0
X168.0Y-116.7
X168.125Y-107.5
X168.125Y-117.7
X168.125Y-119.7
X168.5Y-91.0
X168.5Y-111.0
X169.447Y-107.436
X170.0Y-105.5
X170.0Y-111.0
X170.4Y-91.35
X171.0Y-103.5
X171.0Y-111.0
X171.496Y-114.004
X172.15Y-88.35
X172.198Y-113.01
X172.5Y-105.5
X172.5Y-108.5
X172.675Y-91.5
X173.0Y-111.875
X173.5Y-120.5
X174.0Y-118.5
X174.0Y-122.0
X174.0Y-123.5
X174.5Y-113.175
X174.5Y-114.825
X187.0Y-95.77
X187.0Y-98.31
X187.9Y-111.4
X189.5Y-111.4
X189.5Y-115.5
X189.8Y-101.051
X191.4Y-104.25
X191.4Y-107.25
X192.15Y-97.04
M30
