%TF.GenerationSoftware,KiCad,Pcbnew,10.0.5*%
%TF.CreationDate,2026-09-01T10:50:11+01:00*%
%TF.ProjectId,CyberwatchV1B,43796265-7277-4617-9463-685631422e6b,rev?*%
%TF.SameCoordinates,Original*%
%TF.FileFunction,Copper,L2,Bot*%
%TF.FilePolarity,Positive*%
%FSLAX46Y46*%
G04 Gerber Fmt 4.6, Leading zero omitted, Abs format (unit mm)*
G04 Created by KiCad (PCBNEW 10.0.5) date 2026-09-01 10:50:11*
%MOMM*%
%LPD*%
G01*
G04 APERTURE LIST*
%TA.AperFunction,ViaPad*%
%ADD10C,0.600000*%
%TD*%
%TA.AperFunction,Conductor*%
%ADD11C,0.200000*%
%TD*%
G04 APERTURE END LIST*
D10*
%TO.N,/main/S*%
X168500000Y-91000000D03*
X169446786Y-107436209D03*
X172150000Y-88350000D03*
X170000000Y-105500000D03*
%TO.N,GND*%
X166500000Y-111000000D03*
X146000000Y-113500000D03*
X187899999Y-111400000D03*
X120400000Y-96000000D03*
X150000000Y-107000000D03*
X145151471Y-110500000D03*
X187000000Y-95770000D03*
X168000000Y-116700000D03*
X170000000Y-111000000D03*
X165000000Y-121500000D03*
X189799999Y-101051473D03*
X154000000Y-105000000D03*
X187000000Y-98310000D03*
X118875000Y-107875000D03*
X118750000Y-104200000D03*
%TO.N,+3.3V*%
X153500000Y-90000000D03*
X157000000Y-117500000D03*
X153501923Y-100350453D03*
X161500000Y-119000000D03*
%TO.N,Net-(J5-DAT1)*%
X162620000Y-115800000D03*
X157000000Y-109000000D03*
%TO.N,Net-(SW1-A)*%
X172675000Y-91500000D03*
X170400000Y-91350000D03*
%TO.N,Net-(U2-~{RST})*%
X155000000Y-105000000D03*
X160025000Y-84905000D03*
X159725663Y-86620000D03*
X158500000Y-90000000D03*
%TO.N,Net-(BT1-+)*%
X165500000Y-91500000D03*
X164975000Y-83635000D03*
%TO.N,Net-(U2-VCC)*%
X159000000Y-88500000D03*
X160025000Y-82365000D03*
%TO.N,/main/SPI_MISO*%
X157811075Y-103400000D03*
X168125000Y-107500000D03*
%TO.N,Net-(J5-DAT0)*%
X174000000Y-123500000D03*
X168500000Y-111000000D03*
X161520000Y-115800000D03*
X174000000Y-118500000D03*
%TO.N,/input_right/SDA*%
X191399999Y-104250000D03*
X164975000Y-82365000D03*
X171495525Y-114004475D03*
X152887500Y-106800000D03*
X192150000Y-97040000D03*
X156500000Y-103000000D03*
X173500000Y-120500000D03*
%TO.N,Net-(U3-D4)*%
X143500000Y-93500000D03*
X152000000Y-99500000D03*
%TO.N,/input_right/BTN_3*%
X145500000Y-103000000D03*
X166500000Y-115000000D03*
%TO.N,/input_right/SCL*%
X168125000Y-119700000D03*
X164975000Y-81095000D03*
X172198185Y-113010075D03*
X159000000Y-104500000D03*
X154252983Y-105758949D03*
%TO.N,/main/BTN_2*%
X145000000Y-109500000D03*
X153124697Y-102099758D03*
%TO.N,/main/PWR_ALRT*%
X174000000Y-122000000D03*
X147212500Y-105500000D03*
%TO.N,/main/D*%
X173000000Y-111875000D03*
X159000000Y-105500000D03*
%TO.N,/main/BTN_1*%
X122000000Y-96000000D03*
X120258698Y-103100000D03*
X152500000Y-101600000D03*
X144500000Y-105500000D03*
%TO.N,/main/SPI_MOSI*%
X149500000Y-116000000D03*
X154500000Y-91000000D03*
X161000000Y-107000000D03*
%TO.N,Net-(J4-Pin_6)*%
X147700000Y-120000000D03*
X141500000Y-92000000D03*
%TO.N,Net-(J4-Pin_7)*%
X147700000Y-121250000D03*
X150700000Y-102100000D03*
%TO.N,Net-(J4-Pin_8)*%
X150050000Y-102662500D03*
X147700000Y-122500000D03*
%TO.N,Net-(J5-DAT3{slash}CD)*%
X171000000Y-111000000D03*
X172500000Y-108500000D03*
X174500000Y-114825000D03*
X166500000Y-110000000D03*
%TO.N,Net-(J5-CMD)*%
X160850000Y-108500000D03*
X161500000Y-111000000D03*
%TO.N,Net-(U3-D9)*%
X174500000Y-113175000D03*
X171000000Y-103500000D03*
X158500000Y-93420000D03*
X172500000Y-105500000D03*
%TO.N,/input_right/BTN_4*%
X189499999Y-111400000D03*
X191399999Y-107250000D03*
X165500000Y-123000000D03*
X168125000Y-117700000D03*
X147500000Y-110000000D03*
X189499999Y-115500000D03*
X149500000Y-117500000D03*
%TO.N,Net-(U3-D5)*%
X141500000Y-97460000D03*
X153674265Y-109325735D03*
%TD*%
%TO.N,/main/S*%
D11*
X168500000Y-91000000D02*
X169500000Y-91000000D01*
X170000000Y-105500000D02*
X169500000Y-106000000D01*
X169500000Y-106000000D02*
X169500000Y-107382995D01*
X169500000Y-91000000D02*
X172150000Y-88350000D01*
X169500000Y-107382995D02*
X169446786Y-107436209D01*
%TO.N,GND*%
X149651471Y-107000000D02*
X146000000Y-110651471D01*
X189741473Y-101051473D02*
X187000000Y-98310000D01*
X118150000Y-102100000D02*
X120250000Y-100000000D01*
X118150000Y-103600000D02*
X118150000Y-102100000D01*
X189799999Y-101051473D02*
X189741473Y-101051473D01*
X187000000Y-98310000D02*
X187000000Y-95770000D01*
X118750000Y-104200000D02*
X118150000Y-103600000D01*
X145151471Y-110500000D02*
X145848529Y-110500000D01*
X118750000Y-107750000D02*
X118875000Y-107875000D01*
X118750000Y-104200000D02*
X118750000Y-107750000D01*
X155400000Y-106600000D02*
X155900000Y-106100000D01*
X155900000Y-106100000D02*
X160248529Y-106100000D01*
X160348529Y-106000000D02*
X161500000Y-106000000D01*
X161500000Y-106000000D02*
X166500000Y-111000000D01*
X146000000Y-110651471D02*
X146000000Y-113500000D01*
X120250000Y-100000000D02*
X120250000Y-96000000D01*
X153751471Y-106600000D02*
X155400000Y-106600000D01*
X165000000Y-121500000D02*
X165000000Y-119700000D01*
X154000000Y-105000000D02*
X153400000Y-105600000D01*
X165000000Y-119700000D02*
X168000000Y-116700000D01*
X167500000Y-110000000D02*
X166500000Y-111000000D01*
X153400000Y-105600000D02*
X153400000Y-106248529D01*
X153400000Y-106248529D02*
X153751471Y-106600000D01*
X188399999Y-102451473D02*
X188399999Y-110900000D01*
X170000000Y-111000000D02*
X169000000Y-110000000D01*
X145848529Y-110500000D02*
X146000000Y-110651471D01*
X169000000Y-110000000D02*
X167500000Y-110000000D01*
X189799999Y-101051473D02*
X188399999Y-102451473D01*
X150000000Y-107000000D02*
X149651471Y-107000000D01*
X188399999Y-110900000D02*
X187899999Y-111400000D01*
X160248529Y-106100000D02*
X160348529Y-106000000D01*
%TO.N,+3.3V*%
X157000000Y-117500000D02*
X158500000Y-119000000D01*
X153500000Y-90000000D02*
X153500000Y-90996154D01*
X153500000Y-90996154D02*
X153501923Y-90998077D01*
X158500000Y-119000000D02*
X161500000Y-119000000D01*
X153501923Y-90998077D02*
X153501923Y-100350453D01*
%TO.N,Net-(J5-DAT1)*%
X162620000Y-114620000D02*
X157000000Y-109000000D01*
X162620000Y-115800000D02*
X162620000Y-114620000D01*
%TO.N,Net-(SW1-A)*%
X170400000Y-91350000D02*
X172525000Y-91350000D01*
%TO.N,Net-(U2-~{RST})*%
X155000000Y-105000000D02*
X155565686Y-105000000D01*
X157500000Y-102414214D02*
X157500000Y-94768529D01*
X159725663Y-85274337D02*
X160025000Y-84975000D01*
X160025000Y-84975000D02*
X160025000Y-84905000D01*
X155565686Y-105000000D02*
X157211075Y-103354611D01*
X157211075Y-103354611D02*
X157211075Y-102703140D01*
X156400000Y-92100000D02*
X158500000Y-90000000D01*
X157211075Y-102703140D02*
X157500000Y-102414214D01*
X156400000Y-93668529D02*
X156400000Y-92100000D01*
X159725663Y-86620000D02*
X159725663Y-85274337D01*
X157500000Y-94768529D02*
X156400000Y-93668529D01*
%TO.N,Net-(BT1-+)*%
X164975000Y-83635000D02*
X164775000Y-83835000D01*
X163500000Y-89500000D02*
X165500000Y-91500000D01*
X163500000Y-85989950D02*
X163500000Y-89500000D01*
X164775000Y-83835000D02*
X164775000Y-84714950D01*
X164775000Y-84714950D02*
X163500000Y-85989950D01*
%TO.N,Net-(U2-VCC)*%
X159000000Y-83500000D02*
X159000000Y-88500000D01*
X160025000Y-82365000D02*
X160025000Y-82475000D01*
X160025000Y-82475000D02*
X159000000Y-83500000D01*
%TO.N,/main/SPI_MISO*%
X168000000Y-107375000D02*
X168000000Y-105350000D01*
X168125000Y-107500000D02*
X168000000Y-107375000D01*
X168000000Y-105350000D02*
X165650000Y-103000000D01*
X158211075Y-103000000D02*
X157811075Y-103400000D01*
X165650000Y-103000000D02*
X158211075Y-103000000D01*
%TO.N,Net-(J5-DAT0)*%
X170551471Y-113108949D02*
X170751471Y-112908949D01*
X162500000Y-118500000D02*
X161500000Y-117500000D01*
X164834314Y-123900000D02*
X162500000Y-121565685D01*
X169000000Y-111500000D02*
X169000000Y-112500000D01*
X161500000Y-115820000D02*
X161520000Y-115800000D01*
X166014215Y-123900000D02*
X165914214Y-124000000D01*
X174000000Y-123500000D02*
X170065686Y-123500000D01*
X169000000Y-112500000D02*
X169608949Y-113108949D01*
X164985785Y-123900000D02*
X164834314Y-123900000D01*
X168500000Y-111000000D02*
X169000000Y-111500000D01*
X162500000Y-121565685D02*
X162500000Y-118500000D01*
X170065686Y-123500000D02*
X169665685Y-123900000D01*
X169608949Y-113108949D02*
X170551471Y-113108949D01*
X172600000Y-114260420D02*
X172600000Y-117100000D01*
X172600000Y-117100000D02*
X174000000Y-118500000D01*
X161500000Y-117500000D02*
X161500000Y-115820000D01*
X165914214Y-124000000D02*
X165085785Y-124000000D01*
X171248529Y-112908949D02*
X172600000Y-114260420D01*
X169665685Y-123900000D02*
X166014215Y-123900000D01*
X170751471Y-112908949D02*
X171248529Y-112908949D01*
X165085785Y-124000000D02*
X164985785Y-123900000D01*
%TO.N,/input_right/SDA*%
X156500000Y-91434314D02*
X156500000Y-90500000D01*
X190399999Y-102487762D02*
X190000000Y-102887761D01*
X191311249Y-97040000D02*
X190399999Y-97951250D01*
X161967157Y-107315686D02*
X161967157Y-107032843D01*
X163000000Y-85500000D02*
X163000000Y-84340000D01*
X171491050Y-114000000D02*
X168651471Y-114000000D01*
X153087500Y-107000000D02*
X152887500Y-106800000D01*
X156500000Y-103000000D02*
X156500000Y-94334215D01*
X171495525Y-114004475D02*
X171491050Y-114000000D01*
X156500000Y-94334215D02*
X156000000Y-93834214D01*
X190000000Y-103887761D02*
X190312239Y-104200000D01*
X171495525Y-114004475D02*
X171997017Y-114505966D01*
X190312239Y-104200000D02*
X191349999Y-104200000D01*
X159400000Y-89100000D02*
X163000000Y-85500000D01*
X156500000Y-103500000D02*
X156100001Y-103899999D01*
X190000000Y-102887761D02*
X190000000Y-103887761D01*
X161967157Y-107032843D02*
X161334314Y-106400000D01*
X156000000Y-93834214D02*
X156000000Y-91934314D01*
X160151471Y-107000000D02*
X153087500Y-107000000D01*
X191349999Y-104200000D02*
X191399999Y-104250000D01*
X156500000Y-90500000D02*
X157900000Y-89100000D01*
X161334314Y-106400000D02*
X160751471Y-106400000D01*
X156000000Y-91934314D02*
X156500000Y-91434314D01*
X156100001Y-103899999D02*
X154251472Y-103899999D01*
X163000000Y-84340000D02*
X164975000Y-82365000D01*
X168651471Y-114000000D02*
X161967157Y-107315686D01*
X171997017Y-114505966D02*
X171997017Y-117997017D01*
X173500000Y-119500000D02*
X173500000Y-120500000D01*
X190399999Y-97951250D02*
X190399999Y-102487762D01*
X171997017Y-117997017D02*
X173500000Y-119500000D01*
X160751471Y-106400000D02*
X160151471Y-107000000D01*
X156500000Y-103000000D02*
X156500000Y-103500000D01*
X154251472Y-103899999D02*
X152887500Y-105263971D01*
X192150000Y-97040000D02*
X191311249Y-97040000D01*
X157900000Y-89100000D02*
X159400000Y-89100000D01*
X152887500Y-105263971D02*
X152887500Y-106800000D01*
%TO.N,Net-(U3-D4)*%
X145000000Y-96500000D02*
X145000000Y-95000000D01*
X148000000Y-99500000D02*
X145000000Y-96500000D01*
X145000000Y-95000000D02*
X143500000Y-93500000D01*
X152000000Y-99500000D02*
X148000000Y-99500000D01*
%TO.N,/input_right/BTN_3*%
X144000000Y-107565685D02*
X145900000Y-105665685D01*
X166500000Y-115000000D02*
X163500000Y-115000000D01*
X144000000Y-113467155D02*
X144000000Y-107565685D01*
X157600000Y-108751471D02*
X157248529Y-108400000D01*
X145358578Y-103141422D02*
X145500000Y-103000000D01*
X163020000Y-114520000D02*
X163020000Y-114454314D01*
X145665685Y-103200000D02*
X145417156Y-103200000D01*
X151900000Y-110534314D02*
X151900000Y-117165686D01*
X157600000Y-109034314D02*
X157600000Y-108751471D01*
X163020000Y-114454314D02*
X157600000Y-109034314D01*
X157248529Y-108400000D02*
X153751471Y-108400000D01*
X163500000Y-115000000D02*
X163020000Y-114520000D01*
X145900000Y-103434315D02*
X145665685Y-103200000D01*
X153074265Y-109077206D02*
X153074265Y-109360049D01*
X153751471Y-108400000D02*
X153074265Y-109077206D01*
X145900000Y-105665685D02*
X145900000Y-103434315D01*
X153074265Y-109360049D02*
X151900000Y-110534314D01*
X151900000Y-117165686D02*
X150565686Y-118500000D01*
X145417156Y-103200000D02*
X145358578Y-103141422D01*
X149032845Y-118500000D02*
X144000000Y-113467155D01*
X150565686Y-118500000D02*
X149032845Y-118500000D01*
%TO.N,/input_right/SCL*%
X165070000Y-81000000D02*
X166000000Y-81000000D01*
X158400000Y-105251471D02*
X158751471Y-104900000D01*
X158400000Y-105700000D02*
X158400000Y-105251471D01*
X173000000Y-116934314D02*
X173965686Y-117900000D01*
X172198185Y-113010075D02*
X172079557Y-112891447D01*
X166368628Y-109000000D02*
X167168629Y-108200000D01*
X173025000Y-112475000D02*
X172791740Y-112708260D01*
X172000000Y-104500000D02*
X171500000Y-105000000D01*
X171900000Y-109334314D02*
X173500000Y-110934314D01*
X159000000Y-104900000D02*
X159000000Y-104500000D01*
X166000000Y-109000000D02*
X166368628Y-109000000D01*
X171300000Y-108200000D02*
X171500000Y-108000000D01*
X166000000Y-81000000D02*
X166500000Y-81500000D01*
X173248529Y-112475000D02*
X173025000Y-112475000D01*
X154705966Y-106200000D02*
X155234314Y-106200000D01*
X166500000Y-81500000D02*
X166500000Y-95500000D01*
X173000000Y-113663403D02*
X173000000Y-116934314D01*
X173500000Y-110934314D02*
X173500000Y-111526471D01*
X174600000Y-120748529D02*
X174248529Y-121100000D01*
X174248529Y-117900000D02*
X174600000Y-118251471D01*
X172000000Y-101000000D02*
X172000000Y-104500000D01*
X166500000Y-95500000D02*
X172000000Y-101000000D01*
X172346672Y-113010075D02*
X173000000Y-113663403D01*
X155234314Y-106200000D02*
X155734315Y-105700000D01*
X171500000Y-108000000D02*
X171536209Y-108036209D01*
X174248529Y-121100000D02*
X169525000Y-121100000D01*
X154252983Y-105758949D02*
X154252983Y-105747017D01*
X169525000Y-121100000D02*
X168125000Y-119700000D01*
X154252983Y-105747017D02*
X154705966Y-106200000D01*
X155734315Y-105700000D02*
X158400000Y-105700000D01*
X171500000Y-105000000D02*
X171500000Y-108000000D01*
X173500000Y-111526471D02*
X173600000Y-111626471D01*
X173600000Y-111626471D02*
X173600000Y-112123529D01*
X167168629Y-108200000D02*
X171300000Y-108200000D01*
X172791740Y-112708260D02*
X172500000Y-112708260D01*
X171900000Y-108400000D02*
X171900000Y-109334314D01*
X173600000Y-112123529D02*
X173248529Y-112475000D01*
X164975000Y-81095000D02*
X165070000Y-81000000D01*
X158751471Y-104900000D02*
X159000000Y-104900000D01*
X159000000Y-104500000D02*
X161500000Y-104500000D01*
X171536209Y-108036209D02*
X171900000Y-108400000D01*
X172198185Y-113010075D02*
X172346672Y-113010075D01*
X174600000Y-118251471D02*
X174600000Y-120748529D01*
X173965686Y-117900000D02*
X174248529Y-117900000D01*
X161500000Y-104500000D02*
X166000000Y-109000000D01*
X172500000Y-112708260D02*
X172198185Y-113010075D01*
%TO.N,/main/BTN_2*%
X153177398Y-102047057D02*
X153124697Y-102099758D01*
X152165685Y-103900000D02*
X151600000Y-103900000D01*
X151600000Y-103900000D02*
X146000000Y-109500000D01*
X153124697Y-102940988D02*
X152165685Y-103900000D01*
X146000000Y-109500000D02*
X145000000Y-109500000D01*
X153124697Y-102099758D02*
X153124697Y-102940988D01*
%TO.N,/main/PWR_ALRT*%
X153585786Y-108000000D02*
X151500000Y-110085785D01*
X149198531Y-118100000D02*
X144400000Y-113301469D01*
X165000000Y-123500000D02*
X163400000Y-121900000D01*
X151500000Y-110085785D02*
X151500000Y-117000000D01*
X167100000Y-115248529D02*
X167100000Y-114751471D01*
X163400000Y-118948529D02*
X167100000Y-115248529D01*
X163665686Y-114600000D02*
X163420000Y-114354314D01*
X165748529Y-123600000D02*
X165251471Y-123600000D01*
X169500000Y-123500000D02*
X165848529Y-123500000D01*
X171000000Y-122000000D02*
X169500000Y-123500000D01*
X166748529Y-114400000D02*
X166251471Y-114400000D01*
X165251471Y-123600000D02*
X165151471Y-123500000D01*
X144400000Y-108312500D02*
X147212500Y-105500000D01*
X166051471Y-114600000D02*
X163665686Y-114600000D01*
X158000000Y-108868628D02*
X158000000Y-108585786D01*
X165848529Y-123500000D02*
X165748529Y-123600000D01*
X167100000Y-114751471D02*
X166748529Y-114400000D01*
X158000000Y-108585786D02*
X157414215Y-108000000D01*
X151500000Y-117000000D02*
X150400000Y-118100000D01*
X163420000Y-114354314D02*
X163420000Y-114288629D01*
X150400000Y-118100000D02*
X149198531Y-118100000D01*
X165151471Y-123500000D02*
X165000000Y-123500000D01*
X163420000Y-114288629D02*
X158000000Y-108868628D01*
X157414215Y-108000000D02*
X153585786Y-108000000D01*
X174000000Y-122000000D02*
X171000000Y-122000000D01*
X166251471Y-114400000D02*
X166051471Y-114600000D01*
X163400000Y-121900000D02*
X163400000Y-118948529D01*
X144400000Y-113301469D02*
X144400000Y-108312500D01*
%TO.N,/main/D*%
X167334314Y-108600000D02*
X166534314Y-109400000D01*
X172500000Y-111875000D02*
X172000000Y-111375000D01*
X166151471Y-109500000D02*
X165934314Y-109500000D01*
X166534314Y-109400000D02*
X166251471Y-109400000D01*
X165934314Y-109500000D02*
X161934314Y-105500000D01*
X170100000Y-108600000D02*
X167334314Y-108600000D01*
X172000000Y-111375000D02*
X172000000Y-110500000D01*
X161934314Y-105500000D02*
X159000000Y-105500000D01*
X173000000Y-111875000D02*
X172500000Y-111875000D01*
X172000000Y-110500000D02*
X170100000Y-108600000D01*
X166251471Y-109400000D02*
X166151471Y-109500000D01*
%TO.N,/main/BTN_1*%
X145748529Y-102400000D02*
X145251471Y-102400000D01*
X146100000Y-102751471D02*
X145748529Y-102400000D01*
X144900000Y-102751471D02*
X144900000Y-103248529D01*
X120258698Y-103100000D02*
X120250000Y-103091302D01*
X145500000Y-104500000D02*
X144500000Y-105500000D01*
X146565686Y-103500000D02*
X146100000Y-103034314D01*
X145500000Y-103600000D02*
X145500000Y-104500000D01*
X145251471Y-103600000D02*
X145500000Y-103600000D01*
X144900000Y-103248529D02*
X145251471Y-103600000D01*
X152500000Y-103000000D02*
X152000000Y-103500000D01*
X120250000Y-101000000D02*
X122000000Y-99250000D01*
X145251471Y-102400000D02*
X144900000Y-102751471D01*
X122000000Y-99250000D02*
X122000000Y-96000000D01*
X146100000Y-103034314D02*
X146100000Y-102751471D01*
X152000000Y-103500000D02*
X146565686Y-103500000D01*
X152500000Y-101600000D02*
X152500000Y-103000000D01*
X120250000Y-103091302D02*
X120250000Y-101000000D01*
%TO.N,/main/SPI_MOSI*%
X151000000Y-108500000D02*
X151500000Y-109000000D01*
X155600000Y-101100000D02*
X155600000Y-102314214D01*
X151000000Y-106000000D02*
X151000000Y-108500000D01*
X155600000Y-102314214D02*
X154414214Y-103500000D01*
X153000000Y-107500000D02*
X151500000Y-109000000D01*
X161000000Y-107000000D02*
X160500000Y-107500000D01*
X160500000Y-107500000D02*
X153434314Y-107500000D01*
X150100000Y-115400000D02*
X149500000Y-116000000D01*
X154500000Y-91000000D02*
X154500000Y-100000000D01*
X151500000Y-109000000D02*
X150100000Y-110400000D01*
X154414214Y-103500000D02*
X153500000Y-103500000D01*
X154500000Y-100000000D02*
X155600000Y-101100000D01*
X153500000Y-103500000D02*
X151000000Y-106000000D01*
X150100000Y-110400000D02*
X150100000Y-115400000D01*
X154500000Y-107500000D02*
X153000000Y-107500000D01*
%TO.N,Net-(J4-Pin_6)*%
X147700000Y-119200000D02*
X147700000Y-120000000D01*
X141500000Y-92000000D02*
X142500000Y-93000000D01*
X142500000Y-114000000D02*
X147700000Y-119200000D01*
X142500000Y-93000000D02*
X142500000Y-114000000D01*
%TO.N,Net-(J4-Pin_7)*%
X148750000Y-121250000D02*
X147700000Y-121250000D01*
X150700000Y-102100000D02*
X150700000Y-101500000D01*
X150700000Y-101500000D02*
X144500000Y-101500000D01*
X144500000Y-101500000D02*
X143000000Y-103000000D01*
X149000000Y-119934314D02*
X149000000Y-121000000D01*
X143000000Y-113934314D02*
X149000000Y-119934314D01*
X149000000Y-121000000D02*
X148750000Y-121250000D01*
X143000000Y-103000000D02*
X143000000Y-113934314D01*
%TO.N,Net-(J4-Pin_8)*%
X150000000Y-122500000D02*
X147700000Y-122500000D01*
X145085785Y-102000000D02*
X143600000Y-103485785D01*
X150500000Y-119585786D02*
X150500000Y-122000000D01*
X149387500Y-102000000D02*
X145085785Y-102000000D01*
X143600000Y-113632842D02*
X148967158Y-119000000D01*
X150050000Y-102662500D02*
X149387500Y-102000000D01*
X150500000Y-122000000D02*
X150000000Y-122500000D01*
X148967158Y-119000000D02*
X149914215Y-119000000D01*
X143600000Y-103485785D02*
X143600000Y-113632842D01*
X149914215Y-119000000D02*
X150500000Y-119585786D01*
%TO.N,Net-(J5-DAT3{slash}CD)*%
X173500000Y-112789215D02*
X174000000Y-112289215D01*
X171000000Y-111000000D02*
X169500000Y-109500000D01*
X174000000Y-112289215D02*
X174000000Y-110000000D01*
X169500000Y-109500000D02*
X167000000Y-109500000D01*
X173825000Y-114825000D02*
X173500000Y-114500000D01*
X174000000Y-110000000D02*
X172500000Y-108500000D01*
X173500000Y-114500000D02*
X173500000Y-112789215D01*
X174500000Y-114825000D02*
X173825000Y-114825000D01*
X167000000Y-109500000D02*
X166500000Y-110000000D01*
%TO.N,Net-(J5-CMD)*%
X160850000Y-110350000D02*
X160850000Y-108500000D01*
X161500000Y-111000000D02*
X160850000Y-110350000D01*
%TO.N,Net-(U3-D9)*%
X174000000Y-108500000D02*
X174000000Y-107000000D01*
X174552879Y-109052879D02*
X174000000Y-108500000D01*
X159420000Y-93420000D02*
X169000000Y-103000000D01*
X169000000Y-103000000D02*
X170500000Y-103000000D01*
X170500000Y-103000000D02*
X171000000Y-103500000D01*
X174552879Y-113122121D02*
X174552879Y-109052879D01*
X174500000Y-113175000D02*
X174552879Y-113122121D01*
X158500000Y-93420000D02*
X159420000Y-93420000D01*
X174000000Y-107000000D02*
X172500000Y-105500000D01*
%TO.N,/input_right/BTN_4*%
X147500000Y-110000000D02*
X147500000Y-115000000D01*
X149500000Y-117000000D02*
X149500000Y-117500000D01*
X189499999Y-111000001D02*
X189499999Y-111400000D01*
X191500000Y-109000000D02*
X189499999Y-111000001D01*
X167500000Y-118500000D02*
X168125000Y-117875000D01*
X168125000Y-117875000D02*
X168125000Y-117700000D01*
X167500000Y-121000000D02*
X167500000Y-118500000D01*
X191500000Y-107350001D02*
X191500000Y-109000000D01*
X147500000Y-115000000D02*
X149500000Y-117000000D01*
X191399999Y-107250000D02*
X191500000Y-107350001D01*
X165500000Y-123000000D02*
X167500000Y-121000000D01*
X189499999Y-115500000D02*
X189499999Y-111400000D01*
%TO.N,Net-(U3-D5)*%
X141500000Y-109000000D02*
X141500000Y-97460000D01*
X151000000Y-122065685D02*
X149965686Y-123100000D01*
X146600000Y-123100000D02*
X142000000Y-118500000D01*
X142000000Y-118500000D02*
X142000000Y-109500000D01*
X149965686Y-123100000D02*
X146600000Y-123100000D01*
X151000000Y-118631372D02*
X151000000Y-122065685D01*
X152300000Y-117331372D02*
X151000000Y-118631372D01*
X142000000Y-109500000D02*
X141500000Y-109000000D01*
X152300000Y-110700000D02*
X152300000Y-117331372D01*
X153674265Y-109325735D02*
X152300000Y-110700000D01*
%TD*%
M02*
