%TF.GenerationSoftware,KiCad,Pcbnew,10.0.5*%
%TF.CreationDate,2026-09-01T10:50:11+01:00*%
%TF.ProjectId,CyberwatchV1B,43796265-7277-4617-9463-685631422e6b,rev?*%
%TF.SameCoordinates,Original*%
%TF.FileFunction,Other,User*%
%FSLAX46Y46*%
G04 Gerber Fmt 4.6, Leading zero omitted, Abs format (unit mm)*
G04 Created by KiCad (PCBNEW 10.0.5) date 2026-09-01 10:50:11*
%MOMM*%
%LPD*%
G01*
G04 APERTURE LIST*
%ADD10C,0.050000*%
G04 APERTURE END LIST*
%TO.C,REF\u002A\u002A*%
D10*
X192899999Y-115000000D02*
G75*
G02*
X190899999Y-115000000I-1000000J0D01*
G01*
X190899999Y-115000000D02*
G75*
G02*
X192899999Y-115000000I1000000J0D01*
G01*
%TO.C,J1*%
X166550000Y-80400000D02*
X169050000Y-80400000D01*
X166550000Y-84810000D02*
X166550000Y-80400000D01*
X166700000Y-84810000D02*
X166550000Y-84810000D01*
X166700000Y-89200000D02*
X166700000Y-84810000D01*
X169050000Y-80400000D02*
X169050000Y-80600000D01*
X169050000Y-80600000D02*
X173250000Y-80600000D01*
X169150000Y-89200000D02*
X166700000Y-89200000D01*
X169150000Y-90600000D02*
X169150000Y-89200000D01*
X173150000Y-89200000D02*
X173150000Y-90600000D01*
X173150000Y-90600000D02*
X169150000Y-90600000D01*
X173250000Y-80400000D02*
X175750000Y-80400000D01*
X173250000Y-80600000D02*
X173250000Y-80400000D01*
X175600000Y-84810000D02*
X175600000Y-89200000D01*
X175600000Y-89200000D02*
X173150000Y-89200000D01*
X175750000Y-80400000D02*
X175750000Y-84810000D01*
X175750000Y-84810000D02*
X175600000Y-84810000D01*
%TO.C,R8*%
X156270000Y-106695000D02*
X157730000Y-106695000D01*
X157730000Y-109655000D01*
X156270000Y-109655000D01*
X156270000Y-106695000D01*
%TO.C,R2*%
X172020000Y-90770000D02*
X174980000Y-90770000D01*
X174980000Y-92230000D01*
X172020000Y-92230000D01*
X172020000Y-90770000D01*
%TO.C,R3*%
X154345000Y-104270000D02*
X157305000Y-104270000D01*
X157305000Y-105730000D01*
X154345000Y-105730000D01*
X154345000Y-104270000D01*
%TO.C,C2*%
X168745000Y-106770000D02*
X171705000Y-106770000D01*
X171705000Y-108230000D01*
X168745000Y-108230000D01*
X168745000Y-106770000D01*
%TO.C,REF\u002A\u002A*%
X192850000Y-89000000D02*
G75*
G02*
X188150000Y-89000000I-2350000J0D01*
G01*
X188150000Y-89000000D02*
G75*
G02*
X192850000Y-89000000I2350000J0D01*
G01*
X119750000Y-90000000D02*
G75*
G02*
X117750000Y-90000000I-1000000J0D01*
G01*
X117750000Y-90000000D02*
G75*
G02*
X119750000Y-90000000I1000000J0D01*
G01*
%TO.C,BT1*%
X158150000Y-104150000D02*
X158150000Y-94850000D01*
X159100000Y-94850000D02*
X158150000Y-94850000D01*
X159100000Y-104150000D02*
X158150000Y-104150000D01*
X161700000Y-92250000D02*
X159100000Y-94850000D01*
X161700000Y-106750000D02*
X159100000Y-104150000D01*
X163350000Y-89350000D02*
X167650000Y-89350000D01*
X163350000Y-92250000D02*
X161700000Y-92250000D01*
X163350000Y-92250000D02*
X163350000Y-89350000D01*
X163350000Y-106750000D02*
X161700000Y-106750000D01*
X163350000Y-106750000D02*
X163350000Y-109650000D01*
X163350000Y-109650000D02*
X167650000Y-109650000D01*
X167650000Y-89350000D02*
X167650000Y-92250000D01*
X167650000Y-92250000D02*
X170300000Y-92250000D01*
X167650000Y-106750000D02*
X170300000Y-106750000D01*
X167650000Y-109650000D02*
X167650000Y-106750000D01*
X172260000Y-104790000D02*
X172260000Y-94210000D01*
X170300000Y-92250000D02*
G75*
G02*
X172260000Y-94210000I0J-1960000D01*
G01*
X172260000Y-104790000D02*
G75*
G02*
X170300000Y-106750000I-1960001J1D01*
G01*
%TO.C,REF\u002A\u002A*%
X124600000Y-88500000D02*
G75*
G02*
X119900000Y-88500000I-2350000J0D01*
G01*
X119900000Y-88500000D02*
G75*
G02*
X124600000Y-88500000I2350000J0D01*
G01*
%TO.C,C1*%
X159745000Y-89270000D02*
X162705000Y-89270000D01*
X162705000Y-90730000D01*
X159745000Y-90730000D01*
X159745000Y-89270000D01*
%TO.C,R7*%
X167770000Y-108695000D02*
X169230000Y-108695000D01*
X169230000Y-111655000D01*
X167770000Y-111655000D01*
X167770000Y-108695000D01*
%TO.C,R4*%
X158270000Y-106695000D02*
X159730000Y-106695000D01*
X159730000Y-109655000D01*
X158270000Y-109655000D01*
X158270000Y-106695000D01*
%TO.C,R1*%
X172195000Y-106770000D02*
X175155000Y-106770000D01*
X175155000Y-108230000D01*
X172195000Y-108230000D01*
X172195000Y-106770000D01*
%TO.C,R9*%
X154195000Y-102270000D02*
X157155000Y-102270000D01*
X157155000Y-103730000D01*
X154195000Y-103730000D01*
X154195000Y-102270000D01*
%TO.C,U5*%
X185875000Y-93945000D02*
X187375000Y-93945000D01*
X185875000Y-98865000D02*
X185875000Y-93945000D01*
X187375000Y-93705000D02*
X191775000Y-93705000D01*
X187375000Y-93945000D02*
X187375000Y-93705000D01*
X187375000Y-98865000D02*
X185875000Y-98865000D01*
X187375000Y-99105000D02*
X187375000Y-98865000D01*
X191775000Y-93705000D02*
X191775000Y-93945000D01*
X191775000Y-93945000D02*
X193275000Y-93945000D01*
X191775000Y-98865000D02*
X191775000Y-99105000D01*
X191775000Y-99105000D02*
X187375000Y-99105000D01*
X193275000Y-93945000D02*
X193275000Y-98865000D01*
X193275000Y-98865000D02*
X191775000Y-98865000D01*
%TO.C,SW3*%
X119450000Y-108700000D02*
X123050000Y-108700000D01*
X119450000Y-114300000D02*
X119450000Y-108700000D01*
X123050000Y-108700000D02*
X123050000Y-114300000D01*
X123050000Y-114300000D02*
X119450000Y-114300000D01*
%TO.C,U1*%
X166882500Y-112070000D02*
X167262500Y-112070000D01*
X166882500Y-114330000D02*
X166882500Y-112070000D01*
X167262500Y-111950000D02*
X169762500Y-111950000D01*
X167262500Y-112070000D02*
X167262500Y-111950000D01*
X167262500Y-114330000D02*
X166882500Y-114330000D01*
X167262500Y-114450000D02*
X167262500Y-114330000D01*
X169762500Y-111950000D02*
X169762500Y-112070000D01*
X169762500Y-112070000D02*
X170142500Y-112070000D01*
X169762500Y-114330000D02*
X169762500Y-114450000D01*
X169762500Y-114450000D02*
X167262500Y-114450000D01*
X170142500Y-112070000D02*
X170142500Y-114330000D01*
X170142500Y-114330000D02*
X169762500Y-114330000D01*
%TO.C,REF\u002A\u002A*%
X122100000Y-117000000D02*
G75*
G02*
X117400000Y-117000000I-2350000J0D01*
G01*
X117400000Y-117000000D02*
G75*
G02*
X122100000Y-117000000I2350000J0D01*
G01*
%TO.C,Q1*%
X171300000Y-110037500D02*
X171500000Y-110037500D01*
X171300000Y-111837500D02*
X171300000Y-110037500D01*
X171500000Y-109007500D02*
X172610000Y-109007500D01*
X171500000Y-110037500D02*
X171500000Y-109007500D01*
X172450000Y-111837500D02*
X171300000Y-111837500D01*
X172450000Y-112867500D02*
X172450000Y-111837500D01*
X172610000Y-109007500D02*
X172610000Y-110037500D01*
X172610000Y-110037500D02*
X173390000Y-110037500D01*
X173390000Y-109007500D02*
X174500000Y-109007500D01*
X173390000Y-110037500D02*
X173390000Y-109007500D01*
X173550000Y-111837500D02*
X173550000Y-112867500D01*
X173550000Y-112867500D02*
X172450000Y-112867500D01*
X174500000Y-109007500D02*
X174500000Y-110037500D01*
X174500000Y-110037500D02*
X174700000Y-110037500D01*
X174700000Y-110037500D02*
X174700000Y-111837500D01*
X174700000Y-111837500D02*
X173550000Y-111837500D01*
%TO.C,J6*%
X117470000Y-101400000D02*
X118570000Y-101400000D01*
X117470000Y-105000000D02*
X117470000Y-101400000D01*
X118570000Y-100200000D02*
X121220000Y-100200000D01*
X118570000Y-101400000D02*
X118570000Y-100200000D01*
X118570000Y-105000000D02*
X117470000Y-105000000D01*
X118570000Y-106200000D02*
X118570000Y-105000000D01*
X121220000Y-99800000D02*
X124030000Y-99800000D01*
X121220000Y-100200000D02*
X121220000Y-99800000D01*
X121220000Y-106200000D02*
X118570000Y-106200000D01*
X121220000Y-106600000D02*
X121220000Y-106200000D01*
X123830000Y-102010000D02*
X123830000Y-104390000D01*
X123830000Y-104390000D02*
X124030000Y-104390000D01*
X124030000Y-99800000D02*
X124030000Y-102010000D01*
X124030000Y-102010000D02*
X123830000Y-102010000D01*
X124030000Y-104390000D02*
X124030000Y-106600000D01*
X124030000Y-106600000D02*
X121220000Y-106600000D01*
%TO.C,J4*%
X142650000Y-110895000D02*
X146350000Y-110895000D01*
X142650000Y-112905000D02*
X142650000Y-110895000D01*
X142650000Y-123345000D02*
X142900000Y-123345000D01*
X142650000Y-125355000D02*
X142650000Y-123345000D01*
X142900000Y-112905000D02*
X142650000Y-112905000D01*
X142900000Y-123345000D02*
X142900000Y-112905000D01*
X146350000Y-110895000D02*
X146350000Y-110995000D01*
X146350000Y-110995000D02*
X147950000Y-110995000D01*
X146350000Y-125255000D02*
X146350000Y-125355000D01*
X146350000Y-125355000D02*
X142650000Y-125355000D01*
X147950000Y-110995000D02*
X147950000Y-112945000D01*
X147950000Y-112945000D02*
X149050000Y-112945000D01*
X147950000Y-123305000D02*
X147950000Y-125255000D01*
X147950000Y-125255000D02*
X146350000Y-125255000D01*
X149050000Y-112945000D02*
X149050000Y-123305000D01*
X149050000Y-123305000D02*
X147950000Y-123305000D01*
%TO.C,REF\u002A\u002A*%
X119750000Y-98500000D02*
G75*
G02*
X117750000Y-98500000I-1000000J0D01*
G01*
X117750000Y-98500000D02*
G75*
G02*
X119750000Y-98500000I1000000J0D01*
G01*
%TO.C,U2*%
X158800000Y-80540000D02*
X160300000Y-80540000D01*
X158800000Y-85460000D02*
X158800000Y-80540000D01*
X160300000Y-80300000D02*
X164700000Y-80300000D01*
X160300000Y-80540000D02*
X160300000Y-80300000D01*
X160300000Y-85460000D02*
X158800000Y-85460000D01*
X160300000Y-85700000D02*
X160300000Y-85460000D01*
X164700000Y-80300000D02*
X164700000Y-80540000D01*
X164700000Y-80540000D02*
X166200000Y-80540000D01*
X164700000Y-85460000D02*
X164700000Y-85700000D01*
X164700000Y-85700000D02*
X160300000Y-85700000D01*
X166200000Y-80540000D02*
X166200000Y-85460000D01*
X166200000Y-85460000D02*
X164700000Y-85460000D01*
%TO.C,J5*%
X150275000Y-110400000D02*
X150275000Y-125400000D01*
X150275000Y-110400000D02*
X165975000Y-110400000D01*
X150275000Y-125400000D02*
X165975000Y-125400000D01*
X165975000Y-110400000D02*
X165975000Y-125400000D01*
%TO.C,R5*%
X173770000Y-112520000D02*
X175230000Y-112520000D01*
X175230000Y-115480000D01*
X173770000Y-115480000D01*
X173770000Y-112520000D01*
%TO.C,REF\u002A\u002A*%
X191600000Y-119450000D02*
G75*
G02*
X186900000Y-119450000I-2350000J0D01*
G01*
X186900000Y-119450000D02*
G75*
G02*
X191600000Y-119450000I2350000J0D01*
G01*
X187899999Y-92000000D02*
G75*
G02*
X185899999Y-92000000I-1000000J0D01*
G01*
X185899999Y-92000000D02*
G75*
G02*
X187899999Y-92000000I1000000J0D01*
G01*
X161000000Y-92000000D02*
G75*
G02*
X159000000Y-92000000I-1000000J0D01*
G01*
X159000000Y-92000000D02*
G75*
G02*
X161000000Y-92000000I1000000J0D01*
G01*
%TO.C,SW2*%
X119400000Y-91150000D02*
X123000000Y-91150000D01*
X119400000Y-96750000D02*
X119400000Y-91150000D01*
X123000000Y-91150000D02*
X123000000Y-96750000D01*
X123000000Y-96750000D02*
X119400000Y-96750000D01*
%TO.C,SW4*%
X186899999Y-111100000D02*
X190499999Y-111100000D01*
X186899999Y-116700000D02*
X186899999Y-111100000D01*
X190499999Y-111100000D02*
X190499999Y-116700000D01*
X190499999Y-116700000D02*
X186899999Y-116700000D01*
%TO.C,REF\u002A\u002A*%
X124250000Y-115500000D02*
G75*
G02*
X122250000Y-115500000I-1000000J0D01*
G01*
X122250000Y-115500000D02*
G75*
G02*
X124250000Y-115500000I1000000J0D01*
G01*
X174500000Y-95000000D02*
G75*
G02*
X172500000Y-95000000I-1000000J0D01*
G01*
X172500000Y-95000000D02*
G75*
G02*
X174500000Y-95000000I1000000J0D01*
G01*
%TO.C,R6*%
X160195000Y-107770000D02*
X163155000Y-107770000D01*
X163155000Y-109230000D01*
X160195000Y-109230000D01*
X160195000Y-107770000D01*
%TO.C,C4*%
X188745000Y-91770000D02*
X191705000Y-91770000D01*
X191705000Y-93230000D01*
X188745000Y-93230000D01*
X188745000Y-91770000D01*
%TO.C,REF\u002A\u002A*%
X141500000Y-110500000D02*
G75*
G02*
X139500000Y-110500000I-1000000J0D01*
G01*
X139500000Y-110500000D02*
G75*
G02*
X141500000Y-110500000I1000000J0D01*
G01*
%TO.C,J7*%
X186119999Y-99850000D02*
X188929999Y-99850000D01*
X186119999Y-102060000D02*
X186119999Y-99850000D01*
X186119999Y-108440000D02*
X186319999Y-108440000D01*
X186119999Y-110650000D02*
X186119999Y-108440000D01*
X186319999Y-102060000D02*
X186119999Y-102060000D01*
X186319999Y-108440000D02*
X186319999Y-102060000D01*
X188929999Y-99850000D02*
X188929999Y-100250000D01*
X188929999Y-100250000D02*
X191579999Y-100250000D01*
X188929999Y-110250000D02*
X188929999Y-110650000D01*
X188929999Y-110650000D02*
X186119999Y-110650000D01*
X191579999Y-100250000D02*
X191579999Y-101450000D01*
X191579999Y-101450000D02*
X192679999Y-101450000D01*
X191579999Y-109050000D02*
X191579999Y-110250000D01*
X191579999Y-110250000D02*
X188929999Y-110250000D01*
X192679999Y-101450000D02*
X192679999Y-109050000D01*
X192679999Y-109050000D02*
X191579999Y-109050000D01*
%TO.C,SW1*%
X158870000Y-85920000D02*
X166050000Y-85920000D01*
X166050000Y-89080000D01*
X158870000Y-89080000D01*
X158870000Y-85920000D01*
%TO.C,R10*%
X154270000Y-106695000D02*
X155730000Y-106695000D01*
X155730000Y-109655000D01*
X154270000Y-109655000D01*
X154270000Y-106695000D01*
%TO.C,U4*%
X146450000Y-103150000D02*
X146800000Y-103150000D01*
X146450000Y-107850000D02*
X146450000Y-103150000D01*
X146800000Y-102250000D02*
X147700000Y-102250000D01*
X146800000Y-103150000D02*
X146800000Y-102250000D01*
X146800000Y-107850000D02*
X146450000Y-107850000D01*
X146800000Y-108750000D02*
X146800000Y-107850000D01*
X147700000Y-101900000D02*
X152400000Y-101900000D01*
X147700000Y-102250000D02*
X147700000Y-101900000D01*
X147700000Y-108750000D02*
X146800000Y-108750000D01*
X147700000Y-109100000D02*
X147700000Y-108750000D01*
X152400000Y-101900000D02*
X152400000Y-102250000D01*
X152400000Y-102250000D02*
X153300000Y-102250000D01*
X152400000Y-108750000D02*
X152400000Y-109100000D01*
X152400000Y-109100000D02*
X147700000Y-109100000D01*
X153300000Y-102250000D02*
X153300000Y-103150000D01*
X153300000Y-103150000D02*
X153650000Y-103150000D01*
X153300000Y-107850000D02*
X153300000Y-108750000D01*
X153300000Y-108750000D02*
X152400000Y-108750000D01*
X153650000Y-103150000D02*
X153650000Y-107850000D01*
X153650000Y-107850000D02*
X153300000Y-107850000D01*
%TO.C,U3*%
X139355000Y-80330000D02*
X157155000Y-80330000D01*
X157155000Y-101280000D01*
X139355000Y-101280000D01*
X139355000Y-80330000D01*
%TO.C,J3*%
X166720000Y-115900000D02*
X167820000Y-115900000D01*
X166720000Y-123500000D02*
X166720000Y-115900000D01*
X167820000Y-114700000D02*
X170470000Y-114700000D01*
X167820000Y-115900000D02*
X167820000Y-114700000D01*
X167820000Y-123500000D02*
X166720000Y-123500000D01*
X167820000Y-124700000D02*
X167820000Y-123500000D01*
X170470000Y-114300000D02*
X173280000Y-114300000D01*
X170470000Y-114700000D02*
X170470000Y-114300000D01*
X170470000Y-124700000D02*
X167820000Y-124700000D01*
X170470000Y-125100000D02*
X170470000Y-124700000D01*
X173080000Y-116510000D02*
X173080000Y-122890000D01*
X173080000Y-122890000D02*
X173280000Y-122890000D01*
X173280000Y-114300000D02*
X173280000Y-116510000D01*
X173280000Y-116510000D02*
X173080000Y-116510000D01*
X173280000Y-122890000D02*
X173280000Y-125100000D01*
X173280000Y-125100000D02*
X170470000Y-125100000D01*
%TO.C,J2*%
X139220000Y-102100000D02*
X142030000Y-102100000D01*
X139220000Y-104310000D02*
X139220000Y-102100000D01*
X139220000Y-106690000D02*
X139420000Y-106690000D01*
X139220000Y-108900000D02*
X139220000Y-106690000D01*
X139420000Y-104310000D02*
X139220000Y-104310000D01*
X139420000Y-106690000D02*
X139420000Y-104310000D01*
X142030000Y-102100000D02*
X142030000Y-102500000D01*
X142030000Y-102500000D02*
X144680000Y-102500000D01*
X142030000Y-108500000D02*
X142030000Y-108900000D01*
X142030000Y-108900000D02*
X139220000Y-108900000D01*
X144680000Y-102500000D02*
X144680000Y-103700000D01*
X144680000Y-103700000D02*
X145780000Y-103700000D01*
X144680000Y-107300000D02*
X144680000Y-108500000D01*
X144680000Y-108500000D02*
X142030000Y-108500000D01*
X145780000Y-103700000D02*
X145780000Y-107300000D01*
X145780000Y-107300000D02*
X144680000Y-107300000D01*
%TO.C,REF\u002A\u002A*%
X192899999Y-111500000D02*
G75*
G02*
X190899999Y-111500000I-1000000J0D01*
G01*
X190899999Y-111500000D02*
G75*
G02*
X192899999Y-111500000I1000000J0D01*
G01*
%TO.C,C3*%
X148270000Y-109295000D02*
X149730000Y-109295000D01*
X149730000Y-112255000D01*
X148270000Y-112255000D01*
X148270000Y-109295000D01*
%TD*%
M02*
