G04 #@! TF.GenerationSoftware,KiCad,Pcbnew,10.0.5*
G04 #@! TF.CreationDate,2026-09-02T11:39:21+01:00*
G04 #@! TF.ProjectId,CyberwatchV1B,43796265-7277-4617-9463-685631422e6b,rev?*
G04 #@! TF.SameCoordinates,Original*
G04 #@! TF.FileFunction,Legend,Bot*
G04 #@! TF.FilePolarity,Positive*
%FSLAX46Y46*%
G04 Gerber Fmt 4.6, Leading zero omitted, Abs format (unit mm)*
G04 Created by KiCad (PCBNEW 10.0.5) date 2026-09-02 11:39:21*
%MOMM*%
%LPD*%
G01*
G04 APERTURE LIST*
%ADD10C,0.200000*%
%ADD11C,2.100000*%
G04 APERTURE END LIST*
D10*
G36*
X164787726Y-85177435D02*
G01*
X164588973Y-85227627D01*
X164628406Y-85347269D01*
X164679288Y-85447580D01*
X164741055Y-85531229D01*
X164813921Y-85600219D01*
X164898114Y-85655506D01*
X164991214Y-85695358D01*
X165094825Y-85719931D01*
X165210968Y-85728447D01*
X165333457Y-85721487D01*
X165438509Y-85701851D01*
X165528639Y-85670964D01*
X165606000Y-85629620D01*
X165676442Y-85575598D01*
X165738278Y-85510621D01*
X165791971Y-85433653D01*
X165837543Y-85343215D01*
X165881396Y-85216073D01*
X165907946Y-85082272D01*
X165916952Y-84940489D01*
X165906343Y-84786160D01*
X165875990Y-84650692D01*
X165827284Y-84531168D01*
X165777010Y-84448056D01*
X165718021Y-84376772D01*
X165649977Y-84316218D01*
X165572112Y-84265737D01*
X165458813Y-84215613D01*
X165338007Y-84185355D01*
X165207854Y-84175062D01*
X165095759Y-84182732D01*
X164996449Y-84204766D01*
X164907977Y-84240261D01*
X164828759Y-84289093D01*
X164758763Y-84350779D01*
X164699975Y-84423805D01*
X164651879Y-84509459D01*
X164614619Y-84609570D01*
X164810257Y-84655732D01*
X164853064Y-84551527D01*
X164903825Y-84473979D01*
X164961932Y-84418053D01*
X165031642Y-84377648D01*
X165113972Y-84352482D01*
X165211976Y-84343590D01*
X165324812Y-84353518D01*
X165420214Y-84381663D01*
X165501495Y-84426846D01*
X165571171Y-84488480D01*
X165625337Y-84562340D01*
X165664893Y-84650237D01*
X165691044Y-84744672D01*
X165706719Y-84840875D01*
X165711971Y-84939390D01*
X165705279Y-85066653D01*
X165686269Y-85177774D01*
X165656192Y-85274888D01*
X165610898Y-85364156D01*
X165553217Y-85434666D01*
X165482536Y-85489028D01*
X165401548Y-85528505D01*
X165316939Y-85552006D01*
X165227363Y-85559919D01*
X165144945Y-85553565D01*
X165071263Y-85535192D01*
X165004841Y-85505281D01*
X164944530Y-85463565D01*
X164893343Y-85411997D01*
X164850021Y-85348452D01*
X164814592Y-85271069D01*
X164787726Y-85177435D01*
G37*
G36*
X164376024Y-86122746D02*
G01*
X164396540Y-85953852D01*
X164337645Y-85966498D01*
X164291027Y-85970247D01*
X164233266Y-85964503D01*
X164192659Y-85949364D01*
X164159261Y-85924456D01*
X164132209Y-85890838D01*
X164113535Y-85851995D01*
X164075788Y-85750978D01*
X164059394Y-85705000D01*
X164472378Y-84614699D01*
X164273534Y-84614699D01*
X164047120Y-85244938D01*
X164005718Y-85366813D01*
X163968261Y-85496996D01*
X163933334Y-85371221D01*
X163892423Y-85248968D01*
X163659782Y-84614699D01*
X163475317Y-84614699D01*
X163889309Y-85721394D01*
X163954077Y-85886059D01*
X163992807Y-85968415D01*
X164047801Y-86049989D01*
X164105556Y-86102047D01*
X164149627Y-86125317D01*
X164199699Y-86139645D01*
X164257139Y-86144637D01*
X164311511Y-86139527D01*
X164376024Y-86122746D01*
G37*
G36*
X163319613Y-85705000D02*
G01*
X163148520Y-85705000D01*
X163148520Y-85565323D01*
X163087197Y-85637884D01*
X163017654Y-85687891D01*
X162938284Y-85718018D01*
X162846178Y-85728447D01*
X162752911Y-85718928D01*
X162667722Y-85690911D01*
X162588612Y-85643925D01*
X162514252Y-85575856D01*
X162456365Y-85496242D01*
X162413281Y-85400015D01*
X162385732Y-85283823D01*
X162376940Y-85158842D01*
X162564444Y-85158842D01*
X162570985Y-85263944D01*
X162588952Y-85348530D01*
X162616466Y-85416262D01*
X162652555Y-85470160D01*
X162700398Y-85517244D01*
X162750550Y-85549305D01*
X162803836Y-85568202D01*
X162861566Y-85574574D01*
X162931617Y-85565827D01*
X162992946Y-85540254D01*
X163047794Y-85497021D01*
X163097229Y-85432974D01*
X163124106Y-85372251D01*
X163143126Y-85281812D01*
X163150535Y-85151698D01*
X163144106Y-85051715D01*
X163126315Y-84970071D01*
X163098824Y-84903579D01*
X163062425Y-84849631D01*
X163014576Y-84802501D01*
X162964423Y-84770412D01*
X162911139Y-84751501D01*
X162853414Y-84745125D01*
X162778075Y-84756135D01*
X162710789Y-84788931D01*
X162648983Y-84846058D01*
X162614780Y-84897911D01*
X162588348Y-84964855D01*
X162570870Y-85050419D01*
X162564444Y-85158842D01*
X162376940Y-85158842D01*
X162375858Y-85143455D01*
X162384219Y-85028142D01*
X162408648Y-84922171D01*
X162448569Y-84824588D01*
X162499323Y-84745491D01*
X162564682Y-84680780D01*
X162646876Y-84631735D01*
X162739003Y-84601425D01*
X162837019Y-84591252D01*
X162924064Y-84600634D01*
X163001406Y-84628007D01*
X163071308Y-84673688D01*
X163135148Y-84739904D01*
X163135148Y-84198510D01*
X163319613Y-84198510D01*
X163319613Y-85705000D01*
G37*
G36*
X161815508Y-84601247D02*
G01*
X161911717Y-84629998D01*
X161996633Y-84676884D01*
X162072142Y-84742927D01*
X162131572Y-84822259D01*
X162175557Y-84917470D01*
X162203555Y-85031735D01*
X162213559Y-85169100D01*
X162203708Y-85301607D01*
X162176098Y-85412052D01*
X162132620Y-85504323D01*
X162073699Y-85581443D01*
X161999328Y-85644585D01*
X161913122Y-85690117D01*
X161812761Y-85718470D01*
X161695062Y-85728447D01*
X161600378Y-85722118D01*
X161518112Y-85704101D01*
X161446359Y-85675368D01*
X161383561Y-85636215D01*
X161311909Y-85567725D01*
X161256315Y-85482306D01*
X161216498Y-85376829D01*
X161407100Y-85353290D01*
X161440484Y-85427141D01*
X161478513Y-85482165D01*
X161520856Y-85521817D01*
X161570980Y-85550696D01*
X161628139Y-85568407D01*
X161694054Y-85574574D01*
X161780891Y-85563793D01*
X161855752Y-85532477D01*
X161921567Y-85479869D01*
X161960240Y-85430212D01*
X161990422Y-85369615D01*
X162011718Y-85295998D01*
X162022958Y-85206744D01*
X161211461Y-85206744D01*
X161210362Y-85157560D01*
X161217974Y-85052871D01*
X161405085Y-85052871D01*
X162012700Y-85052871D01*
X161997199Y-84963123D01*
X161965139Y-84889563D01*
X161916895Y-84828931D01*
X161854932Y-84782505D01*
X161784600Y-84754710D01*
X161703305Y-84745125D01*
X161635298Y-84751908D01*
X161575606Y-84771534D01*
X161522481Y-84803878D01*
X161474785Y-84850088D01*
X161443547Y-84898437D01*
X161419744Y-84964411D01*
X161405085Y-85052871D01*
X161217974Y-85052871D01*
X161220158Y-85022827D01*
X161247567Y-84910801D01*
X161290614Y-84817504D01*
X161348756Y-84739813D01*
X161422634Y-84675008D01*
X161505365Y-84629098D01*
X161598739Y-84601002D01*
X161705320Y-84591252D01*
X161815508Y-84601247D01*
G37*
G36*
X160987612Y-85705000D02*
G01*
X160987612Y-84614699D01*
X160821649Y-84614699D01*
X160821649Y-84779289D01*
X160755087Y-84677123D01*
X160704321Y-84627889D01*
X160647735Y-84600388D01*
X160585986Y-84591252D01*
X160525275Y-84597438D01*
X160462458Y-84616600D01*
X160396392Y-84650328D01*
X160459865Y-84820321D01*
X160528808Y-84789927D01*
X160595145Y-84780296D01*
X160652531Y-84789411D01*
X160703772Y-84816749D01*
X160744526Y-84859534D01*
X160772465Y-84917957D01*
X160795236Y-85019547D01*
X160803148Y-85133746D01*
X160803148Y-85705000D01*
X160987612Y-85705000D01*
G37*
G36*
X160085715Y-85705000D02*
G01*
X160418740Y-84614699D01*
X160228139Y-84614699D01*
X160054941Y-85244754D01*
X159990460Y-85478128D01*
X159934040Y-85254829D01*
X159760842Y-84614699D01*
X159571340Y-84614699D01*
X159408399Y-85247777D01*
X159354086Y-85455505D01*
X159291621Y-85245853D01*
X159105050Y-84614699D01*
X158925806Y-84614699D01*
X159265975Y-85705000D01*
X159457584Y-85705000D01*
X159630782Y-85051864D01*
X159672731Y-84866209D01*
X159893099Y-85705000D01*
X160085715Y-85705000D01*
G37*
G36*
X158446439Y-84601518D02*
G01*
X158558159Y-84630178D01*
X158625946Y-84661062D01*
X158679539Y-84698053D01*
X158721100Y-84741004D01*
X158753772Y-84791470D01*
X158780944Y-84853796D01*
X158801975Y-84930139D01*
X158621632Y-84954685D01*
X158595976Y-84879267D01*
X158565136Y-84826540D01*
X158529949Y-84791287D01*
X158485970Y-84767494D01*
X158423831Y-84751292D01*
X158337791Y-84745125D01*
X158246843Y-84753095D01*
X158178589Y-84774555D01*
X158127773Y-84807315D01*
X158100585Y-84841750D01*
X158082417Y-84892447D01*
X158075474Y-84965402D01*
X158076574Y-85013304D01*
X158197299Y-85044599D01*
X158405477Y-85076410D01*
X158569425Y-85104071D01*
X158640042Y-85129726D01*
X158702141Y-85164612D01*
X158755057Y-85210712D01*
X158797395Y-85270675D01*
X158824537Y-85339741D01*
X158833757Y-85416762D01*
X158827498Y-85483144D01*
X158809399Y-85541638D01*
X158779679Y-85593826D01*
X158737495Y-85640794D01*
X158687258Y-85677363D01*
X158626142Y-85704656D01*
X158551922Y-85722158D01*
X158461806Y-85728447D01*
X158355781Y-85719319D01*
X158258382Y-85692543D01*
X158165304Y-85646082D01*
X158061186Y-85569536D01*
X158047394Y-85643802D01*
X158024275Y-85705000D01*
X157831659Y-85705000D01*
X157860813Y-85640774D01*
X157878279Y-85574299D01*
X157886086Y-85483005D01*
X157890003Y-85248601D01*
X157890003Y-85224788D01*
X158076574Y-85224788D01*
X158085156Y-85339226D01*
X158106249Y-85409985D01*
X158136884Y-85460044D01*
X158177153Y-85502506D01*
X158228157Y-85538029D01*
X158285125Y-85563693D01*
X158347920Y-85579411D01*
X158417750Y-85584832D01*
X158487902Y-85578559D01*
X158541110Y-85561572D01*
X158581240Y-85535464D01*
X158612423Y-85499513D01*
X158630752Y-85458936D01*
X158637019Y-85412091D01*
X158630592Y-85365865D01*
X158611465Y-85324255D01*
X158580834Y-85289778D01*
X158538650Y-85264172D01*
X158482837Y-85246484D01*
X158377817Y-85227077D01*
X158190136Y-85192273D01*
X158076574Y-85156919D01*
X158076574Y-85224788D01*
X157890003Y-85224788D01*
X157890003Y-85002496D01*
X157892876Y-84888863D01*
X157899253Y-84832228D01*
X157922479Y-84761460D01*
X157956681Y-84706657D01*
X158006110Y-84663153D01*
X158084725Y-84624133D01*
X158178877Y-84600373D01*
X158311138Y-84591252D01*
X158446439Y-84601518D01*
G37*
G36*
X157202062Y-85536472D02*
G01*
X157175409Y-85705000D01*
X157314811Y-85716723D01*
X157408564Y-85707820D01*
X157470515Y-85685033D01*
X157518247Y-85647627D01*
X157548368Y-85601593D01*
X157563622Y-85535647D01*
X157570899Y-85383973D01*
X157570899Y-84758314D01*
X157706179Y-84758314D01*
X157706179Y-84614699D01*
X157570899Y-84614699D01*
X157570899Y-84344597D01*
X157387534Y-84233681D01*
X157387534Y-84614699D01*
X157202062Y-84614699D01*
X157202062Y-84758314D01*
X157387534Y-84758314D01*
X157387534Y-85396979D01*
X157384343Y-85469214D01*
X157377825Y-85498828D01*
X157365064Y-85519042D01*
X157346043Y-85534823D01*
X157321160Y-85544432D01*
X157283029Y-85548196D01*
X157202062Y-85536472D01*
G37*
G36*
X156311430Y-85306395D02*
G01*
X156130080Y-85329934D01*
X156151722Y-85421509D01*
X156184490Y-85499589D01*
X156227891Y-85566181D01*
X156282213Y-85622751D01*
X156346210Y-85668575D01*
X156416758Y-85701365D01*
X156495112Y-85721488D01*
X156582906Y-85728447D01*
X156692421Y-85718715D01*
X156787062Y-85690859D01*
X156869634Y-85645701D01*
X156942127Y-85582451D01*
X156998842Y-85506144D01*
X157041088Y-85413364D01*
X157068147Y-85300730D01*
X157077865Y-85163971D01*
X157070920Y-85047619D01*
X157051105Y-84945490D01*
X157019521Y-84855584D01*
X156973085Y-84773829D01*
X156914153Y-84708412D01*
X156841743Y-84657381D01*
X156759982Y-84620710D01*
X156673788Y-84598701D01*
X156581899Y-84591252D01*
X156493598Y-84597444D01*
X156417031Y-84615075D01*
X156350335Y-84643238D01*
X156292013Y-84681744D01*
X156241745Y-84730509D01*
X156200988Y-84788630D01*
X156169436Y-84857429D01*
X156147482Y-84938749D01*
X156326818Y-84966409D01*
X156349593Y-84895926D01*
X156379999Y-84841699D01*
X156417493Y-84800721D01*
X156463469Y-84770035D01*
X156515329Y-84751518D01*
X156574755Y-84745125D01*
X156642519Y-84751609D01*
X156701795Y-84770314D01*
X156754294Y-84800980D01*
X156801168Y-84844501D01*
X156836346Y-84895770D01*
X156863566Y-84962615D01*
X156881615Y-85048791D01*
X156888271Y-85158842D01*
X156881780Y-85270878D01*
X156864251Y-85357984D01*
X156837977Y-85424945D01*
X156804282Y-85475747D01*
X156758904Y-85519120D01*
X156708077Y-85549593D01*
X156650680Y-85568146D01*
X156585013Y-85574574D01*
X156515138Y-85566935D01*
X156455433Y-85544982D01*
X156403663Y-85508811D01*
X156363079Y-85460333D01*
X156331925Y-85394422D01*
X156311430Y-85306395D01*
G37*
G36*
X155972269Y-85705000D02*
G01*
X155972269Y-84198510D01*
X155787804Y-84198510D01*
X155787804Y-84740362D01*
X155718120Y-84674448D01*
X155641706Y-84628504D01*
X155557067Y-84600780D01*
X155461923Y-84591252D01*
X155382492Y-84596901D01*
X155313014Y-84613051D01*
X155251905Y-84638971D01*
X155197225Y-84675528D01*
X155155193Y-84719237D01*
X155124319Y-84770771D01*
X155104614Y-84828387D01*
X155091012Y-84907789D01*
X155085850Y-85014769D01*
X155085850Y-85705000D01*
X155270315Y-85705000D01*
X155270315Y-85014311D01*
X155278210Y-84923700D01*
X155299068Y-84858608D01*
X155330307Y-84812628D01*
X155374036Y-84778532D01*
X155429398Y-84757202D01*
X155499842Y-84749521D01*
X155579170Y-84760109D01*
X155654081Y-84792111D01*
X155698172Y-84824347D01*
X155732173Y-84862623D01*
X155757121Y-84907608D01*
X155779114Y-84987879D01*
X155787804Y-85108742D01*
X155787804Y-85705000D01*
X155972269Y-85705000D01*
G37*
G36*
X154352847Y-85705000D02*
G01*
X154934817Y-84198510D01*
X154719669Y-84198510D01*
X154329217Y-85293298D01*
X154250357Y-85540044D01*
X154169390Y-85293298D01*
X153763642Y-84198510D01*
X153560768Y-84198510D01*
X154148874Y-85705000D01*
X154352847Y-85705000D01*
G37*
G36*
X152762735Y-85705000D02*
G01*
X152947199Y-85705000D01*
X152947199Y-84526589D01*
X153020601Y-84587660D01*
X153121863Y-84653992D01*
X153228430Y-84711654D01*
X153316036Y-84749521D01*
X153316036Y-84573667D01*
X153215712Y-84520296D01*
X153125829Y-84460932D01*
X153045568Y-84395614D01*
X152971934Y-84322232D01*
X152918380Y-84254865D01*
X152881620Y-84192648D01*
X152762735Y-84192648D01*
X152762735Y-85705000D01*
G37*
G36*
X152224362Y-85705000D02*
G01*
X151651552Y-85705000D01*
X151513821Y-85698121D01*
X151409293Y-85679812D01*
X151316437Y-85647472D01*
X151244796Y-85605165D01*
X151185929Y-85547172D01*
X151134612Y-85464665D01*
X151101277Y-85370345D01*
X151090087Y-85268293D01*
X151295995Y-85268293D01*
X151303706Y-85338045D01*
X151325762Y-85396887D01*
X151360247Y-85446700D01*
X151401600Y-85481700D01*
X151451499Y-85505999D01*
X151516272Y-85523283D01*
X151651552Y-85530610D01*
X152025518Y-85530610D01*
X152025518Y-85005976D01*
X151678205Y-85005976D01*
X151543298Y-85013374D01*
X151458478Y-85031530D01*
X151410699Y-85053004D01*
X151371262Y-85082342D01*
X151339043Y-85120007D01*
X151315426Y-85163720D01*
X151300993Y-85212728D01*
X151295995Y-85268293D01*
X151090087Y-85268293D01*
X151090007Y-85267561D01*
X151098439Y-85182174D01*
X151122899Y-85106697D01*
X151163280Y-85039041D01*
X151217706Y-84981982D01*
X151286664Y-84936353D01*
X151372840Y-84902112D01*
X151306637Y-84862311D01*
X151254697Y-84816582D01*
X151215120Y-84764726D01*
X151185865Y-84706176D01*
X151168596Y-84645952D01*
X151164917Y-84605907D01*
X151358460Y-84605907D01*
X151368569Y-84680549D01*
X151396929Y-84738439D01*
X151443264Y-84782769D01*
X151511143Y-84814002D01*
X151577908Y-84826262D01*
X151700736Y-84831587D01*
X152025518Y-84831587D01*
X152025518Y-84372899D01*
X151725374Y-84372899D01*
X151575344Y-84379407D01*
X151496854Y-84394148D01*
X151455511Y-84412508D01*
X151421694Y-84438533D01*
X151394364Y-84472825D01*
X151367686Y-84533892D01*
X151358460Y-84605907D01*
X151164917Y-84605907D01*
X151162822Y-84583101D01*
X151169242Y-84515655D01*
X151188602Y-84449875D01*
X151221715Y-84384714D01*
X151266017Y-84326907D01*
X151319944Y-84280351D01*
X151384655Y-84244214D01*
X151455537Y-84220302D01*
X151546155Y-84204379D01*
X151660802Y-84198510D01*
X152224362Y-84198510D01*
X152224362Y-85705000D01*
G37*
G36*
X167528863Y-87697435D02*
G01*
X167330110Y-87747627D01*
X167369543Y-87867269D01*
X167420425Y-87967580D01*
X167482192Y-88051229D01*
X167555058Y-88120219D01*
X167639251Y-88175506D01*
X167732351Y-88215358D01*
X167835962Y-88239931D01*
X167952105Y-88248447D01*
X168074594Y-88241487D01*
X168179646Y-88221851D01*
X168269776Y-88190964D01*
X168347137Y-88149620D01*
X168417579Y-88095598D01*
X168479415Y-88030621D01*
X168533108Y-87953653D01*
X168578680Y-87863215D01*
X168622533Y-87736073D01*
X168649083Y-87602272D01*
X168658089Y-87460489D01*
X168647480Y-87306160D01*
X168617127Y-87170692D01*
X168568421Y-87051168D01*
X168518147Y-86968056D01*
X168459158Y-86896772D01*
X168391114Y-86836218D01*
X168313249Y-86785737D01*
X168199950Y-86735613D01*
X168079144Y-86705355D01*
X167948991Y-86695062D01*
X167836896Y-86702732D01*
X167737586Y-86724766D01*
X167649114Y-86760261D01*
X167569896Y-86809093D01*
X167499900Y-86870779D01*
X167441112Y-86943805D01*
X167393016Y-87029459D01*
X167355756Y-87129570D01*
X167551394Y-87175732D01*
X167594201Y-87071527D01*
X167644962Y-86993979D01*
X167703069Y-86938053D01*
X167772779Y-86897648D01*
X167855109Y-86872482D01*
X167953113Y-86863590D01*
X168065949Y-86873518D01*
X168161351Y-86901663D01*
X168242632Y-86946846D01*
X168312308Y-87008480D01*
X168366474Y-87082340D01*
X168406030Y-87170237D01*
X168432181Y-87264672D01*
X168447856Y-87360875D01*
X168453108Y-87459390D01*
X168446416Y-87586653D01*
X168427406Y-87697774D01*
X168397329Y-87794888D01*
X168352035Y-87884156D01*
X168294354Y-87954666D01*
X168223673Y-88009028D01*
X168142685Y-88048505D01*
X168058076Y-88072006D01*
X167968500Y-88079919D01*
X167886082Y-88073565D01*
X167812400Y-88055192D01*
X167745978Y-88025281D01*
X167685667Y-87983565D01*
X167634480Y-87931997D01*
X167591158Y-87868452D01*
X167555729Y-87791069D01*
X167528863Y-87697435D01*
G37*
G36*
X167111024Y-88225000D02*
G01*
X167111024Y-87134699D01*
X166945061Y-87134699D01*
X166945061Y-87299289D01*
X166878499Y-87197123D01*
X166827733Y-87147889D01*
X166771147Y-87120388D01*
X166709398Y-87111252D01*
X166648687Y-87117438D01*
X166585870Y-87136600D01*
X166519804Y-87170328D01*
X166583277Y-87340321D01*
X166652220Y-87309927D01*
X166718557Y-87300296D01*
X166775943Y-87309411D01*
X166827184Y-87336749D01*
X166867938Y-87379534D01*
X166895877Y-87437957D01*
X166918648Y-87539547D01*
X166926560Y-87653746D01*
X166926560Y-88225000D01*
X167111024Y-88225000D01*
G37*
G36*
X166073393Y-87121247D02*
G01*
X166169602Y-87149998D01*
X166254518Y-87196884D01*
X166330027Y-87262927D01*
X166389457Y-87342259D01*
X166433443Y-87437470D01*
X166461440Y-87551735D01*
X166471444Y-87689100D01*
X166461593Y-87821607D01*
X166433983Y-87932052D01*
X166390505Y-88024323D01*
X166331584Y-88101443D01*
X166257214Y-88164585D01*
X166171007Y-88210117D01*
X166070646Y-88238470D01*
X165952947Y-88248447D01*
X165858263Y-88242118D01*
X165775997Y-88224101D01*
X165704244Y-88195368D01*
X165641446Y-88156215D01*
X165569794Y-88087725D01*
X165514200Y-88002306D01*
X165474384Y-87896829D01*
X165664985Y-87873290D01*
X165698369Y-87947141D01*
X165736398Y-88002165D01*
X165778741Y-88041817D01*
X165828865Y-88070696D01*
X165886024Y-88088407D01*
X165951939Y-88094574D01*
X166038777Y-88083793D01*
X166113637Y-88052477D01*
X166179452Y-87999869D01*
X166218125Y-87950212D01*
X166248307Y-87889615D01*
X166269603Y-87815998D01*
X166280843Y-87726744D01*
X165469346Y-87726744D01*
X165468247Y-87677560D01*
X165475859Y-87572871D01*
X165662970Y-87572871D01*
X166270585Y-87572871D01*
X166255084Y-87483123D01*
X166223024Y-87409563D01*
X166174780Y-87348931D01*
X166112818Y-87302505D01*
X166042485Y-87274710D01*
X165961190Y-87265125D01*
X165893183Y-87271908D01*
X165833491Y-87291534D01*
X165780366Y-87323878D01*
X165732670Y-87370088D01*
X165701432Y-87418437D01*
X165677629Y-87484411D01*
X165662970Y-87572871D01*
X165475859Y-87572871D01*
X165478043Y-87542827D01*
X165505452Y-87430801D01*
X165548499Y-87337504D01*
X165606641Y-87259813D01*
X165680519Y-87195008D01*
X165763250Y-87149098D01*
X165856624Y-87121002D01*
X165963205Y-87111252D01*
X166073393Y-87121247D01*
G37*
G36*
X164918630Y-87121518D02*
G01*
X165030350Y-87150178D01*
X165098136Y-87181062D01*
X165151730Y-87218053D01*
X165193291Y-87261004D01*
X165225963Y-87311470D01*
X165253135Y-87373796D01*
X165274166Y-87450139D01*
X165093823Y-87474685D01*
X165068167Y-87399267D01*
X165037327Y-87346540D01*
X165002140Y-87311287D01*
X164958161Y-87287494D01*
X164896022Y-87271292D01*
X164809982Y-87265125D01*
X164719033Y-87273095D01*
X164650780Y-87294555D01*
X164599964Y-87327315D01*
X164572776Y-87361750D01*
X164554607Y-87412447D01*
X164547665Y-87485402D01*
X164548764Y-87533304D01*
X164669489Y-87564599D01*
X164877668Y-87596410D01*
X165041616Y-87624071D01*
X165112233Y-87649726D01*
X165174331Y-87684612D01*
X165227248Y-87730712D01*
X165269586Y-87790675D01*
X165296727Y-87859741D01*
X165305948Y-87936762D01*
X165299689Y-88003144D01*
X165281590Y-88061638D01*
X165251870Y-88113826D01*
X165209685Y-88160794D01*
X165159449Y-88197363D01*
X165098333Y-88224656D01*
X165024113Y-88242158D01*
X164933996Y-88248447D01*
X164827971Y-88239319D01*
X164730573Y-88212543D01*
X164637495Y-88166082D01*
X164533377Y-88089536D01*
X164519585Y-88163802D01*
X164496466Y-88225000D01*
X164303850Y-88225000D01*
X164333004Y-88160774D01*
X164350470Y-88094299D01*
X164358277Y-88003005D01*
X164362193Y-87768601D01*
X164362193Y-87744788D01*
X164548764Y-87744788D01*
X164557347Y-87859226D01*
X164578440Y-87929985D01*
X164609075Y-87980044D01*
X164649344Y-88022506D01*
X164700347Y-88058029D01*
X164757315Y-88083693D01*
X164820111Y-88099411D01*
X164889941Y-88104832D01*
X164960093Y-88098559D01*
X165013301Y-88081572D01*
X165053431Y-88055464D01*
X165084614Y-88019513D01*
X165102943Y-87978936D01*
X165109210Y-87932091D01*
X165102783Y-87885865D01*
X165083656Y-87844255D01*
X165053024Y-87809778D01*
X165010841Y-87784172D01*
X164955027Y-87766484D01*
X164850007Y-87747077D01*
X164662326Y-87712273D01*
X164548764Y-87676919D01*
X164548764Y-87744788D01*
X164362193Y-87744788D01*
X164362193Y-87522496D01*
X164365067Y-87408863D01*
X164371444Y-87352228D01*
X164394669Y-87281460D01*
X164428872Y-87226657D01*
X164478301Y-87183153D01*
X164556916Y-87144133D01*
X164651068Y-87120373D01*
X164783329Y-87111252D01*
X164918630Y-87121518D01*
G37*
G36*
X163674253Y-88056472D02*
G01*
X163647600Y-88225000D01*
X163787001Y-88236723D01*
X163880754Y-88227820D01*
X163942706Y-88205033D01*
X163990437Y-88167627D01*
X164020559Y-88121593D01*
X164035813Y-88055647D01*
X164043090Y-87903973D01*
X164043090Y-87278314D01*
X164178370Y-87278314D01*
X164178370Y-87134699D01*
X164043090Y-87134699D01*
X164043090Y-86864597D01*
X163859725Y-86753681D01*
X163859725Y-87134699D01*
X163674253Y-87134699D01*
X163674253Y-87278314D01*
X163859725Y-87278314D01*
X163859725Y-87916979D01*
X163856534Y-87989214D01*
X163850016Y-88018828D01*
X163837255Y-88039042D01*
X163818234Y-88054823D01*
X163793351Y-88064432D01*
X163755219Y-88068196D01*
X163674253Y-88056472D01*
G37*
G36*
X163157134Y-87121247D02*
G01*
X163253342Y-87149998D01*
X163338259Y-87196884D01*
X163413768Y-87262927D01*
X163473197Y-87342259D01*
X163517183Y-87437470D01*
X163545180Y-87551735D01*
X163555184Y-87689100D01*
X163545333Y-87821607D01*
X163517723Y-87932052D01*
X163474245Y-88024323D01*
X163415325Y-88101443D01*
X163340954Y-88164585D01*
X163254747Y-88210117D01*
X163154387Y-88238470D01*
X163036687Y-88248447D01*
X162942004Y-88242118D01*
X162859738Y-88224101D01*
X162787984Y-88195368D01*
X162725186Y-88156215D01*
X162653534Y-88087725D01*
X162597940Y-88002306D01*
X162558124Y-87896829D01*
X162748725Y-87873290D01*
X162782109Y-87947141D01*
X162820138Y-88002165D01*
X162862481Y-88041817D01*
X162912606Y-88070696D01*
X162969764Y-88088407D01*
X163035680Y-88094574D01*
X163122517Y-88083793D01*
X163197377Y-88052477D01*
X163263192Y-87999869D01*
X163301866Y-87950212D01*
X163332047Y-87889615D01*
X163353344Y-87815998D01*
X163364583Y-87726744D01*
X162553086Y-87726744D01*
X162551987Y-87677560D01*
X162559599Y-87572871D01*
X162746710Y-87572871D01*
X163354325Y-87572871D01*
X163338825Y-87483123D01*
X163306765Y-87409563D01*
X163258521Y-87348931D01*
X163196558Y-87302505D01*
X163126225Y-87274710D01*
X163044931Y-87265125D01*
X162976924Y-87271908D01*
X162917231Y-87291534D01*
X162864107Y-87323878D01*
X162816411Y-87370088D01*
X162785172Y-87418437D01*
X162761369Y-87484411D01*
X162746710Y-87572871D01*
X162559599Y-87572871D01*
X162561783Y-87542827D01*
X162589192Y-87430801D01*
X162632240Y-87337504D01*
X162690381Y-87259813D01*
X162764259Y-87195008D01*
X162846990Y-87149098D01*
X162940365Y-87121002D01*
X163046946Y-87111252D01*
X163157134Y-87121247D01*
G37*
G36*
X161633512Y-87261828D02*
G01*
X161688415Y-87201487D01*
X161758534Y-87153018D01*
X161839484Y-87122000D01*
X161933748Y-87111252D01*
X162021095Y-87119247D01*
X162101509Y-87142763D01*
X162176556Y-87181960D01*
X162242123Y-87235168D01*
X162296273Y-87302289D01*
X162339496Y-87385384D01*
X162369194Y-87475292D01*
X162387501Y-87573366D01*
X162393810Y-87680857D01*
X162386764Y-87790871D01*
X162366509Y-87888811D01*
X162333909Y-87976421D01*
X162287615Y-88057040D01*
X162231420Y-88123265D01*
X162164832Y-88176731D01*
X162089433Y-88216690D01*
X162010143Y-88240439D01*
X161925504Y-88248447D01*
X161828857Y-88237868D01*
X161747966Y-88207720D01*
X161679381Y-88158406D01*
X161621147Y-88087704D01*
X161621147Y-88225000D01*
X161450055Y-88225000D01*
X161450055Y-87695695D01*
X161618125Y-87695695D01*
X161624471Y-87798596D01*
X161641816Y-87880516D01*
X161668222Y-87945298D01*
X161702663Y-87996113D01*
X161764311Y-88051657D01*
X161831931Y-88083751D01*
X161908102Y-88094574D01*
X161983447Y-88083453D01*
X162051952Y-88050077D01*
X162116105Y-87991534D01*
X162152098Y-87938348D01*
X162179614Y-87870986D01*
X162197637Y-87786282D01*
X162204216Y-87680399D01*
X162197877Y-87569850D01*
X162180715Y-87483352D01*
X162154922Y-87416379D01*
X162121784Y-87365143D01*
X162061208Y-87308844D01*
X161993622Y-87276196D01*
X161916254Y-87265125D01*
X161855807Y-87271613D01*
X161801192Y-87290668D01*
X161750964Y-87322649D01*
X161704220Y-87369173D01*
X161669547Y-87422558D01*
X161642613Y-87492080D01*
X161624723Y-87581591D01*
X161618125Y-87695695D01*
X161450055Y-87695695D01*
X161450055Y-86718510D01*
X161633512Y-86718510D01*
X161633512Y-87261828D01*
G37*
G36*
X160627659Y-87827494D02*
G01*
X160443195Y-87802948D01*
X160414534Y-87903279D01*
X160378051Y-87975658D01*
X160335117Y-88026247D01*
X160280878Y-88064008D01*
X160219566Y-88086731D01*
X160149096Y-88094574D01*
X160066049Y-88084387D01*
X159993690Y-88054696D01*
X159929369Y-88004723D01*
X159879631Y-87940133D01*
X159849933Y-87866806D01*
X159839701Y-87781974D01*
X159849289Y-87700993D01*
X159876880Y-87632301D01*
X159922683Y-87573054D01*
X159982356Y-87527728D01*
X160051741Y-87500340D01*
X160133708Y-87490806D01*
X160188709Y-87495367D01*
X160263859Y-87511322D01*
X160243435Y-87349480D01*
X160213667Y-87351587D01*
X160136977Y-87344622D01*
X160066767Y-87324187D01*
X160001634Y-87290221D01*
X159960700Y-87255715D01*
X159931702Y-87213793D01*
X159913693Y-87162994D01*
X159907295Y-87100902D01*
X159915176Y-87036222D01*
X159937951Y-86981009D01*
X159975989Y-86933016D01*
X160025270Y-86896564D01*
X160083497Y-86874323D01*
X160153217Y-86866521D01*
X160222308Y-86874285D01*
X160281334Y-86896630D01*
X160332553Y-86933565D01*
X160372774Y-86982648D01*
X160403885Y-87048286D01*
X160424785Y-87134699D01*
X160609158Y-87101910D01*
X160585712Y-87011003D01*
X160552054Y-86934089D01*
X160508703Y-86869122D01*
X160455468Y-86814589D01*
X160392945Y-86770600D01*
X160323354Y-86738949D01*
X160245382Y-86719426D01*
X160157339Y-86712648D01*
X160076629Y-86718663D01*
X160001472Y-86736346D01*
X159930834Y-86765587D01*
X159866251Y-86805858D01*
X159813950Y-86853792D01*
X159772565Y-86909843D01*
X159741871Y-86972594D01*
X159723755Y-87036961D01*
X159717702Y-87103925D01*
X159723585Y-87167399D01*
X159740949Y-87226257D01*
X159770000Y-87281612D01*
X159809250Y-87330185D01*
X159860204Y-87372575D01*
X159924698Y-87408923D01*
X159840702Y-87437578D01*
X159772607Y-87479983D01*
X159717793Y-87536418D01*
X159677644Y-87604337D01*
X159652742Y-87684064D01*
X159643971Y-87778493D01*
X159653092Y-87873824D01*
X159679753Y-87959918D01*
X159724013Y-88038780D01*
X159787403Y-88111793D01*
X159863017Y-88171047D01*
X159947428Y-88213385D01*
X160042351Y-88239411D01*
X160150103Y-88248447D01*
X160247647Y-88240654D01*
X160333650Y-88218231D01*
X160410110Y-88181863D01*
X160478549Y-88131210D01*
X160536644Y-88068529D01*
X160580504Y-87997935D01*
X160610909Y-87918186D01*
X160627659Y-87827494D01*
G37*
G36*
X158767444Y-88225000D02*
G01*
X158951909Y-88225000D01*
X158951909Y-87046589D01*
X159025311Y-87107660D01*
X159126573Y-87173992D01*
X159233140Y-87231654D01*
X159320746Y-87269521D01*
X159320746Y-87093667D01*
X159220422Y-87040296D01*
X159130538Y-86980932D01*
X159050278Y-86915614D01*
X158976644Y-86842232D01*
X158923090Y-86774865D01*
X158886330Y-86712648D01*
X158767444Y-86712648D01*
X158767444Y-88225000D01*
G37*
G36*
X158382762Y-88248447D02*
G01*
X157947246Y-86695062D01*
X157799693Y-86695062D01*
X158234201Y-88248447D01*
X158382762Y-88248447D01*
G37*
G36*
X157328739Y-86723089D02*
G01*
X157418315Y-86752793D01*
X157494695Y-86800942D01*
X157558904Y-86865608D01*
X157613305Y-86948130D01*
X157657635Y-87051718D01*
X157686154Y-87161624D01*
X157705320Y-87302638D01*
X157712407Y-87481097D01*
X157704803Y-87660729D01*
X157683948Y-87806775D01*
X157652361Y-87924435D01*
X157611940Y-88018342D01*
X157563846Y-88092467D01*
X157496313Y-88160469D01*
X157418473Y-88208554D01*
X157328276Y-88238106D01*
X157222578Y-88248447D01*
X157115772Y-88237934D01*
X157025917Y-88208063D01*
X156949545Y-88159695D01*
X156885356Y-88094685D01*
X156831140Y-88011966D01*
X156787154Y-87908369D01*
X156758839Y-87798444D01*
X156739850Y-87658055D01*
X156732840Y-87481097D01*
X156732865Y-87480547D01*
X156922342Y-87480547D01*
X156929935Y-87677125D01*
X156949483Y-87815976D01*
X156976836Y-87910397D01*
X157008988Y-87971750D01*
X157057142Y-88027699D01*
X157108085Y-88065242D01*
X157162687Y-88087183D01*
X157222578Y-88094574D01*
X157282549Y-88087205D01*
X157337194Y-88065343D01*
X157388140Y-88027960D01*
X157436260Y-87972300D01*
X157468336Y-87911207D01*
X157495662Y-87816878D01*
X157515213Y-87677814D01*
X157522813Y-87480547D01*
X157514739Y-87285094D01*
X157493669Y-87142899D01*
X157463642Y-87042478D01*
X157427559Y-86973957D01*
X157385480Y-86926086D01*
X157338450Y-86893131D01*
X157285450Y-86873341D01*
X157224685Y-86866521D01*
X157163632Y-86873916D01*
X157108311Y-86895790D01*
X157057063Y-86933054D01*
X157008988Y-86988337D01*
X156976912Y-87049182D01*
X156949557Y-87143413D01*
X156929965Y-87282659D01*
X156922342Y-87480547D01*
X156732865Y-87480547D01*
X156742425Y-87268932D01*
X156766638Y-87125632D01*
X156808161Y-87000636D01*
X156859877Y-86901967D01*
X156903577Y-86844920D01*
X156953632Y-86798361D01*
X157010545Y-86761374D01*
X157073002Y-86734824D01*
X157143191Y-86718373D01*
X157222578Y-86712648D01*
X157328739Y-86723089D01*
G37*
G36*
X156153044Y-86720277D02*
G01*
X156236119Y-86741950D01*
X156307719Y-86776633D01*
X156369682Y-86824389D01*
X156421589Y-86884008D01*
X156457948Y-86948919D01*
X156479925Y-87020308D01*
X156487468Y-87099895D01*
X156481009Y-87170537D01*
X156462435Y-87232112D01*
X156432147Y-87286374D01*
X156390584Y-87332596D01*
X156334832Y-87372616D01*
X156262062Y-87406267D01*
X156348687Y-87438270D01*
X156418302Y-87483244D01*
X156473638Y-87541364D01*
X156514078Y-87610828D01*
X156539117Y-87691866D01*
X156547918Y-87787286D01*
X156539103Y-87883399D01*
X156513525Y-87969009D01*
X156471439Y-88046206D01*
X156411722Y-88116464D01*
X156339874Y-88173150D01*
X156257590Y-88214080D01*
X156162873Y-88239524D01*
X156053052Y-88248447D01*
X155943197Y-88239556D01*
X155848467Y-88214206D01*
X155766195Y-88173442D01*
X155694381Y-88117014D01*
X155634427Y-88046932D01*
X155592335Y-87970505D01*
X155566849Y-87886334D01*
X155558264Y-87794247D01*
X155746679Y-87794247D01*
X155756622Y-87877829D01*
X155785240Y-87948716D01*
X155832775Y-88009852D01*
X155894572Y-88056547D01*
X155966316Y-88084757D01*
X156050945Y-88094574D01*
X156133330Y-88084470D01*
X156209855Y-88054274D01*
X156255238Y-88023446D01*
X156292036Y-87985691D01*
X156321047Y-87940334D01*
X156349185Y-87865075D01*
X156358416Y-87788202D01*
X156348599Y-87705894D01*
X156320213Y-87635311D01*
X156272870Y-87573695D01*
X156211263Y-87526257D01*
X156140312Y-87497753D01*
X156057173Y-87487875D01*
X155971884Y-87497871D01*
X155898890Y-87526724D01*
X155835340Y-87574703D01*
X155786306Y-87637304D01*
X155756878Y-87709502D01*
X155746679Y-87794247D01*
X155558264Y-87794247D01*
X155558093Y-87792415D01*
X155566507Y-87701639D01*
X155590743Y-87622273D01*
X155630359Y-87552080D01*
X155684410Y-87492423D01*
X155753682Y-87443849D01*
X155840927Y-87406267D01*
X155770199Y-87372791D01*
X155715588Y-87332972D01*
X155674506Y-87286924D01*
X155644336Y-87233045D01*
X155625980Y-87172931D01*
X155619643Y-87105024D01*
X155619713Y-87104291D01*
X155809145Y-87104291D01*
X155816841Y-87165793D01*
X155839320Y-87219509D01*
X155877288Y-87267415D01*
X155926253Y-87304001D01*
X155983689Y-87326230D01*
X156052044Y-87334002D01*
X156122402Y-87326122D01*
X156180973Y-87303688D01*
X156230372Y-87266957D01*
X156268158Y-87218483D01*
X156291004Y-87161697D01*
X156298974Y-87094125D01*
X156291228Y-87034768D01*
X156268366Y-86981892D01*
X156229273Y-86933657D01*
X156179333Y-86896638D01*
X156121685Y-86874286D01*
X156054059Y-86866521D01*
X155987191Y-86874395D01*
X155929701Y-86897169D01*
X155879395Y-86935122D01*
X155840310Y-86984505D01*
X155817108Y-87040197D01*
X155809145Y-87104291D01*
X155619713Y-87104291D01*
X155627261Y-87025571D01*
X155649534Y-86953768D01*
X155686529Y-86887945D01*
X155739535Y-86826953D01*
X155802575Y-86777980D01*
X155875048Y-86742514D01*
X155958754Y-86720411D01*
X156056074Y-86712648D01*
X156153044Y-86720277D01*
G37*
G36*
X155466502Y-88248447D02*
G01*
X155030987Y-86695062D01*
X154883434Y-86695062D01*
X155317942Y-88248447D01*
X155466502Y-88248447D01*
G37*
G36*
X153826839Y-88050610D02*
G01*
X153826839Y-88225000D01*
X154819686Y-88225000D01*
X154815343Y-88159696D01*
X154798162Y-88097138D01*
X154750200Y-87998891D01*
X154676804Y-87897745D01*
X154581750Y-87798552D01*
X154435462Y-87670690D01*
X154273381Y-87530475D01*
X154167786Y-87426458D01*
X154104543Y-87351038D01*
X154054417Y-87269216D01*
X154027024Y-87195613D01*
X154018448Y-87128013D01*
X154027296Y-87057931D01*
X154053146Y-86996775D01*
X154096850Y-86942267D01*
X154153136Y-86900845D01*
X154220232Y-86875460D01*
X154301189Y-86866521D01*
X154386694Y-86876078D01*
X154456609Y-86903091D01*
X154514413Y-86947029D01*
X154557675Y-87005253D01*
X154585011Y-87078145D01*
X154595288Y-87169870D01*
X154784882Y-87150270D01*
X154767106Y-87044615D01*
X154736204Y-86957028D01*
X154693283Y-86884468D01*
X154638336Y-86824664D01*
X154572115Y-86777218D01*
X154494686Y-86742379D01*
X154403930Y-86720420D01*
X154297159Y-86712648D01*
X154189751Y-86720969D01*
X154098697Y-86744491D01*
X154021137Y-86781920D01*
X153954883Y-86833182D01*
X153899458Y-86897420D01*
X153860539Y-86967630D01*
X153836960Y-87045120D01*
X153828854Y-87131769D01*
X153837975Y-87221078D01*
X153865765Y-87309913D01*
X153912388Y-87396077D01*
X153988223Y-87494286D01*
X154090025Y-87597733D01*
X154272521Y-87759900D01*
X154422937Y-87890210D01*
X154485745Y-87950135D01*
X154529461Y-88001166D01*
X154563506Y-88050610D01*
X153826839Y-88050610D01*
G37*
G36*
X153192666Y-86719962D02*
G01*
X153275772Y-86741039D01*
X153350008Y-86775245D01*
X153416773Y-86822852D01*
X153476961Y-86885022D01*
X153529487Y-86963666D01*
X153573329Y-87062203D01*
X153607382Y-87184492D01*
X153629758Y-87335062D01*
X153637887Y-87519016D01*
X153630466Y-87683846D01*
X153610113Y-87817607D01*
X153579259Y-87925211D01*
X153539672Y-88010999D01*
X153492349Y-88078637D01*
X153413778Y-88153302D01*
X153326310Y-88205656D01*
X153228083Y-88237454D01*
X153116276Y-88248447D01*
X153027921Y-88241026D01*
X152947844Y-88219395D01*
X152874475Y-88183784D01*
X152809179Y-88134934D01*
X152753514Y-88073341D01*
X152706955Y-87997396D01*
X152673193Y-87914416D01*
X152652849Y-87826950D01*
X152646701Y-87743963D01*
X152834541Y-87743963D01*
X152844792Y-87848908D01*
X152873300Y-87932860D01*
X152918530Y-88000327D01*
X152979450Y-88053524D01*
X153045604Y-88084242D01*
X153119390Y-88094574D01*
X153196801Y-88083377D01*
X153272072Y-88048961D01*
X153316324Y-88014562D01*
X153353964Y-87970764D01*
X153385279Y-87916246D01*
X153415661Y-87826922D01*
X153425762Y-87733705D01*
X153415459Y-87640208D01*
X153386248Y-87563002D01*
X153338659Y-87498499D01*
X153275974Y-87448392D01*
X153206111Y-87418831D01*
X153126534Y-87408740D01*
X153046431Y-87418947D01*
X152977698Y-87448589D01*
X152917523Y-87498499D01*
X152872790Y-87562898D01*
X152844656Y-87643240D01*
X152834541Y-87743963D01*
X152646701Y-87743963D01*
X152645955Y-87733888D01*
X152654644Y-87627531D01*
X152679521Y-87534984D01*
X152719705Y-87453808D01*
X152775557Y-87382178D01*
X152844785Y-87321924D01*
X152919254Y-87279936D01*
X153000246Y-87254695D01*
X153089623Y-87246074D01*
X153158866Y-87251518D01*
X153225924Y-87267805D01*
X153291581Y-87295259D01*
X153351504Y-87333056D01*
X153405645Y-87382720D01*
X153454430Y-87445651D01*
X153446524Y-87295477D01*
X153428161Y-87182789D01*
X153402223Y-87100078D01*
X153363089Y-87023163D01*
X153317282Y-86962394D01*
X153264836Y-86915430D01*
X153218401Y-86888412D01*
X153167265Y-86872113D01*
X153110139Y-86866521D01*
X153040338Y-86875304D01*
X152979614Y-86900930D01*
X152925675Y-86944190D01*
X152888083Y-87002098D01*
X152855974Y-87099528D01*
X152672608Y-87085240D01*
X152690417Y-86999695D01*
X152719189Y-86926802D01*
X152758403Y-86864599D01*
X152808346Y-86811658D01*
X152867448Y-86769213D01*
X152934517Y-86738458D01*
X153011026Y-86719337D01*
X153098873Y-86712648D01*
X153192666Y-86719962D01*
G37*
G36*
X152059406Y-88664637D02*
G01*
X152154116Y-88531825D01*
X152240301Y-88382086D01*
X152317693Y-88213825D01*
X152364004Y-88083036D01*
X152396881Y-87950667D01*
X152416601Y-87816142D01*
X152423206Y-87678842D01*
X152414333Y-87517617D01*
X152387989Y-87362193D01*
X152344254Y-87211544D01*
X152273702Y-87043229D01*
X152179495Y-86871357D01*
X152059406Y-86695062D01*
X151927240Y-86695062D01*
X152038941Y-86893983D01*
X152091188Y-86999419D01*
X152146892Y-87143540D01*
X152189557Y-87294526D01*
X152222638Y-87487002D01*
X152233612Y-87679849D01*
X152225546Y-87839789D01*
X152201196Y-88000422D01*
X152160100Y-88162514D01*
X152101493Y-88326795D01*
X152024317Y-88493957D01*
X151927240Y-88664637D01*
X152059406Y-88664637D01*
G37*
G36*
X150703584Y-86718510D02*
G01*
X150504831Y-86718510D01*
X150504831Y-87587617D01*
X150511503Y-87739190D01*
X150529449Y-87857248D01*
X150556030Y-87947845D01*
X150598664Y-88030228D01*
X150659529Y-88102182D01*
X150740953Y-88164824D01*
X150833789Y-88209317D01*
X150949046Y-88238041D01*
X151091930Y-88248447D01*
X151231321Y-88239385D01*
X151344938Y-88214332D01*
X151437320Y-88175632D01*
X151518810Y-88119300D01*
X151582079Y-88049531D01*
X151628928Y-87964698D01*
X151658663Y-87870706D01*
X151678769Y-87747270D01*
X151686264Y-87587617D01*
X151686264Y-86718510D01*
X151487420Y-86718510D01*
X151487420Y-87589907D01*
X151482356Y-87722335D01*
X151469313Y-87816030D01*
X151451058Y-87879884D01*
X151420975Y-87937353D01*
X151379721Y-87984876D01*
X151326128Y-88023591D01*
X151265072Y-88050813D01*
X151193513Y-88067980D01*
X151109332Y-88074057D01*
X150997718Y-88066419D01*
X150911745Y-88045792D01*
X150846162Y-88014673D01*
X150796823Y-87974132D01*
X150760986Y-87922538D01*
X150731753Y-87846736D01*
X150711387Y-87738972D01*
X150703584Y-87589907D01*
X150703584Y-86718510D01*
G37*
G36*
X150182247Y-88225000D02*
G01*
X150182247Y-86718510D01*
X149983403Y-86718510D01*
X149983403Y-87466534D01*
X149237485Y-86718510D01*
X148968025Y-86718510D01*
X149598171Y-87329147D01*
X148940364Y-88225000D01*
X149202681Y-88225000D01*
X149737481Y-87462412D01*
X149983403Y-87703297D01*
X149983403Y-88225000D01*
X150182247Y-88225000D01*
G37*
G36*
X148677223Y-88664637D02*
G01*
X148809389Y-88664637D01*
X148712312Y-88493957D01*
X148635136Y-88326795D01*
X148576529Y-88162514D01*
X148535433Y-88000422D01*
X148511083Y-87839789D01*
X148503017Y-87679849D01*
X148514003Y-87488228D01*
X148547072Y-87297640D01*
X148588924Y-87146686D01*
X148644433Y-87002534D01*
X148696876Y-86895990D01*
X148809389Y-86695062D01*
X148677223Y-86695062D01*
X148557078Y-86871363D01*
X148462843Y-87043234D01*
X148392283Y-87211544D01*
X148348600Y-87362189D01*
X148322286Y-87517614D01*
X148313423Y-87678842D01*
X148320061Y-87816127D01*
X148339881Y-87950643D01*
X148372927Y-88083015D01*
X148419486Y-88213825D01*
X148497064Y-88382173D01*
X148583069Y-88531910D01*
X148677223Y-88664637D01*
G37*
G36*
X166205005Y-90745000D02*
G01*
X166205005Y-89238510D01*
X165118827Y-89238510D01*
X165118827Y-89412899D01*
X166006161Y-89412899D01*
X166006161Y-89877449D01*
X165175156Y-89877449D01*
X165175156Y-90051838D01*
X166006161Y-90051838D01*
X166006161Y-90570610D01*
X165083931Y-90570610D01*
X165083931Y-90745000D01*
X166205005Y-90745000D01*
G37*
G36*
X164139444Y-89781828D02*
G01*
X164194347Y-89721487D01*
X164264466Y-89673018D01*
X164345416Y-89642000D01*
X164439679Y-89631252D01*
X164527026Y-89639247D01*
X164607441Y-89662763D01*
X164682487Y-89701960D01*
X164748055Y-89755168D01*
X164802205Y-89822289D01*
X164845428Y-89905384D01*
X164875126Y-89995292D01*
X164893433Y-90093366D01*
X164899741Y-90200857D01*
X164892696Y-90310871D01*
X164872441Y-90408811D01*
X164839841Y-90496421D01*
X164793546Y-90577040D01*
X164737351Y-90643265D01*
X164670764Y-90696731D01*
X164595365Y-90736690D01*
X164516075Y-90760439D01*
X164431436Y-90768447D01*
X164334788Y-90757868D01*
X164253898Y-90727720D01*
X164185313Y-90678406D01*
X164127079Y-90607704D01*
X164127079Y-90745000D01*
X163955987Y-90745000D01*
X163955987Y-90215695D01*
X164124056Y-90215695D01*
X164130403Y-90318596D01*
X164147748Y-90400516D01*
X164174153Y-90465298D01*
X164208595Y-90516113D01*
X164270243Y-90571657D01*
X164337862Y-90603751D01*
X164414034Y-90614574D01*
X164489378Y-90603453D01*
X164557883Y-90570077D01*
X164622037Y-90511534D01*
X164658029Y-90458348D01*
X164685545Y-90390986D01*
X164703568Y-90306282D01*
X164710148Y-90200399D01*
X164703809Y-90089850D01*
X164686647Y-90003352D01*
X164660854Y-89936379D01*
X164627716Y-89885143D01*
X164567140Y-89828844D01*
X164499554Y-89796196D01*
X164422185Y-89785125D01*
X164361738Y-89791613D01*
X164307124Y-89810668D01*
X164256896Y-89842649D01*
X164210152Y-89889173D01*
X164175478Y-89942558D01*
X164148544Y-90012080D01*
X164130655Y-90101591D01*
X164124056Y-90215695D01*
X163955987Y-90215695D01*
X163955987Y-89238510D01*
X164139444Y-89238510D01*
X164139444Y-89781828D01*
G37*
G36*
X163465791Y-90745000D02*
G01*
X163798817Y-89654699D01*
X163608216Y-89654699D01*
X163435017Y-90284754D01*
X163370537Y-90518128D01*
X163314117Y-90294829D01*
X163140918Y-89654699D01*
X162951416Y-89654699D01*
X162788475Y-90287777D01*
X162734162Y-90495505D01*
X162671697Y-90285853D01*
X162485126Y-89654699D01*
X162305882Y-89654699D01*
X162646051Y-90745000D01*
X162837660Y-90745000D01*
X163010859Y-90091864D01*
X163052807Y-89906209D01*
X163273175Y-90745000D01*
X163465791Y-90745000D01*
G37*
G36*
X161826515Y-89641518D02*
G01*
X161938236Y-89670178D01*
X162006022Y-89701062D01*
X162059615Y-89738053D01*
X162101176Y-89781004D01*
X162133848Y-89831470D01*
X162161020Y-89893796D01*
X162182051Y-89970139D01*
X162001708Y-89994685D01*
X161976053Y-89919267D01*
X161945212Y-89866540D01*
X161910026Y-89831287D01*
X161866046Y-89807494D01*
X161803907Y-89791292D01*
X161717867Y-89785125D01*
X161626919Y-89793095D01*
X161558665Y-89814555D01*
X161507849Y-89847315D01*
X161480661Y-89881750D01*
X161462493Y-89932447D01*
X161455551Y-90005402D01*
X161456650Y-90053304D01*
X161577375Y-90084599D01*
X161785553Y-90116410D01*
X161949501Y-90144071D01*
X162020118Y-90169726D01*
X162082217Y-90204612D01*
X162135133Y-90250712D01*
X162177471Y-90310675D01*
X162204613Y-90379741D01*
X162213833Y-90456762D01*
X162207574Y-90523144D01*
X162189475Y-90581638D01*
X162159755Y-90633826D01*
X162117571Y-90680794D01*
X162067334Y-90717363D01*
X162006219Y-90744656D01*
X161931999Y-90762158D01*
X161841882Y-90768447D01*
X161735857Y-90759319D01*
X161638458Y-90732543D01*
X161545380Y-90686082D01*
X161441262Y-90609536D01*
X161427470Y-90683802D01*
X161404351Y-90745000D01*
X161211735Y-90745000D01*
X161240889Y-90680774D01*
X161258355Y-90614299D01*
X161266162Y-90523005D01*
X161270079Y-90288601D01*
X161270079Y-90264788D01*
X161456650Y-90264788D01*
X161465232Y-90379226D01*
X161486325Y-90449985D01*
X161516960Y-90500044D01*
X161557229Y-90542506D01*
X161608233Y-90578029D01*
X161665201Y-90603693D01*
X161727996Y-90619411D01*
X161797826Y-90624832D01*
X161867978Y-90618559D01*
X161921186Y-90601572D01*
X161961317Y-90575464D01*
X161992499Y-90539513D01*
X162010828Y-90498936D01*
X162017096Y-90452091D01*
X162010668Y-90405865D01*
X161991542Y-90364255D01*
X161960910Y-90329778D01*
X161918727Y-90304172D01*
X161862913Y-90286484D01*
X161757893Y-90267077D01*
X161570212Y-90232273D01*
X161456650Y-90196919D01*
X161456650Y-90264788D01*
X161270079Y-90264788D01*
X161270079Y-90042496D01*
X161272953Y-89928863D01*
X161279329Y-89872228D01*
X161302555Y-89801460D01*
X161336757Y-89746657D01*
X161386187Y-89703153D01*
X161464801Y-89664133D01*
X161558954Y-89640373D01*
X161691214Y-89631252D01*
X161826515Y-89641518D01*
G37*
G36*
X160986879Y-90745000D02*
G01*
X160986879Y-89654699D01*
X160820916Y-89654699D01*
X160820916Y-89819289D01*
X160754354Y-89717123D01*
X160703588Y-89667889D01*
X160647002Y-89640388D01*
X160585252Y-89631252D01*
X160524542Y-89637438D01*
X160461725Y-89656600D01*
X160395659Y-89690328D01*
X160459131Y-89860321D01*
X160528075Y-89829927D01*
X160594411Y-89820296D01*
X160651797Y-89829411D01*
X160703038Y-89856749D01*
X160743792Y-89899534D01*
X160771732Y-89957957D01*
X160794503Y-90059547D01*
X160802415Y-90173746D01*
X160802415Y-90745000D01*
X160986879Y-90745000D01*
G37*
G36*
X159592130Y-89781828D02*
G01*
X159647034Y-89721487D01*
X159717152Y-89673018D01*
X159798103Y-89642000D01*
X159892366Y-89631252D01*
X159979713Y-89639247D01*
X160060128Y-89662763D01*
X160135174Y-89701960D01*
X160200741Y-89755168D01*
X160254892Y-89822289D01*
X160298114Y-89905384D01*
X160327812Y-89995292D01*
X160346119Y-90093366D01*
X160352428Y-90200857D01*
X160345382Y-90310871D01*
X160325127Y-90408811D01*
X160292527Y-90496421D01*
X160246233Y-90577040D01*
X160190038Y-90643265D01*
X160123450Y-90696731D01*
X160048052Y-90736690D01*
X159968762Y-90760439D01*
X159884123Y-90768447D01*
X159787475Y-90757868D01*
X159706584Y-90727720D01*
X159638000Y-90678406D01*
X159579766Y-90607704D01*
X159579766Y-90745000D01*
X159408673Y-90745000D01*
X159408673Y-90215695D01*
X159576743Y-90215695D01*
X159583090Y-90318596D01*
X159600434Y-90400516D01*
X159626840Y-90465298D01*
X159661282Y-90516113D01*
X159722930Y-90571657D01*
X159790549Y-90603751D01*
X159866720Y-90614574D01*
X159942065Y-90603453D01*
X160010570Y-90570077D01*
X160074724Y-90511534D01*
X160110716Y-90458348D01*
X160138232Y-90390986D01*
X160156255Y-90306282D01*
X160162834Y-90200399D01*
X160156496Y-90089850D01*
X160139333Y-90003352D01*
X160113540Y-89936379D01*
X160080402Y-89885143D01*
X160019826Y-89828844D01*
X159952240Y-89796196D01*
X159874872Y-89785125D01*
X159814425Y-89791613D01*
X159759810Y-89810668D01*
X159709583Y-89842649D01*
X159662839Y-89889173D01*
X159628165Y-89942558D01*
X159601231Y-90012080D01*
X159583342Y-90101591D01*
X159576743Y-90215695D01*
X159408673Y-90215695D01*
X159408673Y-89238510D01*
X159592130Y-89238510D01*
X159592130Y-89781828D01*
G37*
G36*
X158580141Y-90257369D02*
G01*
X158392562Y-90240882D01*
X158378961Y-90316180D01*
X158358050Y-90378349D01*
X158330647Y-90429468D01*
X158293851Y-90473831D01*
X158244265Y-90513558D01*
X158179521Y-90548628D01*
X158109856Y-90573452D01*
X158033354Y-90588768D01*
X157948895Y-90594057D01*
X157839324Y-90585157D01*
X157748127Y-90560169D01*
X157692821Y-90533481D01*
X157650314Y-90502453D01*
X157618526Y-90467204D01*
X157586471Y-90405015D01*
X157575936Y-90338152D01*
X157586345Y-90271321D01*
X157616969Y-90214412D01*
X157667627Y-90168122D01*
X157752157Y-90125478D01*
X157831040Y-90100369D01*
X158019603Y-90052021D01*
X158210143Y-89998783D01*
X158309581Y-89957957D01*
X158377440Y-89915628D01*
X158430200Y-89868922D01*
X158469957Y-89817732D01*
X158499149Y-89759994D01*
X158516725Y-89697891D01*
X158522713Y-89630245D01*
X158515589Y-89556038D01*
X158494309Y-89485373D01*
X158458233Y-89417021D01*
X158409575Y-89357189D01*
X158347408Y-89307109D01*
X158269647Y-89266445D01*
X158185553Y-89238327D01*
X158094041Y-89221020D01*
X157993958Y-89215062D01*
X157883655Y-89221446D01*
X157786042Y-89239717D01*
X157699401Y-89268918D01*
X157619446Y-89311353D01*
X157554691Y-89363962D01*
X157503213Y-89427187D01*
X157464691Y-89499376D01*
X157440084Y-89577757D01*
X157429391Y-89663767D01*
X157619992Y-89678147D01*
X157639590Y-89587184D01*
X157674502Y-89516702D01*
X157724039Y-89462450D01*
X157787265Y-89424127D01*
X157872356Y-89398860D01*
X157985806Y-89389452D01*
X158104859Y-89398334D01*
X158189638Y-89421559D01*
X158248673Y-89455580D01*
X158295541Y-89504170D01*
X158322205Y-89556644D01*
X158331105Y-89615040D01*
X158324453Y-89666412D01*
X158305162Y-89710209D01*
X158272669Y-89748306D01*
X158228682Y-89776505D01*
X158137330Y-89811965D01*
X157972984Y-89855467D01*
X157750431Y-89912206D01*
X157640508Y-89951271D01*
X157557368Y-89997428D01*
X157493858Y-90048553D01*
X157446884Y-90104595D01*
X157412403Y-90168919D01*
X157391505Y-90239638D01*
X157384328Y-90318368D01*
X157391874Y-90396385D01*
X157414503Y-90471339D01*
X157453021Y-90544507D01*
X157504484Y-90609025D01*
X157569579Y-90663913D01*
X157650217Y-90709554D01*
X157737721Y-90741757D01*
X157833746Y-90761599D01*
X157939736Y-90768447D01*
X158074907Y-90761069D01*
X158187659Y-90740531D01*
X158281462Y-90708729D01*
X158367552Y-90661594D01*
X158439058Y-90601930D01*
X158497617Y-90528936D01*
X158541404Y-90445947D01*
X158568910Y-90355987D01*
X158580141Y-90257369D01*
G37*
G36*
X156935715Y-90745000D02*
G01*
X157268740Y-89654699D01*
X157078139Y-89654699D01*
X156904940Y-90284754D01*
X156840460Y-90518128D01*
X156784040Y-90294829D01*
X156610841Y-89654699D01*
X156421339Y-89654699D01*
X156258399Y-90287777D01*
X156204085Y-90495505D01*
X156141620Y-90285853D01*
X155955049Y-89654699D01*
X155775805Y-89654699D01*
X156115975Y-90745000D01*
X156307583Y-90745000D01*
X156480782Y-90091864D01*
X156522731Y-89906209D01*
X156743099Y-90745000D01*
X156935715Y-90745000D01*
G37*
G36*
X155620192Y-89449535D02*
G01*
X155620192Y-89238510D01*
X155435819Y-89238510D01*
X155435819Y-89449535D01*
X155620192Y-89449535D01*
G37*
G36*
X155620192Y-90745000D02*
G01*
X155620192Y-89654699D01*
X155435819Y-89654699D01*
X155435819Y-90745000D01*
X155620192Y-90745000D01*
G37*
G36*
X155155276Y-90745000D02*
G01*
X155155276Y-89654699D01*
X154989221Y-89654699D01*
X154989221Y-89808939D01*
X154936547Y-89744513D01*
X154876768Y-89695551D01*
X154809032Y-89660474D01*
X154731789Y-89638812D01*
X154642915Y-89631252D01*
X154547513Y-89640314D01*
X154462115Y-89666698D01*
X154388097Y-89709003D01*
X154338650Y-89759480D01*
X154304252Y-89821165D01*
X154281222Y-89895859D01*
X154274123Y-89956742D01*
X154270964Y-90075286D01*
X154270964Y-90745000D01*
X154455429Y-90745000D01*
X154455429Y-90081331D01*
X154461746Y-89975614D01*
X154476952Y-89912345D01*
X154506419Y-89862351D01*
X154553248Y-89822952D01*
X154611722Y-89798169D01*
X154681842Y-89789521D01*
X154757604Y-89798037D01*
X154824720Y-89822901D01*
X154885265Y-89864535D01*
X154919037Y-89904479D01*
X154945710Y-89961554D01*
X154963912Y-90040929D01*
X154970811Y-90149108D01*
X154970811Y-90745000D01*
X155155276Y-90745000D01*
G37*
G36*
X153682211Y-89639590D02*
G01*
X153765382Y-89663674D01*
X153839662Y-89703060D01*
X153904534Y-89756703D01*
X153958897Y-89823926D01*
X154003152Y-89906666D01*
X154034137Y-89996013D01*
X154053029Y-90091520D01*
X154059480Y-90194262D01*
X154051378Y-90306405D01*
X154027904Y-90407445D01*
X153989698Y-90499160D01*
X153936565Y-90582975D01*
X153869155Y-90653508D01*
X153790478Y-90703427D01*
X153698306Y-90734192D01*
X153589160Y-90745000D01*
X153502351Y-90735954D01*
X153424450Y-90709496D01*
X153353382Y-90665334D01*
X153287826Y-90601476D01*
X153291659Y-90765719D01*
X153301198Y-90837049D01*
X153323120Y-90894754D01*
X153354429Y-90941770D01*
X153395445Y-90979747D01*
X153444566Y-91006595D01*
X153509076Y-91024240D01*
X153593190Y-91030764D01*
X153670999Y-91024383D01*
X153732398Y-91006872D01*
X153780769Y-90979747D01*
X153809416Y-90951043D01*
X153830397Y-90911885D01*
X153843234Y-90859397D01*
X154022569Y-90832927D01*
X154016193Y-90919393D01*
X153994323Y-90990205D01*
X153958124Y-91048679D01*
X153906798Y-91096984D01*
X153845330Y-91133819D01*
X153773667Y-91161167D01*
X153690005Y-91178498D01*
X153592183Y-91184637D01*
X153484293Y-91177176D01*
X153393173Y-91156186D01*
X153316036Y-91123087D01*
X153246916Y-91076297D01*
X153192826Y-91020712D01*
X153152088Y-90955567D01*
X153126492Y-90881875D01*
X153107766Y-90766702D01*
X153100339Y-90595431D01*
X153100339Y-90187118D01*
X153272530Y-90187118D01*
X153279069Y-90293698D01*
X153296845Y-90377554D01*
X153323741Y-90442974D01*
X153358626Y-90493490D01*
X153421248Y-90548206D01*
X153491337Y-90580221D01*
X153571666Y-90591127D01*
X153652648Y-90580119D01*
X153722763Y-90547894D01*
X153784890Y-90492941D01*
X153819140Y-90442331D01*
X153845712Y-90376122D01*
X153863367Y-90290528D01*
X153869887Y-90180982D01*
X153863528Y-90081387D01*
X153846032Y-90001025D01*
X153819164Y-89936457D01*
X153783791Y-89884868D01*
X153721051Y-89828614D01*
X153652252Y-89796094D01*
X153574780Y-89785125D01*
X153495931Y-89796247D01*
X153425607Y-89829267D01*
X153361190Y-89886425D01*
X153324723Y-89938858D01*
X153297063Y-90004441D01*
X153279067Y-90086028D01*
X153272530Y-90187118D01*
X153100339Y-90187118D01*
X153100339Y-89654699D01*
X153270423Y-89654699D01*
X153270423Y-89788239D01*
X153338647Y-89718328D01*
X153413207Y-89670074D01*
X153495556Y-89641158D01*
X153588061Y-89631252D01*
X153682211Y-89639590D01*
G37*
G36*
X152826298Y-90745000D02*
G01*
X152826298Y-89238510D01*
X152641925Y-89238510D01*
X152641925Y-90745000D01*
X152826298Y-90745000D01*
G37*
G36*
X152019660Y-89641247D02*
G01*
X152115868Y-89669998D01*
X152200785Y-89716884D01*
X152276294Y-89782927D01*
X152335723Y-89862259D01*
X152379709Y-89957470D01*
X152407706Y-90071735D01*
X152417710Y-90209100D01*
X152407859Y-90341607D01*
X152380249Y-90452052D01*
X152336771Y-90544323D01*
X152277851Y-90621443D01*
X152203480Y-90684585D01*
X152117274Y-90730117D01*
X152016913Y-90758470D01*
X151899213Y-90768447D01*
X151804530Y-90762118D01*
X151722264Y-90744101D01*
X151650510Y-90715368D01*
X151587712Y-90676215D01*
X151516061Y-90607725D01*
X151460466Y-90522306D01*
X151420650Y-90416829D01*
X151611251Y-90393290D01*
X151644636Y-90467141D01*
X151682664Y-90522165D01*
X151725007Y-90561817D01*
X151775132Y-90590696D01*
X151832290Y-90608407D01*
X151898206Y-90614574D01*
X151985043Y-90603793D01*
X152059903Y-90572477D01*
X152125718Y-90519869D01*
X152164392Y-90470212D01*
X152194573Y-90409615D01*
X152215870Y-90335998D01*
X152227109Y-90246744D01*
X151415613Y-90246744D01*
X151414514Y-90197560D01*
X151422126Y-90092871D01*
X151609236Y-90092871D01*
X152216851Y-90092871D01*
X152201351Y-90003123D01*
X152169291Y-89929563D01*
X152121047Y-89868931D01*
X152059084Y-89822505D01*
X151988752Y-89794710D01*
X151907457Y-89785125D01*
X151839450Y-89791908D01*
X151779758Y-89811534D01*
X151726633Y-89843878D01*
X151678937Y-89890088D01*
X151647698Y-89938437D01*
X151623895Y-90004411D01*
X151609236Y-90092871D01*
X151422126Y-90092871D01*
X151424310Y-90062827D01*
X151451718Y-89950801D01*
X151494766Y-89857504D01*
X151552908Y-89779813D01*
X151626785Y-89715008D01*
X151709517Y-89669098D01*
X151802891Y-89641002D01*
X151909472Y-89631252D01*
X152019660Y-89641247D01*
G37*
G36*
X151191764Y-90745000D02*
G01*
X151191764Y-89654699D01*
X151025801Y-89654699D01*
X151025801Y-89819289D01*
X150959238Y-89717123D01*
X150908473Y-89667889D01*
X150851887Y-89640388D01*
X150790137Y-89631252D01*
X150729427Y-89637438D01*
X150666610Y-89656600D01*
X150600544Y-89690328D01*
X150664016Y-89860321D01*
X150732960Y-89829927D01*
X150799296Y-89820296D01*
X150856682Y-89829411D01*
X150907923Y-89856749D01*
X150948677Y-89899534D01*
X150976617Y-89957957D01*
X150999388Y-90059547D01*
X151007300Y-90173746D01*
X151007300Y-90745000D01*
X151191764Y-90745000D01*
G37*
%LPC*%
D11*
X181750000Y-82500000D03*
X134500000Y-82500000D03*
X132000000Y-111000000D03*
X180500000Y-112950000D03*
%LPD*%
M02*
