G04 #@! TF.GenerationSoftware,KiCad,Pcbnew,10.0.5*
G04 #@! TF.CreationDate,2026-09-02T11:39:21+01:00*
G04 #@! TF.ProjectId,CyberwatchV1B,43796265-7277-4617-9463-685631422e6b,rev?*
G04 #@! TF.SameCoordinates,Original*
G04 #@! TF.FileFunction,Copper,L1,Top*
G04 #@! TF.FilePolarity,Positive*
%FSLAX46Y46*%
G04 Gerber Fmt 4.6, Leading zero omitted, Abs format (unit mm)*
G04 Created by KiCad (PCBNEW 10.0.5) date 2026-09-02 11:39:21*
%MOMM*%
%LPD*%
G01*
G04 APERTURE LIST*
G04 Aperture macros list*
%AMRoundRect*
0 Rectangle with rounded corners*
0 $1 Rounding radius*
0 $2 $3 $4 $5 $6 $7 $8 $9 X,Y pos of 4 corners*
0 Add a 4 corners polygon primitive as box body*
4,1,4,$2,$3,$4,$5,$6,$7,$8,$9,$2,$3,0*
0 Add four circle primitives for the rounded corners*
1,1,$1+$1,$2,$3*
1,1,$1+$1,$4,$5*
1,1,$1+$1,$6,$7*
1,1,$1+$1,$8,$9*
0 Add four rect primitives between the rounded corners*
20,1,$1+$1,$2,$3,$4,$5,0*
20,1,$1+$1,$4,$5,$6,$7,0*
20,1,$1+$1,$6,$7,$8,$9,0*
20,1,$1+$1,$8,$9,$2,$3,0*%
%AMFreePoly0*
4,1,15,-0.616000,0.142500,-0.283500,0.475000,0.521000,0.475000,0.557355,0.467769,0.588175,0.447175,0.608769,0.416355,0.616000,0.380000,0.616000,-0.380000,0.608769,-0.416355,0.588175,-0.447175,0.557355,-0.467769,0.521000,-0.475000,-0.283500,-0.475000,-0.616000,-0.142500,-0.616000,0.142500,-0.616000,0.142500,$1*%
G04 Aperture macros list end*
G04 #@! TA.AperFunction,SMDPad,CuDef*
%ADD10C,0.500000*%
G04 #@! TD*
G04 #@! TA.AperFunction,SMDPad,CuDef*
%ADD11RoundRect,0.200000X-0.275000X0.200000X-0.275000X-0.200000X0.275000X-0.200000X0.275000X0.200000X0*%
G04 #@! TD*
G04 #@! TA.AperFunction,SMDPad,CuDef*
%ADD12RoundRect,0.200000X-0.200000X-0.275000X0.200000X-0.275000X0.200000X0.275000X-0.200000X0.275000X0*%
G04 #@! TD*
G04 #@! TA.AperFunction,SMDPad,CuDef*
%ADD13RoundRect,0.200000X0.200000X0.275000X-0.200000X0.275000X-0.200000X-0.275000X0.200000X-0.275000X0*%
G04 #@! TD*
G04 #@! TA.AperFunction,SMDPad,CuDef*
%ADD14RoundRect,0.225000X0.225000X0.250000X-0.225000X0.250000X-0.225000X-0.250000X0.225000X-0.250000X0*%
G04 #@! TD*
G04 #@! TA.AperFunction,SMDPad,CuDef*
%ADD15R,3.300000X3.500000*%
G04 #@! TD*
G04 #@! TA.AperFunction,SMDPad,CuDef*
%ADD16C,10.200000*%
G04 #@! TD*
G04 #@! TA.AperFunction,SMDPad,CuDef*
%ADD17RoundRect,0.225000X-0.225000X-0.250000X0.225000X-0.250000X0.225000X0.250000X-0.225000X0.250000X0*%
G04 #@! TD*
G04 #@! TA.AperFunction,SMDPad,CuDef*
%ADD18RoundRect,0.150000X-0.725000X-0.150000X0.725000X-0.150000X0.725000X0.150000X-0.725000X0.150000X0*%
G04 #@! TD*
G04 #@! TA.AperFunction,SMDPad,CuDef*
%ADD19R,1.000000X0.900000*%
G04 #@! TD*
G04 #@! TA.AperFunction,SMDPad,CuDef*
%ADD20RoundRect,0.062500X-0.325000X-0.062500X0.325000X-0.062500X0.325000X0.062500X-0.325000X0.062500X0*%
G04 #@! TD*
G04 #@! TA.AperFunction,HeatsinkPad*
%ADD21R,0.800000X1.200000*%
G04 #@! TD*
G04 #@! TA.AperFunction,SMDPad,CuDef*
%ADD22RoundRect,0.150000X-0.150000X0.587500X-0.150000X-0.587500X0.150000X-0.587500X0.150000X0.587500X0*%
G04 #@! TD*
G04 #@! TA.AperFunction,SMDPad,CuDef*
%ADD23RoundRect,0.150000X0.625000X-0.150000X0.625000X0.150000X-0.625000X0.150000X-0.625000X-0.150000X0*%
G04 #@! TD*
G04 #@! TA.AperFunction,SMDPad,CuDef*
%ADD24RoundRect,0.250000X0.650000X-0.350000X0.650000X0.350000X-0.650000X0.350000X-0.650000X-0.350000X0*%
G04 #@! TD*
G04 #@! TA.AperFunction,SMDPad,CuDef*
%ADD25RoundRect,0.150000X-0.700000X0.150000X-0.700000X-0.150000X0.700000X-0.150000X0.700000X0.150000X0*%
G04 #@! TD*
G04 #@! TA.AperFunction,SMDPad,CuDef*
%ADD26RoundRect,0.250000X-1.100000X0.250000X-1.100000X-0.250000X1.100000X-0.250000X1.100000X0.250000X0*%
G04 #@! TD*
G04 #@! TA.AperFunction,SMDPad,CuDef*
%ADD27RoundRect,0.150000X-0.825000X-0.150000X0.825000X-0.150000X0.825000X0.150000X-0.825000X0.150000X0*%
G04 #@! TD*
G04 #@! TA.AperFunction,SMDPad,CuDef*
%ADD28RoundRect,0.150000X-0.625000X0.150000X-0.625000X-0.150000X0.625000X-0.150000X0.625000X0.150000X0*%
G04 #@! TD*
G04 #@! TA.AperFunction,SMDPad,CuDef*
%ADD29RoundRect,0.250000X-0.650000X0.350000X-0.650000X-0.350000X0.650000X-0.350000X0.650000X0.350000X0*%
G04 #@! TD*
G04 #@! TA.AperFunction,SMDPad,CuDef*
%ADD30RoundRect,0.190000X-0.610000X-0.190000X0.610000X-0.190000X0.610000X0.190000X-0.610000X0.190000X0*%
G04 #@! TD*
G04 #@! TA.AperFunction,SMDPad,CuDef*
%ADD31RoundRect,0.200000X0.275000X-0.200000X0.275000X0.200000X-0.275000X0.200000X-0.275000X-0.200000X0*%
G04 #@! TD*
G04 #@! TA.AperFunction,SMDPad,CuDef*
%ADD32RoundRect,0.075000X0.075000X-0.437500X0.075000X0.437500X-0.075000X0.437500X-0.075000X-0.437500X0*%
G04 #@! TD*
G04 #@! TA.AperFunction,SMDPad,CuDef*
%ADD33RoundRect,0.075000X0.437500X-0.075000X0.437500X0.075000X-0.437500X0.075000X-0.437500X-0.075000X0*%
G04 #@! TD*
G04 #@! TA.AperFunction,HeatsinkPad*
%ADD34R,4.250000X4.250000*%
G04 #@! TD*
G04 #@! TA.AperFunction,SMDPad,CuDef*
%ADD35RoundRect,0.095000X0.921000X0.380000X-0.921000X0.380000X-0.921000X-0.380000X0.921000X-0.380000X0*%
G04 #@! TD*
G04 #@! TA.AperFunction,SMDPad,CuDef*
%ADD36RoundRect,0.095000X-0.921000X-0.380000X0.921000X-0.380000X0.921000X0.380000X-0.921000X0.380000X0*%
G04 #@! TD*
G04 #@! TA.AperFunction,SMDPad,CuDef*
%ADD37FreePoly0,180.000000*%
G04 #@! TD*
G04 #@! TA.AperFunction,SMDPad,CuDef*
%ADD38FreePoly0,0.000000*%
G04 #@! TD*
G04 #@! TA.AperFunction,SMDPad,CuDef*
%ADD39C,1.700000*%
G04 #@! TD*
G04 #@! TA.AperFunction,SMDPad,CuDef*
%ADD40RoundRect,0.110000X-0.440000X1.140000X-0.440000X-1.140000X0.440000X-1.140000X0.440000X1.140000X0*%
G04 #@! TD*
G04 #@! TA.AperFunction,SMDPad,CuDef*
%ADD41RoundRect,0.250000X-1.150000X-1.000000X1.150000X-1.000000X1.150000X1.000000X-1.150000X1.000000X0*%
G04 #@! TD*
G04 #@! TA.AperFunction,SMDPad,CuDef*
%ADD42RoundRect,0.225000X0.250000X-0.225000X0.250000X0.225000X-0.250000X0.225000X-0.250000X-0.225000X0*%
G04 #@! TD*
G04 #@! TA.AperFunction,SMDPad,CuDef*
%ADD43R,0.800000X1.500000*%
G04 #@! TD*
G04 #@! TA.AperFunction,SMDPad,CuDef*
%ADD44RoundRect,0.362500X-0.362500X-0.637500X0.362500X-0.637500X0.362500X0.637500X-0.362500X0.637500X0*%
G04 #@! TD*
G04 #@! TA.AperFunction,SMDPad,CuDef*
%ADD45RoundRect,0.250000X0.250000X1.500000X-0.250000X1.500000X-0.250000X-1.500000X0.250000X-1.500000X0*%
G04 #@! TD*
G04 #@! TA.AperFunction,SMDPad,CuDef*
%ADD46RoundRect,0.250001X0.499999X1.449999X-0.499999X1.449999X-0.499999X-1.449999X0.499999X-1.449999X0*%
G04 #@! TD*
G04 #@! TA.AperFunction,ViaPad*
%ADD47C,0.600000*%
G04 #@! TD*
G04 #@! TA.AperFunction,Conductor*
%ADD48C,0.200000*%
G04 #@! TD*
G04 APERTURE END LIST*
D10*
X183149999Y-108500000D03*
D11*
X157000000Y-107350000D03*
X157000000Y-109000000D03*
D12*
X172675000Y-91500000D03*
X174325000Y-91500000D03*
D13*
X156650000Y-105000000D03*
X155000000Y-105000000D03*
D14*
X171000000Y-107500000D03*
X169450000Y-107500000D03*
D10*
X131000000Y-84000000D03*
D15*
X165500000Y-107400000D03*
X165500000Y-91600000D03*
D16*
X165500000Y-99500000D03*
D17*
X160450000Y-90000000D03*
X162000000Y-90000000D03*
D11*
X168500000Y-109350000D03*
X168500000Y-111000000D03*
X159000000Y-107350000D03*
X159000000Y-109000000D03*
D12*
X172850000Y-107500000D03*
X174500000Y-107500000D03*
D13*
X156500000Y-103000000D03*
X154850000Y-103000000D03*
D18*
X178250000Y-88000000D03*
X178250000Y-89270000D03*
X178250000Y-90540000D03*
X178250000Y-91810000D03*
X183400000Y-91810000D03*
X183400000Y-90540000D03*
X183400000Y-89270000D03*
X183400000Y-88000000D03*
D19*
X132700000Y-107550000D03*
X132700000Y-103450000D03*
X134300000Y-107550000D03*
X134300000Y-103450000D03*
D20*
X167525000Y-112450000D03*
X167525000Y-112950000D03*
X167525000Y-113450000D03*
X167525000Y-113950000D03*
X169500000Y-113950000D03*
X169500000Y-113450000D03*
X169500000Y-112950000D03*
X169500000Y-112450000D03*
D21*
X168512500Y-113200000D03*
D22*
X173950000Y-110000000D03*
X172050000Y-110000000D03*
X173000000Y-111875000D03*
D23*
X131000000Y-98200000D03*
X131000000Y-97200000D03*
X131000000Y-96200000D03*
D24*
X134875000Y-99500000D03*
X134875000Y-94900000D03*
D25*
X147700000Y-113750000D03*
X147700000Y-115000000D03*
X147700000Y-116250000D03*
X147700000Y-117500000D03*
X147700000Y-118750000D03*
X147700000Y-120000000D03*
X147700000Y-121250000D03*
X147700000Y-122500000D03*
D26*
X144500000Y-111900000D03*
X144500000Y-124350000D03*
D10*
X131000000Y-92500000D03*
D27*
X160025000Y-81095000D03*
X160025000Y-82365000D03*
X160025000Y-83635000D03*
X160025000Y-84905000D03*
X164975000Y-84905000D03*
X164975000Y-83635000D03*
X164975000Y-82365000D03*
X164975000Y-81095000D03*
D11*
X174500000Y-113175000D03*
X174500000Y-114825000D03*
D10*
X178149999Y-85500000D03*
X160000000Y-92000000D03*
D19*
X132650000Y-90000000D03*
X132650000Y-85900000D03*
X134250000Y-90000000D03*
X134250000Y-85900000D03*
X179149999Y-109450000D03*
X179149999Y-105350000D03*
X180749999Y-109450000D03*
X180749999Y-105350000D03*
D10*
X135500000Y-109500000D03*
X173500000Y-95000000D03*
D13*
X162500000Y-108500000D03*
X160850000Y-108500000D03*
D14*
X182250000Y-86000000D03*
X180700000Y-86000000D03*
D10*
X140500000Y-110500000D03*
D28*
X182649999Y-95750000D03*
X182649999Y-96750000D03*
X182649999Y-97750000D03*
X182649999Y-98750000D03*
X182649999Y-99750000D03*
X182649999Y-100750000D03*
X182649999Y-101750000D03*
D29*
X178774999Y-94450000D03*
X178774999Y-103050000D03*
D30*
X159920000Y-87500000D03*
X165000000Y-87500000D03*
D31*
X155000000Y-109000000D03*
X155000000Y-107350000D03*
D32*
X148100000Y-108337500D03*
X148750000Y-108337500D03*
X149400000Y-108337500D03*
X150050000Y-108337500D03*
X150700000Y-108337500D03*
X151350000Y-108337500D03*
X152000000Y-108337500D03*
D33*
X152887500Y-107450000D03*
X152887500Y-106800000D03*
X152887500Y-106150000D03*
X152887500Y-105500000D03*
X152887500Y-104850000D03*
X152887500Y-104200000D03*
X152887500Y-103550000D03*
D32*
X152000000Y-102662500D03*
X151350000Y-102662500D03*
X150700000Y-102662500D03*
X150050000Y-102662500D03*
X149400000Y-102662500D03*
X148750000Y-102662500D03*
X148100000Y-102662500D03*
D33*
X147212500Y-103550000D03*
X147212500Y-104200000D03*
X147212500Y-104850000D03*
X147212500Y-105500000D03*
X147212500Y-106150000D03*
X147212500Y-106800000D03*
X147212500Y-107450000D03*
D34*
X150050000Y-105500000D03*
D35*
X140000000Y-83260000D03*
X140000000Y-85800000D03*
X140000000Y-88340000D03*
X140000000Y-90880000D03*
X140000000Y-93420000D03*
X140000000Y-95960000D03*
X140000000Y-98500000D03*
D36*
X156510000Y-98500000D03*
X156510000Y-95960000D03*
X156510000Y-93420000D03*
X156510000Y-90880000D03*
X156510000Y-88340000D03*
X156510000Y-85800000D03*
X156510000Y-83260000D03*
D37*
X139600000Y-84530000D03*
X139600000Y-87070000D03*
X139600000Y-89610000D03*
X139600000Y-92150000D03*
X139600000Y-94690000D03*
X139600000Y-97230000D03*
D38*
X156910000Y-97230000D03*
X156910000Y-94690000D03*
X156910000Y-92150000D03*
D39*
X146985000Y-82244000D03*
X149525000Y-82244000D03*
X146985000Y-84784000D03*
X149525000Y-84784000D03*
X146985000Y-87324000D03*
X149525000Y-87324000D03*
X146985000Y-89864000D03*
X149525000Y-89864000D03*
D40*
X147261012Y-96397823D03*
X149261012Y-96397823D03*
D41*
X149380000Y-92755000D03*
D28*
X144500000Y-104500000D03*
X144500000Y-105500000D03*
X144500000Y-106500000D03*
D29*
X140625000Y-103200000D03*
X140625000Y-107800000D03*
D10*
X183149999Y-105000000D03*
D42*
X149000000Y-111550000D03*
X149000000Y-110000000D03*
D43*
X154920000Y-115800000D03*
X156020000Y-115800000D03*
X157120000Y-115800000D03*
X158220000Y-115800000D03*
X159320000Y-115800000D03*
X160420000Y-115800000D03*
X161520000Y-115800000D03*
X162620000Y-115800000D03*
D44*
X151250000Y-113200000D03*
X151250000Y-121500000D03*
X165000000Y-113200000D03*
X165000000Y-121500000D03*
D23*
X168000000Y-122700000D03*
X168000000Y-121700000D03*
X168000000Y-120700000D03*
X168000000Y-119700000D03*
X168000000Y-118700000D03*
X168000000Y-117700000D03*
X168000000Y-116700000D03*
D24*
X171875000Y-124000000D03*
X171875000Y-115400000D03*
D45*
X172150000Y-88350000D03*
X170150000Y-88350000D03*
D46*
X174500000Y-82600000D03*
X167800000Y-82600000D03*
D47*
X147250000Y-98750000D03*
X150500000Y-98800000D03*
X150500000Y-96500000D03*
X163500000Y-122151471D03*
X170900000Y-118500000D03*
X153501923Y-98000000D03*
X150750000Y-95250000D03*
X154250000Y-101000000D03*
X153575735Y-102575735D03*
X150500000Y-110000000D03*
X148100000Y-101500000D03*
X150050000Y-101500000D03*
X143500000Y-115500000D03*
X146000000Y-118000000D03*
X151500000Y-101500000D03*
X179500000Y-101500000D03*
X168500000Y-90565686D03*
X173400000Y-89600000D03*
X166500000Y-111000000D03*
X146000000Y-113500000D03*
X132650000Y-88500000D03*
X145151471Y-110500000D03*
X179849999Y-89270000D03*
X169500000Y-116700000D03*
X170000000Y-111000000D03*
X165000000Y-120000000D03*
X181049999Y-94551473D03*
X154114018Y-104300196D03*
X179849999Y-91810000D03*
X131125000Y-101875000D03*
X131000000Y-99500000D03*
X153500000Y-90000000D03*
X157000000Y-117500000D03*
X161500000Y-119000000D03*
X161000000Y-114000000D03*
X157000000Y-110000000D03*
X172488235Y-92500000D03*
X170400000Y-91350000D03*
X155088987Y-106050000D03*
X161900000Y-84905000D03*
X159725663Y-86400000D03*
X158500000Y-90000000D03*
X163000000Y-91500000D03*
X163100000Y-84000000D03*
X159000000Y-88500000D03*
X158500000Y-82365000D03*
X159500000Y-103000000D03*
X168125000Y-107500000D03*
X171000000Y-122000000D03*
X167500000Y-111000000D03*
X161500000Y-117500000D03*
X172100000Y-117932187D03*
X181250000Y-97387761D03*
X162500000Y-83000000D03*
X171400000Y-114000000D03*
X153860697Y-106453126D03*
X182050625Y-91050625D03*
X156500000Y-102000000D03*
X143500000Y-93500000D03*
X163760001Y-116239999D03*
X169500000Y-119700000D03*
X166500000Y-86500000D03*
X171562816Y-112397847D03*
X160500000Y-104500000D03*
X156486482Y-106189678D03*
X145000000Y-109500000D03*
X148750000Y-100000000D03*
X146174265Y-107825735D03*
X172062500Y-111437500D03*
X159900000Y-105500000D03*
X134250000Y-88500000D03*
X132500000Y-96900000D03*
X149550003Y-100000000D03*
X143000000Y-106000000D03*
X149500000Y-116000000D03*
X154500000Y-91000000D03*
X161000000Y-107000000D03*
X146000000Y-120000000D03*
X141500000Y-92000000D03*
X149000000Y-121250000D03*
X149000000Y-122500000D03*
X171000000Y-111000000D03*
X172500000Y-108500000D03*
X174500000Y-116000000D03*
X166500000Y-110000000D03*
X160585735Y-109735735D03*
X161500000Y-111000000D03*
X174600000Y-112000000D03*
X171000000Y-103500000D03*
X158500000Y-93420000D03*
X172500000Y-105500000D03*
X180749999Y-104000001D03*
X181000000Y-100750000D03*
X163500000Y-123500000D03*
X169500000Y-117700000D03*
X147500000Y-110000000D03*
X149500000Y-117500000D03*
X141500000Y-97460000D03*
X153000000Y-110000000D03*
D48*
X180749999Y-104000001D02*
X180749999Y-105350000D01*
X181000000Y-100750000D02*
X182649999Y-100750000D01*
X172488235Y-92500000D02*
X172488235Y-91686765D01*
X172488235Y-91686765D02*
X172675000Y-91500000D01*
X173400000Y-89600000D02*
X172150000Y-88350000D01*
X173500000Y-101500000D02*
X173500000Y-106000000D01*
X171500000Y-99500000D02*
X173500000Y-101500000D01*
X171500000Y-91487352D02*
X171500000Y-99500000D01*
X172987352Y-90000000D02*
X171500000Y-91487352D01*
X173000000Y-90000000D02*
X172987352Y-90000000D01*
X173400000Y-89600000D02*
X173000000Y-90000000D01*
X173500000Y-106000000D02*
X172850000Y-106650000D01*
X165905000Y-81095000D02*
X164975000Y-81095000D01*
X166500000Y-81690000D02*
X165905000Y-81095000D01*
X166500000Y-86500000D02*
X166500000Y-81690000D01*
X140800000Y-85800000D02*
X140000000Y-85800000D01*
X145600000Y-90600000D02*
X140800000Y-85800000D01*
X145600000Y-93400000D02*
X145600000Y-90600000D01*
X143500000Y-103000000D02*
X143500000Y-95500000D01*
X142000000Y-104500000D02*
X143500000Y-103000000D01*
X145025000Y-118500000D02*
X142000000Y-115475000D01*
X145500000Y-118500000D02*
X145025000Y-118500000D01*
X142000000Y-115475000D02*
X142000000Y-104500000D01*
X143500000Y-95500000D02*
X145600000Y-93400000D01*
X147700000Y-118750000D02*
X145750000Y-118750000D01*
X145750000Y-118750000D02*
X145500000Y-118500000D01*
X147745000Y-92755000D02*
X149380000Y-92755000D01*
X144100000Y-96400000D02*
X147745000Y-92755000D01*
X144500000Y-104500000D02*
X144100000Y-104100000D01*
X144100000Y-104100000D02*
X144100000Y-96400000D01*
X143444058Y-104500000D02*
X144500000Y-104500000D01*
X143000000Y-104944058D02*
X143444058Y-104500000D01*
X142400000Y-105751471D02*
X142751471Y-105400000D01*
X142751471Y-105400000D02*
X143000000Y-105400000D01*
X143000000Y-105400000D02*
X143000000Y-104944058D01*
X143500000Y-107348529D02*
X142400000Y-106248529D01*
X142400000Y-106248529D02*
X142400000Y-105751471D01*
X143500000Y-109000000D02*
X143500000Y-107348529D01*
X145000000Y-110500000D02*
X143500000Y-109000000D01*
X145151471Y-110500000D02*
X145000000Y-110500000D01*
X143500000Y-105500000D02*
X144915552Y-105500000D01*
X143000000Y-106000000D02*
X143500000Y-105500000D01*
X154896666Y-107350000D02*
X153450000Y-108796666D01*
X155000000Y-107350000D02*
X154896666Y-107350000D01*
X153450000Y-109550000D02*
X153450000Y-108796666D01*
X153000000Y-110000000D02*
X153450000Y-109550000D01*
X152950000Y-111550000D02*
X149000000Y-111550000D01*
X153500000Y-111000000D02*
X152950000Y-111550000D01*
X172000000Y-94500000D02*
X172000000Y-99434315D01*
X174325000Y-92175000D02*
X172000000Y-94500000D01*
X172000000Y-99434315D02*
X173900000Y-101334315D01*
X173900000Y-101334315D02*
X173900000Y-105400000D01*
X174500000Y-106000000D02*
X174500000Y-107500000D01*
X174325000Y-91500000D02*
X174325000Y-92175000D01*
X173900000Y-105400000D02*
X174500000Y-106000000D01*
X169450000Y-107500000D02*
X170300000Y-106650000D01*
X170300000Y-106650000D02*
X172850000Y-106650000D01*
X169500000Y-115000000D02*
X169500000Y-113950000D01*
X171500000Y-120500000D02*
X171500000Y-117000000D01*
X164848529Y-123500000D02*
X169500000Y-123500000D01*
X171500000Y-117000000D02*
X169500000Y-115000000D01*
X163500000Y-122151471D02*
X164848529Y-123500000D01*
X169500000Y-123500000D02*
X170000000Y-123000000D01*
X170000000Y-123000000D02*
X170000000Y-122000000D01*
X170000000Y-122000000D02*
X171500000Y-120500000D01*
X166700000Y-118700000D02*
X168125000Y-118700000D01*
X163760001Y-116239999D02*
X164239999Y-116239999D01*
X164239999Y-116239999D02*
X166700000Y-118700000D01*
X180250000Y-86000000D02*
X178250000Y-88000000D01*
X180700000Y-86000000D02*
X180250000Y-86000000D01*
X149380000Y-92620000D02*
X151500000Y-90500000D01*
X151500000Y-90500000D02*
X151500000Y-85800000D01*
X151500000Y-85800000D02*
X152000000Y-85800000D01*
X149380000Y-92755000D02*
X149380000Y-92620000D01*
X155660000Y-88340000D02*
X156510000Y-88340000D01*
X154000000Y-90000000D02*
X155660000Y-88340000D01*
X153500000Y-90000000D02*
X154000000Y-90000000D01*
X153500000Y-105500000D02*
X152887500Y-105500000D01*
X154000000Y-104414214D02*
X154000000Y-105000000D01*
X154000000Y-105000000D02*
X153500000Y-105500000D01*
X154114018Y-104300196D02*
X154000000Y-104414214D01*
X158000000Y-102500000D02*
X158000000Y-105000000D01*
X153501923Y-98001923D02*
X158000000Y-102500000D01*
X153501923Y-98000000D02*
X153501923Y-98001923D01*
X152500000Y-101825735D02*
X152500000Y-103162500D01*
X153325735Y-101000000D02*
X152500000Y-101825735D01*
X152500000Y-103162500D02*
X152887500Y-103550000D01*
X154250000Y-101000000D02*
X153325735Y-101000000D01*
X154114018Y-103114018D02*
X154114018Y-104300196D01*
X153575735Y-102575735D02*
X154114018Y-103114018D01*
X153399999Y-104200000D02*
X152887500Y-104200000D01*
X153700000Y-103899999D02*
X153399999Y-104200000D01*
X153700000Y-102700000D02*
X153700000Y-103899999D01*
X153575735Y-102575735D02*
X153700000Y-102700000D01*
X154850000Y-100350000D02*
X154850000Y-103000000D01*
X152500000Y-99000000D02*
X153500000Y-99000000D01*
X150500000Y-98800000D02*
X152300000Y-98800000D01*
X152300000Y-98800000D02*
X152500000Y-99000000D01*
X153500000Y-99000000D02*
X154850000Y-100350000D01*
X146850001Y-117500000D02*
X147700000Y-117500000D01*
X145400000Y-116049999D02*
X146850001Y-117500000D01*
X146150000Y-112384744D02*
X145400000Y-113134744D01*
X146150000Y-109215686D02*
X146150000Y-112384744D01*
X145600000Y-100400000D02*
X145600000Y-106815552D01*
X145600000Y-106815552D02*
X144900000Y-107515553D01*
X144900000Y-107515553D02*
X144900000Y-107965686D01*
X147250000Y-98750000D02*
X145600000Y-100400000D01*
X144900000Y-107965686D02*
X146150000Y-109215686D01*
X145400000Y-113134744D02*
X145400000Y-116049999D01*
X151040000Y-95960000D02*
X156510000Y-95960000D01*
X150500000Y-96500000D02*
X151040000Y-95960000D01*
X145300000Y-107800000D02*
X147500000Y-110000000D01*
X146000000Y-106981238D02*
X145300000Y-107681238D01*
X146700001Y-103550000D02*
X146000000Y-104250001D01*
X147212500Y-103550000D02*
X146700001Y-103550000D01*
X146000000Y-104250001D02*
X146000000Y-106981238D01*
X145300000Y-107681238D02*
X145300000Y-107800000D01*
X168687648Y-112000000D02*
X169400000Y-111287648D01*
X167975000Y-112000000D02*
X168687648Y-112000000D01*
X169400000Y-107550000D02*
X169450000Y-107500000D01*
X167525000Y-112450000D02*
X167975000Y-112000000D01*
X169400000Y-111287648D02*
X169400000Y-107550000D01*
X169950000Y-113450000D02*
X169500000Y-113450000D01*
X170500000Y-114000000D02*
X169950000Y-113450000D01*
X171400000Y-114000000D02*
X170500000Y-114000000D01*
X150225000Y-122411918D02*
X150225000Y-118225000D01*
X151313082Y-123500000D02*
X150225000Y-122411918D01*
X163500000Y-123500000D02*
X151313082Y-123500000D01*
X150225000Y-118225000D02*
X149500000Y-117500000D01*
X172000000Y-118032187D02*
X172100000Y-117932187D01*
X172000000Y-121000000D02*
X172000000Y-118032187D01*
X171000000Y-122000000D02*
X172000000Y-121000000D01*
X169800000Y-120700000D02*
X168000000Y-120700000D01*
X170900000Y-119600000D02*
X169800000Y-120700000D01*
X170900000Y-118500000D02*
X170900000Y-119600000D01*
X168000000Y-119700000D02*
X169500000Y-119700000D01*
X165500000Y-119000000D02*
X161500000Y-119000000D01*
X166900000Y-121700000D02*
X166500000Y-121300000D01*
X166500000Y-121300000D02*
X166500000Y-120000000D01*
X168125000Y-121700000D02*
X166900000Y-121700000D01*
X166500000Y-120000000D02*
X165500000Y-119000000D01*
X159521770Y-86400000D02*
X158000000Y-87921770D01*
X159725663Y-86400000D02*
X159521770Y-86400000D01*
X158000000Y-89500000D02*
X158500000Y-90000000D01*
X158000000Y-87921770D02*
X158000000Y-89500000D01*
X158500000Y-93420000D02*
X156510000Y-93420000D01*
X156510000Y-85800000D02*
X152500000Y-85800000D01*
X133500000Y-102650000D02*
X134300000Y-103450000D01*
X132648529Y-96200000D02*
X133500000Y-97051471D01*
X131000000Y-96200000D02*
X132648529Y-96200000D01*
X133500000Y-97051471D02*
X133500000Y-102650000D01*
X132200000Y-97200000D02*
X131000000Y-97200000D01*
X132500000Y-96900000D02*
X132200000Y-97200000D01*
X163135000Y-82365000D02*
X164975000Y-82365000D01*
X162500000Y-83000000D02*
X163135000Y-82365000D01*
X158500000Y-104100000D02*
X159900000Y-105500000D01*
X154000000Y-97000000D02*
X154500000Y-97500000D01*
X151387399Y-97000000D02*
X154000000Y-97000000D01*
X148482448Y-98347823D02*
X150039575Y-98347823D01*
X150039575Y-98347823D02*
X151387399Y-97000000D01*
X158500000Y-102352246D02*
X158500000Y-104100000D01*
X154500000Y-97500000D02*
X154500000Y-98352246D01*
X147261012Y-96397823D02*
X147261012Y-97126387D01*
X147261012Y-97126387D02*
X148482448Y-98347823D01*
X154500000Y-98352246D02*
X158500000Y-102352246D01*
X150700000Y-102267590D02*
X150700000Y-102662500D01*
X151467590Y-101500000D02*
X150700000Y-102267590D01*
X151500000Y-101500000D02*
X151467590Y-101500000D01*
X149400000Y-100150003D02*
X149400000Y-102662500D01*
X149550003Y-100000000D02*
X149400000Y-100150003D01*
X150050000Y-101500000D02*
X150050000Y-102662500D01*
X156500000Y-102000000D02*
X156500000Y-103000000D01*
X154114018Y-104300196D02*
X154114018Y-104385982D01*
X154114018Y-104300196D02*
X154000000Y-104186178D01*
X156896666Y-107350000D02*
X157000000Y-107350000D01*
X156146666Y-108100000D02*
X156896666Y-107350000D01*
X154712352Y-108100000D02*
X156146666Y-108100000D01*
X153850000Y-110650000D02*
X153850000Y-108962352D01*
X153850000Y-108962352D02*
X154712352Y-108100000D01*
X153500000Y-111000000D02*
X153850000Y-110650000D01*
X157000000Y-107350000D02*
X157000000Y-106537648D01*
X157000000Y-106537648D02*
X158000000Y-105537648D01*
X158000000Y-105537648D02*
X158000000Y-105000000D01*
X158000000Y-105000000D02*
X156650000Y-105000000D01*
X153650000Y-104850000D02*
X152887500Y-104850000D01*
X154114018Y-104385982D02*
X153650000Y-104850000D01*
X154114018Y-104385982D02*
X153900516Y-104599484D01*
X153399999Y-106800000D02*
X152887500Y-106800000D01*
X153746873Y-106453126D02*
X153399999Y-106800000D01*
X153860697Y-106453126D02*
X153746873Y-106453126D01*
X155000000Y-105000000D02*
X155000000Y-105961013D01*
X155000000Y-105961013D02*
X155088987Y-106050000D01*
X155088987Y-105088987D02*
X155000000Y-105000000D01*
X154512352Y-106650000D02*
X154225000Y-106937352D01*
X154225000Y-107450000D02*
X152887500Y-107450000D01*
X156026160Y-106650000D02*
X154512352Y-106650000D01*
X156486482Y-106189678D02*
X156026160Y-106650000D01*
X154225000Y-106937352D02*
X154225000Y-107450000D01*
X156312352Y-108500000D02*
X155500000Y-108500000D01*
X156512352Y-108300000D02*
X156312352Y-108500000D01*
X157487648Y-108300000D02*
X156512352Y-108300000D01*
X157687648Y-108500000D02*
X157487648Y-108300000D01*
X155500000Y-108500000D02*
X155000000Y-109000000D01*
X158312352Y-108500000D02*
X157687648Y-108500000D01*
X160000000Y-107000000D02*
X160000000Y-107787648D01*
X160000000Y-107787648D02*
X159487648Y-108300000D01*
X158512352Y-108300000D02*
X158312352Y-108500000D01*
X160500000Y-106500000D02*
X160000000Y-107000000D01*
X159487648Y-108300000D02*
X158512352Y-108300000D01*
X160500000Y-104500000D02*
X160500000Y-106500000D01*
X162620000Y-114902844D02*
X162620000Y-115800000D01*
X161717156Y-114000000D02*
X162620000Y-114902844D01*
X161000000Y-114000000D02*
X161717156Y-114000000D01*
X158600000Y-101100000D02*
X156500000Y-99000000D01*
X156500000Y-99000000D02*
X156500000Y-98500000D01*
X158600000Y-101665685D02*
X158600000Y-101100000D01*
X159500000Y-102565686D02*
X158600000Y-101665685D01*
X159500000Y-103000000D02*
X159500000Y-102565686D01*
X156500000Y-98500000D02*
X156510000Y-98500000D01*
X157000000Y-110000000D02*
X157000000Y-109000000D01*
X160585735Y-108764265D02*
X160850000Y-108500000D01*
X160585735Y-109735735D02*
X160585735Y-108764265D01*
X131000000Y-99500000D02*
X131000000Y-98200000D01*
X161900000Y-84905000D02*
X160025000Y-84905000D01*
X150750000Y-94125000D02*
X149380000Y-92755000D01*
X150750000Y-95250000D02*
X150750000Y-94125000D01*
X150408835Y-95250000D02*
X149261012Y-96397823D01*
X150750000Y-95250000D02*
X150408835Y-95250000D01*
X151350000Y-109150000D02*
X151350000Y-108337500D01*
X150500000Y-110000000D02*
X151350000Y-109150000D01*
X134250000Y-88500000D02*
X134250000Y-90000000D01*
X134250000Y-88500000D02*
X134250000Y-85900000D01*
X132650000Y-90000000D02*
X132650000Y-88500000D01*
X132650000Y-88500000D02*
X132650000Y-85900000D01*
X172562500Y-111437500D02*
X173000000Y-111875000D01*
X172062500Y-111437500D02*
X172562500Y-111437500D01*
X159000000Y-97000000D02*
X163000000Y-93000000D01*
X163000000Y-93000000D02*
X163000000Y-91500000D01*
X159000000Y-101500000D02*
X159000000Y-97000000D01*
X164900000Y-107400000D02*
X159000000Y-101500000D01*
X165500000Y-107400000D02*
X164900000Y-107400000D01*
X163100000Y-91600000D02*
X165500000Y-91600000D01*
X163000000Y-91500000D02*
X163100000Y-91600000D01*
X148100000Y-101500000D02*
X148100000Y-102662500D01*
X146000000Y-118000000D02*
X143500000Y-115500000D01*
X146700001Y-105500000D02*
X147212500Y-105500000D01*
X146400000Y-105800001D02*
X146700001Y-105500000D01*
X146400000Y-107600000D02*
X146400000Y-105800001D01*
X146174265Y-107825735D02*
X146400000Y-107600000D01*
X150091983Y-102620517D02*
X150050000Y-102662500D01*
X148750000Y-102662500D02*
X148750000Y-100000000D01*
X158500000Y-82365000D02*
X160025000Y-82365000D01*
X163465000Y-83635000D02*
X164975000Y-83635000D01*
X163100000Y-84000000D02*
X163465000Y-83635000D01*
X180749999Y-109450000D02*
X180749999Y-105350000D01*
X179149999Y-105350000D02*
X179149999Y-109000000D01*
X179149999Y-104594141D02*
X179149999Y-105350000D01*
X180575000Y-102575000D02*
X180575000Y-103075000D01*
X179500000Y-101500000D02*
X180575000Y-102575000D01*
X180575000Y-103075000D02*
X181899999Y-101750000D01*
X181899999Y-101750000D02*
X182649999Y-101750000D01*
X179649999Y-104000000D02*
X180575000Y-103075000D01*
X179649999Y-104094141D02*
X179649999Y-104000000D01*
X179149999Y-104594141D02*
X179649999Y-104094141D01*
X182287760Y-97387761D02*
X182649999Y-97750000D01*
X181250000Y-97387761D02*
X182287760Y-97387761D01*
X182050625Y-91050625D02*
X182561250Y-90540000D01*
X182561250Y-90540000D02*
X183400000Y-90540000D01*
X179849999Y-91810000D02*
X178250000Y-91810000D01*
X179849999Y-89270000D02*
X178250000Y-89270000D01*
X167434314Y-89500000D02*
X162500000Y-89500000D01*
X168500000Y-90565686D02*
X167434314Y-89500000D01*
X162500000Y-89500000D02*
X162000000Y-90000000D01*
X160600000Y-88180000D02*
X159920000Y-87500000D01*
X167305000Y-88180000D02*
X160600000Y-88180000D01*
X170400000Y-91350000D02*
X170400000Y-91275000D01*
X170400000Y-91275000D02*
X167305000Y-88180000D01*
X172850000Y-106650000D02*
X172850000Y-107500000D01*
X161500000Y-115820000D02*
X161520000Y-115800000D01*
X161500000Y-117500000D02*
X161500000Y-115820000D01*
X167500000Y-111000000D02*
X168500000Y-111000000D01*
X174600000Y-113075000D02*
X174500000Y-113175000D01*
X174600000Y-112000000D02*
X174600000Y-113075000D01*
X174500000Y-116000000D02*
X174500000Y-114825000D01*
X171010663Y-112950000D02*
X169500000Y-112950000D01*
X171562816Y-112397847D02*
X171010663Y-112950000D01*
X168125000Y-115325000D02*
X168125000Y-114550000D01*
X168125000Y-114550000D02*
X167525000Y-113950000D01*
X169500000Y-116700000D02*
X168125000Y-115325000D01*
X167500000Y-114450000D02*
X167000000Y-113950000D01*
X167500000Y-116200000D02*
X167500000Y-114450000D01*
X168000000Y-116700000D02*
X167500000Y-116200000D01*
X169500000Y-116700000D02*
X168000000Y-116700000D01*
X169500000Y-117700000D02*
X168000000Y-117700000D01*
X164000000Y-120000000D02*
X165000000Y-120000000D01*
X162500000Y-121500000D02*
X164000000Y-120000000D01*
X160500000Y-121500000D02*
X162500000Y-121500000D01*
X165000000Y-121500000D02*
X166200000Y-122700000D01*
X166200000Y-122700000D02*
X168125000Y-122700000D01*
X165000000Y-120000000D02*
X165000000Y-121500000D01*
X149000000Y-122500000D02*
X147700000Y-122500000D01*
X149000000Y-121250000D02*
X147700000Y-121250000D01*
X146000000Y-120000000D02*
X148050000Y-120000000D01*
X169450000Y-107500000D02*
X169500000Y-107550000D01*
X173100000Y-107750000D02*
X172850000Y-107500000D01*
X173100000Y-108950000D02*
X173100000Y-107750000D01*
X172050000Y-110000000D02*
X173100000Y-108950000D01*
X167525000Y-113450000D02*
X165250000Y-113450000D01*
X170500000Y-108000000D02*
X171000000Y-107500000D01*
X165250000Y-113450000D02*
X165000000Y-113200000D01*
X150050000Y-105500000D02*
X152887500Y-105500000D01*
X150050000Y-105500000D02*
X151350000Y-106800000D01*
X150800000Y-85800000D02*
X149784000Y-84784000D01*
X164775000Y-85800000D02*
X156510000Y-85800000D01*
X165000000Y-112700000D02*
X165300000Y-113000000D01*
X146000000Y-114149999D02*
X146000000Y-113500000D01*
X169650000Y-87500000D02*
X170150000Y-88000000D01*
X167525000Y-113950000D02*
X167525000Y-113500000D01*
X156510000Y-85510000D02*
X156500000Y-85500000D01*
X132700000Y-103450000D02*
X132700000Y-107550000D01*
X160420000Y-115800000D02*
X160420000Y-121420000D01*
X165000000Y-87000000D02*
X164975000Y-86975000D01*
X167525000Y-113950000D02*
X167000000Y-113950000D01*
X146850001Y-115000000D02*
X146000000Y-114149999D01*
X166500000Y-111200000D02*
X165000000Y-112700000D01*
X170000000Y-111000000D02*
X170500000Y-110500000D01*
X182248526Y-95750000D02*
X182649999Y-95750000D01*
X152887500Y-104850000D02*
X150700000Y-104850000D01*
X165000000Y-87500000D02*
X169650000Y-87500000D01*
X170500000Y-110500000D02*
X170500000Y-108000000D01*
X181049999Y-94551473D02*
X182248526Y-95750000D01*
X170150000Y-89150000D02*
X171000000Y-90000000D01*
X164975000Y-86000000D02*
X164975000Y-84905000D01*
X170000000Y-111000000D02*
X170000000Y-111950000D01*
X149261012Y-96397823D02*
X149380000Y-96278835D01*
X147700000Y-115000000D02*
X149450000Y-115000000D01*
X164975000Y-86000000D02*
X164775000Y-85800000D01*
X149450000Y-115000000D02*
X151250000Y-113200000D01*
X131125000Y-101875000D02*
X132700000Y-103450000D01*
X147700000Y-115000000D02*
X146850001Y-115000000D01*
X156510000Y-85800000D02*
X156510000Y-85510000D01*
X164975000Y-86975000D02*
X164975000Y-86000000D01*
X150700000Y-104850000D02*
X150050000Y-105500000D01*
X165000000Y-87500000D02*
X165000000Y-87000000D01*
X166500000Y-111000000D02*
X166500000Y-111200000D01*
X170000000Y-111950000D02*
X169500000Y-112450000D01*
X165000000Y-87500000D02*
X166500000Y-87500000D01*
X151350000Y-104200000D02*
X150050000Y-105500000D01*
X167000000Y-113950000D02*
X165750000Y-113950000D01*
X160420000Y-121420000D02*
X160500000Y-121500000D01*
X152887500Y-104200000D02*
X151350000Y-104200000D01*
X152500000Y-85800000D02*
X150800000Y-85800000D01*
X165750000Y-113950000D02*
X165000000Y-113200000D01*
X151250000Y-121500000D02*
X160500000Y-121500000D01*
X171000000Y-94000000D02*
X165500000Y-99500000D01*
X149380000Y-92755000D02*
X149380000Y-96278835D01*
X165500000Y-99500000D02*
X166000000Y-99500000D01*
X151350000Y-106800000D02*
X151350000Y-108337500D01*
X170150000Y-88000000D02*
X170150000Y-89150000D01*
X171000000Y-90000000D02*
X171000000Y-94000000D01*
X149784000Y-84784000D02*
X149525000Y-84784000D01*
X156510000Y-88340000D02*
X156510000Y-88490000D01*
X157170000Y-117500000D02*
X158220000Y-116450000D01*
X159000000Y-107350000D02*
X157000000Y-107350000D01*
X181875000Y-96750000D02*
X182649999Y-96750000D01*
X180449999Y-95324999D02*
X181875000Y-96750000D01*
X153500000Y-117500000D02*
X157170000Y-117500000D01*
X158220000Y-116450000D02*
X158220000Y-115800000D01*
X182250000Y-86500000D02*
X182250000Y-87000000D01*
X149000000Y-111550000D02*
X149000000Y-111500000D01*
X149000000Y-112450000D02*
X149000000Y-111550000D01*
X153500000Y-111000000D02*
X153500000Y-117500000D01*
X147700000Y-113750000D02*
X149000000Y-112450000D01*
X149550000Y-111550000D02*
X149000000Y-111550000D01*
X156510000Y-88490000D02*
X156500000Y-88500000D01*
X180449999Y-88800001D02*
X180449999Y-95324999D01*
X182250000Y-87000000D02*
X180449999Y-88800001D01*
X174500000Y-107500000D02*
X174500000Y-109450000D01*
X174500000Y-109450000D02*
X173950000Y-110000000D01*
X159500000Y-90000000D02*
X160450000Y-90000000D01*
X159000000Y-89500000D02*
X159500000Y-90000000D01*
X159000000Y-88500000D02*
X159000000Y-89500000D01*
X168125000Y-108125000D02*
X168500000Y-108500000D01*
X168125000Y-107500000D02*
X168125000Y-108125000D01*
X168500000Y-108500000D02*
X168500000Y-109350000D01*
X154920000Y-113080000D02*
X159000000Y-109000000D01*
X154920000Y-115800000D02*
X154920000Y-113080000D01*
X143420000Y-93420000D02*
X143500000Y-93500000D01*
X140000000Y-93420000D02*
X143420000Y-93420000D01*
X184150000Y-92560000D02*
X183400000Y-91810000D01*
X184000000Y-99750000D02*
X184150000Y-99600000D01*
X184150000Y-99600000D02*
X184150000Y-92560000D01*
X182649999Y-99750000D02*
X184000000Y-99750000D01*
X181250000Y-90500000D02*
X181250000Y-92520277D01*
X181250000Y-92520277D02*
X183750000Y-95020277D01*
X183750000Y-95020277D02*
X183750000Y-98424998D01*
X183400000Y-89270000D02*
X182480000Y-89270000D01*
X183424998Y-98750000D02*
X182649999Y-98750000D01*
X183750000Y-98424998D02*
X183424998Y-98750000D01*
X182480000Y-89270000D02*
X181250000Y-90500000D01*
X134300000Y-107550000D02*
X134300000Y-103450000D01*
X144500000Y-106500000D02*
X144500000Y-109000000D01*
X144500000Y-109000000D02*
X145000000Y-109500000D01*
X149400000Y-102662500D02*
X149350000Y-102612500D01*
X149250000Y-116250000D02*
X147700000Y-116250000D01*
X154620000Y-90880000D02*
X154500000Y-91000000D01*
X156510000Y-90880000D02*
X154620000Y-90880000D01*
X149500000Y-116000000D02*
X149250000Y-116250000D01*
X161000000Y-107000000D02*
X162500000Y-108500000D01*
X153000000Y-118500000D02*
X157570000Y-118500000D01*
X148300000Y-116900000D02*
X151400000Y-116900000D01*
X147700000Y-117500000D02*
X148300000Y-116900000D01*
X159320000Y-116750000D02*
X159320000Y-115800000D01*
X151400000Y-116900000D02*
X153000000Y-118500000D01*
X157570000Y-118500000D02*
X159320000Y-116750000D01*
X140380000Y-90880000D02*
X140000000Y-90880000D01*
X141500000Y-92000000D02*
X140380000Y-90880000D01*
X156020000Y-115800000D02*
X156020000Y-115150000D01*
X161170000Y-110000000D02*
X166500000Y-110000000D01*
X156020000Y-115150000D02*
X161170000Y-110000000D01*
X171000000Y-111000000D02*
X171000000Y-108500000D01*
X171000000Y-108500000D02*
X172500000Y-108500000D01*
X161500000Y-111000000D02*
X160970000Y-111000000D01*
X160970000Y-111000000D02*
X157120000Y-114850000D01*
X157120000Y-114850000D02*
X157120000Y-115800000D01*
X171000000Y-103500000D02*
X172500000Y-105000000D01*
X172500000Y-105000000D02*
X172500000Y-105500000D01*
X141500000Y-97460000D02*
X140000000Y-95960000D01*
X150700000Y-108337500D02*
X150700000Y-108849999D01*
X149549999Y-110000000D02*
X149000000Y-110000000D01*
X150700000Y-108849999D02*
X149549999Y-110000000D01*
G04 #@! TA.AperFunction,Conductor*
G36*
X160562540Y-115819685D02*
G01*
X160608295Y-115872489D01*
X160619501Y-115924000D01*
X160619501Y-116597876D01*
X160625908Y-116657481D01*
X160625909Y-116657483D01*
X160662182Y-116754737D01*
X160670000Y-116798068D01*
X160670000Y-117050000D01*
X160684814Y-117064814D01*
X160701401Y-117069685D01*
X160747156Y-117122489D01*
X160757100Y-117191647D01*
X160748923Y-117221452D01*
X160730264Y-117266498D01*
X160730261Y-117266510D01*
X160699500Y-117421153D01*
X160699500Y-117578846D01*
X160730261Y-117733489D01*
X160730264Y-117733501D01*
X160790602Y-117879172D01*
X160790609Y-117879185D01*
X160878210Y-118010288D01*
X160878213Y-118010292D01*
X160989707Y-118121786D01*
X160989710Y-118121788D01*
X160989711Y-118121789D01*
X160994517Y-118125000D01*
X161027289Y-118146898D01*
X161072093Y-118200511D01*
X161080800Y-118269836D01*
X161050645Y-118332863D01*
X161027289Y-118353102D01*
X160989707Y-118378213D01*
X160878213Y-118489707D01*
X160878210Y-118489711D01*
X160790609Y-118620814D01*
X160790602Y-118620827D01*
X160730264Y-118766498D01*
X160730261Y-118766510D01*
X160699500Y-118921153D01*
X160699500Y-119078846D01*
X160730261Y-119233489D01*
X160730264Y-119233501D01*
X160790602Y-119379172D01*
X160790609Y-119379185D01*
X160878210Y-119510288D01*
X160878213Y-119510292D01*
X160989707Y-119621786D01*
X160989711Y-119621789D01*
X161120814Y-119709390D01*
X161120827Y-119709397D01*
X161258683Y-119766498D01*
X161266503Y-119769737D01*
X161421153Y-119800499D01*
X161421156Y-119800500D01*
X161421158Y-119800500D01*
X161578844Y-119800500D01*
X161578845Y-119800499D01*
X161733497Y-119769737D01*
X161879179Y-119709394D01*
X161879185Y-119709390D01*
X162010875Y-119621398D01*
X162077553Y-119600520D01*
X162079766Y-119600500D01*
X165199903Y-119600500D01*
X165266942Y-119620185D01*
X165287584Y-119636819D01*
X165439084Y-119788319D01*
X165472569Y-119849642D01*
X165467585Y-119919334D01*
X165425713Y-119975267D01*
X165360249Y-119999684D01*
X165351403Y-120000000D01*
X165250000Y-120000000D01*
X165250000Y-121376000D01*
X165230315Y-121443039D01*
X165177511Y-121488794D01*
X165126000Y-121500000D01*
X164874000Y-121500000D01*
X164806961Y-121480315D01*
X164761206Y-121427511D01*
X164750000Y-121376000D01*
X164750000Y-120000000D01*
X164562496Y-120000000D01*
X164562489Y-120000001D01*
X164520379Y-120002855D01*
X164520377Y-120002855D01*
X164338314Y-120048132D01*
X164170246Y-120131487D01*
X164024024Y-120249023D01*
X164024023Y-120249024D01*
X163906487Y-120395246D01*
X163823132Y-120563314D01*
X163777856Y-120745373D01*
X163775000Y-120787496D01*
X163775000Y-121238894D01*
X163755315Y-121305933D01*
X163702511Y-121351688D01*
X163633353Y-121361632D01*
X163626810Y-121360512D01*
X163578842Y-121350971D01*
X163421158Y-121350971D01*
X163421155Y-121350971D01*
X163266510Y-121381732D01*
X163266498Y-121381735D01*
X163120827Y-121442073D01*
X163120814Y-121442080D01*
X162989711Y-121529681D01*
X162989707Y-121529684D01*
X162878213Y-121641178D01*
X162878210Y-121641182D01*
X162790609Y-121772285D01*
X162790602Y-121772298D01*
X162730264Y-121917969D01*
X162730261Y-121917981D01*
X162699500Y-122072624D01*
X162699500Y-122230317D01*
X162730261Y-122384960D01*
X162730264Y-122384972D01*
X162790602Y-122530643D01*
X162790609Y-122530656D01*
X162878210Y-122661759D01*
X162878213Y-122661763D01*
X162904269Y-122687819D01*
X162937754Y-122749142D01*
X162932770Y-122818834D01*
X162890898Y-122874767D01*
X162825434Y-122899184D01*
X162816588Y-122899500D01*
X152365356Y-122899500D01*
X152298317Y-122879815D01*
X152252562Y-122827011D01*
X152242618Y-122757853D01*
X152268709Y-122697813D01*
X152343512Y-122604753D01*
X152426867Y-122436685D01*
X152472143Y-122254626D01*
X152475000Y-122212503D01*
X152475000Y-121750000D01*
X151374000Y-121750000D01*
X151306961Y-121730315D01*
X151261206Y-121677511D01*
X151250000Y-121626000D01*
X151250000Y-121500000D01*
X151124000Y-121500000D01*
X151056961Y-121480315D01*
X151011206Y-121427511D01*
X151000000Y-121376000D01*
X151000000Y-121250000D01*
X151500000Y-121250000D01*
X152474999Y-121250000D01*
X152474999Y-120787497D01*
X152474998Y-120787490D01*
X152472144Y-120745379D01*
X152472144Y-120745377D01*
X152426867Y-120563314D01*
X152343512Y-120395246D01*
X152225976Y-120249024D01*
X152225975Y-120249023D01*
X152079753Y-120131487D01*
X151911685Y-120048132D01*
X151729625Y-120002856D01*
X151729628Y-120002856D01*
X151687504Y-120000000D01*
X151500000Y-120000000D01*
X151500000Y-121250000D01*
X151000000Y-121250000D01*
X151000000Y-120031335D01*
X150901847Y-119990478D01*
X150893167Y-119983458D01*
X150882461Y-119980315D01*
X150866490Y-119961883D01*
X150847520Y-119946542D01*
X150844013Y-119935943D01*
X150836706Y-119927511D01*
X150828036Y-119887661D01*
X150825571Y-119880209D01*
X150826028Y-119878429D01*
X150825500Y-119876000D01*
X150825500Y-118314059D01*
X150825501Y-118314046D01*
X150825501Y-118145945D01*
X150825501Y-118145943D01*
X150784577Y-117993215D01*
X150751504Y-117935931D01*
X150751504Y-117935930D01*
X150705524Y-117856290D01*
X150705521Y-117856286D01*
X150705520Y-117856284D01*
X150593716Y-117744480D01*
X150593715Y-117744479D01*
X150589385Y-117740149D01*
X150589374Y-117740139D01*
X150561416Y-117712181D01*
X150527931Y-117650858D01*
X150532915Y-117581166D01*
X150574787Y-117525233D01*
X150640251Y-117500816D01*
X150649097Y-117500500D01*
X151099903Y-117500500D01*
X151166942Y-117520185D01*
X151187583Y-117536818D01*
X152631284Y-118980520D01*
X152631286Y-118980521D01*
X152631290Y-118980524D01*
X152768209Y-119059573D01*
X152768212Y-119059575D01*
X152768216Y-119059577D01*
X152920943Y-119100501D01*
X152920945Y-119100501D01*
X153086654Y-119100501D01*
X153086670Y-119100500D01*
X157483331Y-119100500D01*
X157483347Y-119100501D01*
X157490943Y-119100501D01*
X157649054Y-119100501D01*
X157649057Y-119100501D01*
X157801785Y-119059577D01*
X157851904Y-119030639D01*
X157938716Y-118980520D01*
X158050520Y-118868716D01*
X158050520Y-118868714D01*
X158060728Y-118858507D01*
X158060729Y-118858504D01*
X159800520Y-117118716D01*
X159807536Y-117106562D01*
X159858100Y-117058346D01*
X159926706Y-117045120D01*
X159928184Y-117045270D01*
X159972162Y-117049999D01*
X159972172Y-117050000D01*
X160170000Y-117050000D01*
X160170000Y-116798068D01*
X160177817Y-116754737D01*
X160214091Y-116657483D01*
X160220500Y-116597873D01*
X160220499Y-115923998D01*
X160240183Y-115856961D01*
X160292987Y-115811206D01*
X160344499Y-115800000D01*
X160495501Y-115800000D01*
X160562540Y-115819685D01*
G37*
G04 #@! TD.AperFunction*
G04 #@! TA.AperFunction,Conductor*
G36*
X166430199Y-122079883D02*
G01*
X166436680Y-122085916D01*
X166531284Y-122180520D01*
X166531286Y-122180521D01*
X166531290Y-122180524D01*
X166675254Y-122263641D01*
X166674526Y-122264900D01*
X166722012Y-122303161D01*
X166744082Y-122369454D01*
X166739238Y-122408481D01*
X166727900Y-122447508D01*
X166727899Y-122447511D01*
X166727704Y-122449998D01*
X166727705Y-122450000D01*
X167090950Y-122450000D01*
X167125545Y-122454924D01*
X167272426Y-122497597D01*
X167272429Y-122497597D01*
X167272431Y-122497598D01*
X167309306Y-122500500D01*
X167309314Y-122500500D01*
X167876000Y-122500500D01*
X167943039Y-122520185D01*
X167988794Y-122572989D01*
X168000000Y-122624500D01*
X168000000Y-122775500D01*
X167980315Y-122842539D01*
X167927511Y-122888294D01*
X167876000Y-122899500D01*
X166115356Y-122899500D01*
X166048317Y-122879815D01*
X166002562Y-122827011D01*
X165992618Y-122757853D01*
X166018709Y-122697813D01*
X166093512Y-122604753D01*
X166176867Y-122436685D01*
X166222143Y-122254626D01*
X166224999Y-122212504D01*
X166224999Y-122173601D01*
X166244682Y-122106561D01*
X166297485Y-122060805D01*
X166366643Y-122050860D01*
X166430199Y-122079883D01*
G37*
G04 #@! TD.AperFunction*
G04 #@! TA.AperFunction,Conductor*
G36*
X165987273Y-110620185D02*
G01*
X165989125Y-110621398D01*
X166120814Y-110709390D01*
X166120827Y-110709397D01*
X166258695Y-110766503D01*
X166266503Y-110769737D01*
X166416960Y-110799665D01*
X166421153Y-110800499D01*
X166421156Y-110800500D01*
X166575500Y-110800500D01*
X166642539Y-110820185D01*
X166688294Y-110872989D01*
X166699500Y-110924500D01*
X166699500Y-111078846D01*
X166730261Y-111233489D01*
X166730264Y-111233501D01*
X166790602Y-111379172D01*
X166790609Y-111379185D01*
X166878210Y-111510288D01*
X166878213Y-111510292D01*
X166989708Y-111621787D01*
X166989711Y-111621789D01*
X167021718Y-111643175D01*
X167066523Y-111696787D01*
X167075231Y-111766112D01*
X167045077Y-111829140D01*
X167000282Y-111860839D01*
X166935778Y-111887558D01*
X166916071Y-111895721D01*
X166846605Y-111949024D01*
X166798464Y-111985964D01*
X166708219Y-112103574D01*
X166651491Y-112240527D01*
X166651490Y-112240529D01*
X166637000Y-112350598D01*
X166637000Y-112549403D01*
X166651489Y-112659468D01*
X166653594Y-112667322D01*
X166650314Y-112668200D01*
X166656081Y-112722073D01*
X166653017Y-112732522D01*
X166653595Y-112732677D01*
X166651490Y-112740529D01*
X166637000Y-112850598D01*
X166637000Y-113049403D01*
X166651489Y-113159468D01*
X166653594Y-113167322D01*
X166650510Y-113168148D01*
X166656349Y-113222737D01*
X166653514Y-113232653D01*
X166654082Y-113232806D01*
X166651978Y-113240658D01*
X166640873Y-113325000D01*
X166668994Y-113325000D01*
X166736033Y-113344685D01*
X166767362Y-113373503D01*
X166768897Y-113375503D01*
X166794098Y-113440669D01*
X166780067Y-113509116D01*
X166731259Y-113559111D01*
X166670529Y-113575000D01*
X166640874Y-113575000D01*
X166651978Y-113659340D01*
X166654082Y-113667193D01*
X166650847Y-113668059D01*
X166656612Y-113722126D01*
X166653519Y-113732656D01*
X166654082Y-113732807D01*
X166651978Y-113740659D01*
X166640873Y-113825000D01*
X167401000Y-113825000D01*
X167468039Y-113844685D01*
X167489385Y-113862029D01*
X167612385Y-113987029D01*
X167619373Y-114000077D01*
X167638794Y-114022489D01*
X167643865Y-114045802D01*
X167645375Y-114048620D01*
X167645134Y-114051636D01*
X167650000Y-114074000D01*
X167650000Y-114575000D01*
X167886863Y-114575000D01*
X167886877Y-114574999D01*
X167996841Y-114560521D01*
X167996842Y-114560521D01*
X168133675Y-114503843D01*
X168251181Y-114413678D01*
X168300800Y-114349013D01*
X168357228Y-114307810D01*
X168399173Y-114300499D01*
X168625194Y-114300499D01*
X168692233Y-114320184D01*
X168723567Y-114349009D01*
X168773190Y-114413679D01*
X168773465Y-114414037D01*
X168784265Y-114422324D01*
X168850987Y-114473521D01*
X168892189Y-114529948D01*
X168899500Y-114571896D01*
X168899500Y-114913330D01*
X168899499Y-114913348D01*
X168899499Y-115079054D01*
X168899498Y-115079054D01*
X168919096Y-115152192D01*
X168940423Y-115231785D01*
X168960468Y-115266503D01*
X168988240Y-115314606D01*
X169019479Y-115368715D01*
X169138349Y-115487585D01*
X169138355Y-115487590D01*
X170863181Y-117212416D01*
X170896666Y-117273739D01*
X170899500Y-117300097D01*
X170899500Y-117582152D01*
X170879815Y-117649191D01*
X170827011Y-117694946D01*
X170799692Y-117703769D01*
X170666508Y-117730261D01*
X170666498Y-117730264D01*
X170520827Y-117790602D01*
X170520816Y-117790608D01*
X170493390Y-117808934D01*
X170426712Y-117829811D01*
X170359332Y-117811326D01*
X170312643Y-117759346D01*
X170300500Y-117705831D01*
X170300500Y-117621155D01*
X170300499Y-117621153D01*
X170292545Y-117581166D01*
X170269737Y-117466503D01*
X170251261Y-117421898D01*
X170209397Y-117320827D01*
X170209390Y-117320814D01*
X170121789Y-117189711D01*
X170121786Y-117189707D01*
X170010292Y-117078213D01*
X170010288Y-117078210D01*
X169879185Y-116990609D01*
X169879172Y-116990602D01*
X169733501Y-116930264D01*
X169733489Y-116930261D01*
X169578845Y-116899500D01*
X169578842Y-116899500D01*
X169421158Y-116899500D01*
X169421155Y-116899500D01*
X169266511Y-116930260D01*
X169266510Y-116930261D01*
X169266507Y-116930262D01*
X169266503Y-116930263D01*
X169241636Y-116940562D01*
X169194189Y-116950000D01*
X168909050Y-116950000D01*
X168874455Y-116945076D01*
X168727573Y-116902402D01*
X168727567Y-116902401D01*
X168690701Y-116899500D01*
X168690694Y-116899500D01*
X167309306Y-116899500D01*
X167309298Y-116899500D01*
X167272432Y-116902401D01*
X167272426Y-116902402D01*
X167125545Y-116945076D01*
X167090950Y-116950000D01*
X166727705Y-116950000D01*
X166727704Y-116950001D01*
X166727899Y-116952488D01*
X166727900Y-116952494D01*
X166773716Y-117110193D01*
X166773717Y-117110196D01*
X166789207Y-117136388D01*
X166806389Y-117204112D01*
X166789207Y-117262627D01*
X166773258Y-117289595D01*
X166773254Y-117289605D01*
X166727402Y-117447426D01*
X166727401Y-117447432D01*
X166724500Y-117484298D01*
X166724500Y-117575902D01*
X166704815Y-117642941D01*
X166652011Y-117688696D01*
X166582853Y-117698640D01*
X166519297Y-117669615D01*
X166512819Y-117663583D01*
X165980923Y-117131687D01*
X165299233Y-116449998D01*
X166727704Y-116449998D01*
X166727705Y-116450000D01*
X167750000Y-116450000D01*
X168250000Y-116450000D01*
X169272295Y-116450000D01*
X169272295Y-116449998D01*
X169272100Y-116447513D01*
X169226281Y-116289801D01*
X169142685Y-116148447D01*
X169142678Y-116148438D01*
X169026561Y-116032321D01*
X169026552Y-116032314D01*
X168885196Y-115948717D01*
X168885193Y-115948716D01*
X168727495Y-115902900D01*
X168727489Y-115902899D01*
X168690649Y-115900000D01*
X168250000Y-115900000D01*
X168250000Y-116450000D01*
X167750000Y-116450000D01*
X167750000Y-115900000D01*
X167309350Y-115900000D01*
X167272510Y-115902899D01*
X167272504Y-115902900D01*
X167114806Y-115948716D01*
X167114803Y-115948717D01*
X166973447Y-116032314D01*
X166973438Y-116032321D01*
X166857321Y-116148438D01*
X166857314Y-116148447D01*
X166773718Y-116289801D01*
X166727899Y-116447513D01*
X166727704Y-116449998D01*
X165299233Y-116449998D01*
X164727588Y-115878353D01*
X164727587Y-115878351D01*
X164608716Y-115759480D01*
X164608715Y-115759479D01*
X164521903Y-115709359D01*
X164521903Y-115709358D01*
X164521899Y-115709357D01*
X164471784Y-115680422D01*
X164319056Y-115639498D01*
X164319054Y-115639498D01*
X164311205Y-115637395D01*
X164311862Y-115634941D01*
X164273962Y-115620663D01*
X164139186Y-115530608D01*
X164139173Y-115530601D01*
X163993502Y-115470263D01*
X163993490Y-115470260D01*
X163838846Y-115439499D01*
X163838843Y-115439499D01*
X163681159Y-115439499D01*
X163681157Y-115439499D01*
X163668687Y-115441979D01*
X163599095Y-115435750D01*
X163543919Y-115392885D01*
X163520677Y-115326995D01*
X163520499Y-115320361D01*
X163520499Y-115002129D01*
X163520498Y-115002123D01*
X163519163Y-114989707D01*
X163514091Y-114942517D01*
X163506044Y-114920943D01*
X163463797Y-114807671D01*
X163463793Y-114807664D01*
X163377547Y-114692455D01*
X163377544Y-114692452D01*
X163262335Y-114606206D01*
X163262328Y-114606202D01*
X163144493Y-114562253D01*
X163100145Y-114533752D01*
X162984397Y-114418004D01*
X162984374Y-114417983D01*
X162478900Y-113912509D01*
X163775001Y-113912509D01*
X163777855Y-113954620D01*
X163777855Y-113954622D01*
X163823132Y-114136685D01*
X163906487Y-114304753D01*
X164024023Y-114450975D01*
X164024024Y-114450976D01*
X164170246Y-114568512D01*
X164338314Y-114651867D01*
X164520374Y-114697143D01*
X164520371Y-114697143D01*
X164562496Y-114699999D01*
X164749999Y-114699999D01*
X165250000Y-114699999D01*
X165437503Y-114699999D01*
X165437509Y-114699998D01*
X165479620Y-114697144D01*
X165479622Y-114697144D01*
X165661685Y-114651867D01*
X165829753Y-114568512D01*
X165975975Y-114450976D01*
X165975976Y-114450975D01*
X166093512Y-114304753D01*
X166176867Y-114136685D01*
X166192207Y-114075000D01*
X166640874Y-114075000D01*
X166651978Y-114159340D01*
X166651978Y-114159342D01*
X166708656Y-114296175D01*
X166798820Y-114413679D01*
X166916324Y-114503843D01*
X167053158Y-114560521D01*
X167163122Y-114574999D01*
X167163137Y-114575000D01*
X167400000Y-114575000D01*
X167400000Y-114124776D01*
X167351020Y-114075000D01*
X166640874Y-114075000D01*
X166192207Y-114075000D01*
X166222143Y-113954626D01*
X166225000Y-113912503D01*
X166225000Y-113450000D01*
X165250000Y-113450000D01*
X165250000Y-114699999D01*
X164749999Y-114699999D01*
X164750000Y-114699998D01*
X164750000Y-113450000D01*
X163775001Y-113450000D01*
X163775001Y-113912509D01*
X162478900Y-113912509D01*
X162206914Y-113640523D01*
X162197677Y-113631286D01*
X162197676Y-113631284D01*
X162085872Y-113519480D01*
X162034303Y-113489707D01*
X161999059Y-113469359D01*
X161999059Y-113469358D01*
X161999057Y-113469358D01*
X161948941Y-113440423D01*
X161796213Y-113399499D01*
X161638099Y-113399499D01*
X161630503Y-113399499D01*
X161630487Y-113399500D01*
X161579766Y-113399500D01*
X161512727Y-113379815D01*
X161510875Y-113378602D01*
X161379185Y-113290609D01*
X161379172Y-113290602D01*
X161233501Y-113230264D01*
X161233489Y-113230261D01*
X161078845Y-113199500D01*
X161078842Y-113199500D01*
X160921158Y-113199500D01*
X160921155Y-113199500D01*
X160766510Y-113230261D01*
X160766498Y-113230264D01*
X160620827Y-113290602D01*
X160620814Y-113290609D01*
X160489711Y-113378210D01*
X160489707Y-113378213D01*
X160378213Y-113489707D01*
X160378210Y-113489711D01*
X160290609Y-113620814D01*
X160290602Y-113620827D01*
X160230264Y-113766498D01*
X160230261Y-113766510D01*
X160199500Y-113921153D01*
X160199500Y-114078846D01*
X160230261Y-114233489D01*
X160230264Y-114233501D01*
X160290344Y-114378548D01*
X160297813Y-114448017D01*
X160266538Y-114510496D01*
X160206448Y-114546148D01*
X160175783Y-114550000D01*
X159972155Y-114550000D01*
X159912624Y-114556401D01*
X159905073Y-114558186D01*
X159904684Y-114556542D01*
X159844348Y-114560853D01*
X159827614Y-114555939D01*
X159827483Y-114555908D01*
X159767883Y-114549501D01*
X159767881Y-114549500D01*
X159767873Y-114549500D01*
X159767864Y-114549500D01*
X158872129Y-114549500D01*
X158872123Y-114549501D01*
X158812520Y-114555908D01*
X158804974Y-114557692D01*
X158804628Y-114556230D01*
X158743622Y-114560584D01*
X158728600Y-114556172D01*
X158727482Y-114555908D01*
X158667883Y-114549501D01*
X158667881Y-114549500D01*
X158667873Y-114549500D01*
X158667865Y-114549500D01*
X158569096Y-114549500D01*
X158502057Y-114529815D01*
X158456302Y-114477011D01*
X158446358Y-114407853D01*
X158475383Y-114344297D01*
X158481415Y-114337819D01*
X159451433Y-113367801D01*
X160331737Y-112487496D01*
X163775000Y-112487496D01*
X163775000Y-112950000D01*
X164750000Y-112950000D01*
X165250000Y-112950000D01*
X166224999Y-112950000D01*
X166224999Y-112487497D01*
X166224998Y-112487490D01*
X166222144Y-112445379D01*
X166222144Y-112445377D01*
X166176867Y-112263314D01*
X166093512Y-112095246D01*
X165975976Y-111949024D01*
X165975975Y-111949023D01*
X165829753Y-111831487D01*
X165661685Y-111748132D01*
X165479625Y-111702856D01*
X165479628Y-111702856D01*
X165437504Y-111700000D01*
X165250000Y-111700000D01*
X165250000Y-112950000D01*
X164750000Y-112950000D01*
X164750000Y-111700000D01*
X164562496Y-111700000D01*
X164562489Y-111700001D01*
X164520379Y-111702855D01*
X164520377Y-111702855D01*
X164338314Y-111748132D01*
X164170246Y-111831487D01*
X164024024Y-111949023D01*
X164024023Y-111949024D01*
X163906487Y-112095246D01*
X163823132Y-112263314D01*
X163777856Y-112445373D01*
X163775000Y-112487496D01*
X160331737Y-112487496D01*
X161054471Y-111764762D01*
X161115792Y-111731279D01*
X161185484Y-111736263D01*
X161189602Y-111737884D01*
X161254497Y-111764764D01*
X161266503Y-111769737D01*
X161421153Y-111800499D01*
X161421156Y-111800500D01*
X161421158Y-111800500D01*
X161578844Y-111800500D01*
X161578845Y-111800499D01*
X161733497Y-111769737D01*
X161879179Y-111709394D01*
X162010289Y-111621789D01*
X162121789Y-111510289D01*
X162209394Y-111379179D01*
X162269737Y-111233497D01*
X162300500Y-111078842D01*
X162300500Y-110921158D01*
X162300500Y-110921155D01*
X162300499Y-110921153D01*
X162298281Y-110910001D01*
X162269737Y-110766503D01*
X162269732Y-110766492D01*
X162267969Y-110760676D01*
X162270720Y-110759841D01*
X162264497Y-110702641D01*
X162295691Y-110640122D01*
X162355734Y-110604392D01*
X162386555Y-110600500D01*
X165920234Y-110600500D01*
X165987273Y-110620185D01*
G37*
G04 #@! TD.AperFunction*
G04 #@! TA.AperFunction,Conductor*
G36*
X150009613Y-112170185D02*
G01*
X150055368Y-112222989D01*
X150065312Y-112292147D01*
X150062909Y-112304426D01*
X150027856Y-112445373D01*
X150025000Y-112487496D01*
X150025000Y-112950000D01*
X152474999Y-112950000D01*
X152474999Y-112487497D01*
X152474998Y-112487490D01*
X152472144Y-112445379D01*
X152472144Y-112445377D01*
X152437091Y-112304426D01*
X152440015Y-112234618D01*
X152480215Y-112177471D01*
X152544930Y-112151131D01*
X152557426Y-112150500D01*
X152775500Y-112150500D01*
X152842539Y-112170185D01*
X152888294Y-112222989D01*
X152899500Y-112274500D01*
X152899500Y-117250902D01*
X152879815Y-117317941D01*
X152827011Y-117363696D01*
X152757853Y-117373640D01*
X152694297Y-117344615D01*
X152687819Y-117338583D01*
X151887590Y-116538355D01*
X151887588Y-116538352D01*
X151768717Y-116419481D01*
X151768716Y-116419480D01*
X151664960Y-116359577D01*
X151664959Y-116359576D01*
X151640673Y-116345555D01*
X151631785Y-116340423D01*
X151631784Y-116340422D01*
X151631783Y-116340422D01*
X151575881Y-116325443D01*
X151479057Y-116299499D01*
X151320943Y-116299499D01*
X151313347Y-116299499D01*
X151313331Y-116299500D01*
X150407703Y-116299500D01*
X150340664Y-116279815D01*
X150294909Y-116227011D01*
X150284965Y-116157853D01*
X150286086Y-116151309D01*
X150300499Y-116078846D01*
X150300500Y-116078844D01*
X150300500Y-115921155D01*
X150300499Y-115921153D01*
X150290819Y-115872489D01*
X150269737Y-115766503D01*
X150249500Y-115717646D01*
X150209397Y-115620827D01*
X150209390Y-115620814D01*
X150121789Y-115489711D01*
X150121786Y-115489707D01*
X150010292Y-115378213D01*
X150010288Y-115378210D01*
X149879185Y-115290609D01*
X149879172Y-115290602D01*
X149733501Y-115230264D01*
X149733489Y-115230261D01*
X149578845Y-115199500D01*
X149578842Y-115199500D01*
X149421158Y-115199500D01*
X149421155Y-115199500D01*
X149266510Y-115230261D01*
X149266498Y-115230264D01*
X149174640Y-115268313D01*
X149105171Y-115275782D01*
X149053667Y-115250000D01*
X146352705Y-115250000D01*
X146352704Y-115250001D01*
X146352899Y-115252486D01*
X146398718Y-115410198D01*
X146486288Y-115558271D01*
X146484285Y-115559455D01*
X146505551Y-115613645D01*
X146491860Y-115682160D01*
X146485671Y-115691788D01*
X146398255Y-115839603D01*
X146398254Y-115839605D01*
X146375838Y-115916760D01*
X146338231Y-115975646D01*
X146274758Y-116004851D01*
X146205571Y-115995104D01*
X146169081Y-115969845D01*
X146036819Y-115837583D01*
X146003334Y-115776260D01*
X146000500Y-115749902D01*
X146000500Y-113434840D01*
X146020185Y-113367801D01*
X146036815Y-113347163D01*
X146216386Y-113167592D01*
X146277706Y-113134109D01*
X146347397Y-113139093D01*
X146403331Y-113180964D01*
X146427748Y-113246429D01*
X146412896Y-113314702D01*
X146410798Y-113318392D01*
X146398257Y-113339598D01*
X146398254Y-113339606D01*
X146352402Y-113497426D01*
X146352401Y-113497432D01*
X146349500Y-113534298D01*
X146349500Y-113965701D01*
X146352401Y-114002567D01*
X146352402Y-114002573D01*
X146398254Y-114160393D01*
X146398255Y-114160396D01*
X146485890Y-114308580D01*
X146484045Y-114309670D01*
X146505551Y-114364463D01*
X146491862Y-114432979D01*
X146486252Y-114441707D01*
X146486288Y-114441729D01*
X146398718Y-114589801D01*
X146352899Y-114747513D01*
X146352704Y-114749998D01*
X146352705Y-114750000D01*
X149047295Y-114750000D01*
X149047295Y-114749998D01*
X149047100Y-114747513D01*
X149001281Y-114589801D01*
X148913712Y-114441729D01*
X148915715Y-114440544D01*
X148894448Y-114386359D01*
X148908136Y-114317843D01*
X148914323Y-114308219D01*
X148918889Y-114300499D01*
X149001744Y-114160398D01*
X149047598Y-114002569D01*
X149050500Y-113965694D01*
X149050500Y-113912509D01*
X150025001Y-113912509D01*
X150027855Y-113954620D01*
X150027855Y-113954622D01*
X150073132Y-114136685D01*
X150156487Y-114304753D01*
X150274023Y-114450975D01*
X150274024Y-114450976D01*
X150420246Y-114568512D01*
X150588314Y-114651867D01*
X150770374Y-114697143D01*
X150770371Y-114697143D01*
X150812496Y-114699999D01*
X150999999Y-114699999D01*
X151500000Y-114699999D01*
X151687503Y-114699999D01*
X151687509Y-114699998D01*
X151729620Y-114697144D01*
X151729622Y-114697144D01*
X151911685Y-114651867D01*
X152079753Y-114568512D01*
X152225975Y-114450976D01*
X152225976Y-114450975D01*
X152343512Y-114304753D01*
X152426867Y-114136685D01*
X152472143Y-113954626D01*
X152475000Y-113912503D01*
X152475000Y-113450000D01*
X151500000Y-113450000D01*
X151500000Y-114699999D01*
X150999999Y-114699999D01*
X151000000Y-114699998D01*
X151000000Y-113450000D01*
X150025001Y-113450000D01*
X150025001Y-113912509D01*
X149050500Y-113912509D01*
X149050500Y-113534306D01*
X149047598Y-113497431D01*
X149045355Y-113489711D01*
X149028947Y-113433234D01*
X149019146Y-113399499D01*
X149012723Y-113377391D01*
X149012922Y-113307522D01*
X149044114Y-113255119D01*
X149480520Y-112818716D01*
X149559577Y-112681784D01*
X149600501Y-112529057D01*
X149600501Y-112480424D01*
X149620186Y-112413385D01*
X149659403Y-112374885D01*
X149703044Y-112347968D01*
X149822968Y-112228044D01*
X149834465Y-112209403D01*
X149886412Y-112162679D01*
X149940004Y-112150500D01*
X149942574Y-112150500D01*
X150009613Y-112170185D01*
G37*
G04 #@! TD.AperFunction*
G04 #@! TA.AperFunction,Conductor*
G36*
X170205704Y-111208479D02*
G01*
X170239062Y-111254740D01*
X170290602Y-111379172D01*
X170290609Y-111379185D01*
X170378210Y-111510288D01*
X170378213Y-111510292D01*
X170489707Y-111621786D01*
X170489711Y-111621789D01*
X170620814Y-111709390D01*
X170620827Y-111709397D01*
X170754497Y-111764764D01*
X170766503Y-111769737D01*
X170808029Y-111777997D01*
X170869939Y-111810381D01*
X170904513Y-111871097D01*
X170900774Y-111940866D01*
X170886939Y-111968504D01*
X170853428Y-112018656D01*
X170853418Y-112018674D01*
X170793080Y-112164345D01*
X170793077Y-112164357D01*
X170776103Y-112249691D01*
X170743718Y-112311602D01*
X170683002Y-112346176D01*
X170654486Y-112349500D01*
X170496096Y-112349500D01*
X170429057Y-112329815D01*
X170383302Y-112277011D01*
X170373157Y-112241684D01*
X170373022Y-112240660D01*
X170373021Y-112240657D01*
X170316343Y-112103824D01*
X170226179Y-111986320D01*
X170108675Y-111896156D01*
X169971842Y-111839478D01*
X169963992Y-111837375D01*
X169964384Y-111835911D01*
X169908808Y-111811322D01*
X169870340Y-111752997D01*
X169869511Y-111683132D01*
X169881502Y-111654661D01*
X169930639Y-111569552D01*
X169959577Y-111519433D01*
X170000501Y-111366705D01*
X170000501Y-111302192D01*
X170020186Y-111235153D01*
X170072990Y-111189398D01*
X170142148Y-111179454D01*
X170205704Y-111208479D01*
G37*
G04 #@! TD.AperFunction*
G04 #@! TA.AperFunction,Conductor*
G36*
X142760411Y-106768840D02*
G01*
X142760676Y-106767969D01*
X142766492Y-106769732D01*
X142766503Y-106769737D01*
X142879090Y-106792132D01*
X142921153Y-106800499D01*
X142921156Y-106800500D01*
X142921158Y-106800500D01*
X143078843Y-106800500D01*
X143102314Y-106795831D01*
X143120909Y-106792132D01*
X143190501Y-106798359D01*
X143245679Y-106841221D01*
X143264178Y-106879154D01*
X143273253Y-106910393D01*
X143273255Y-106910396D01*
X143273256Y-106910398D01*
X143280028Y-106921849D01*
X143356917Y-107051862D01*
X143356923Y-107051870D01*
X143473129Y-107168076D01*
X143473133Y-107168079D01*
X143473135Y-107168081D01*
X143614602Y-107251744D01*
X143656224Y-107263836D01*
X143772426Y-107297597D01*
X143772429Y-107297597D01*
X143772431Y-107297598D01*
X143785227Y-107298605D01*
X143850516Y-107323488D01*
X143891988Y-107379718D01*
X143899500Y-107422223D01*
X143899500Y-108913330D01*
X143899499Y-108913348D01*
X143899499Y-109079054D01*
X143899498Y-109079054D01*
X143913978Y-109133094D01*
X143940423Y-109231785D01*
X143940424Y-109231786D01*
X143955259Y-109257483D01*
X143955260Y-109257484D01*
X144019475Y-109368709D01*
X144019479Y-109368714D01*
X144019480Y-109368716D01*
X144131284Y-109480520D01*
X144131285Y-109480521D01*
X144162122Y-109511358D01*
X144165425Y-109514660D01*
X144198911Y-109575983D01*
X144199362Y-109578151D01*
X144230261Y-109733491D01*
X144230264Y-109733501D01*
X144290602Y-109879172D01*
X144290609Y-109879185D01*
X144378210Y-110010288D01*
X144378213Y-110010292D01*
X144489707Y-110121786D01*
X144489711Y-110121789D01*
X144620814Y-110209390D01*
X144620827Y-110209397D01*
X144766498Y-110269735D01*
X144766503Y-110269737D01*
X144921153Y-110300499D01*
X144921156Y-110300500D01*
X144921158Y-110300500D01*
X145078844Y-110300500D01*
X145078845Y-110300499D01*
X145233497Y-110269737D01*
X145320574Y-110233669D01*
X145378048Y-110209863D01*
X145447517Y-110202394D01*
X145509996Y-110233669D01*
X145545648Y-110293759D01*
X145549500Y-110324424D01*
X145549500Y-110775500D01*
X145529815Y-110842539D01*
X145477011Y-110888294D01*
X145425500Y-110899500D01*
X143349998Y-110899500D01*
X143349981Y-110899501D01*
X143247203Y-110910000D01*
X143247200Y-110910001D01*
X143080668Y-110965185D01*
X143080663Y-110965187D01*
X142931342Y-111057289D01*
X142812181Y-111176451D01*
X142750858Y-111209936D01*
X142681166Y-111204952D01*
X142625233Y-111163080D01*
X142600816Y-111097616D01*
X142600500Y-111088770D01*
X142600500Y-106886555D01*
X142620185Y-106819516D01*
X142672989Y-106773761D01*
X142742147Y-106763817D01*
X142760411Y-106768840D01*
G37*
G04 #@! TD.AperFunction*
G04 #@! TA.AperFunction,Conductor*
G36*
X151438714Y-109088063D02*
G01*
X151448370Y-109099206D01*
X151474376Y-109133097D01*
X151499570Y-109198263D01*
X151500000Y-109208582D01*
X151500000Y-109345086D01*
X151500001Y-109345087D01*
X151575096Y-109335202D01*
X151575104Y-109335199D01*
X151626893Y-109313748D01*
X151696362Y-109306279D01*
X151721798Y-109313747D01*
X151774764Y-109335687D01*
X151887280Y-109350500D01*
X151887287Y-109350500D01*
X152112713Y-109350500D01*
X152112720Y-109350500D01*
X152225236Y-109335687D01*
X152225236Y-109335686D01*
X152233293Y-109334626D01*
X152233711Y-109337801D01*
X152288509Y-109339089D01*
X152346385Y-109378233D01*
X152373909Y-109442452D01*
X152362345Y-109511358D01*
X152353893Y-109526104D01*
X152290609Y-109620814D01*
X152290602Y-109620827D01*
X152230264Y-109766498D01*
X152230261Y-109766510D01*
X152199500Y-109921153D01*
X152199500Y-110078846D01*
X152230261Y-110233489D01*
X152230264Y-110233501D01*
X152290602Y-110379172D01*
X152290609Y-110379185D01*
X152378210Y-110510288D01*
X152378213Y-110510292D01*
X152489707Y-110621786D01*
X152489711Y-110621789D01*
X152620814Y-110709390D01*
X152620821Y-110709394D01*
X152624549Y-110710938D01*
X152678953Y-110754778D01*
X152701019Y-110821072D01*
X152683741Y-110888771D01*
X152632605Y-110936383D01*
X152577098Y-110949500D01*
X149940004Y-110949500D01*
X149872965Y-110929815D01*
X149834465Y-110890596D01*
X149833339Y-110888771D01*
X149822968Y-110871956D01*
X149813693Y-110862681D01*
X149780208Y-110801358D01*
X149785192Y-110731666D01*
X149813693Y-110687319D01*
X149816257Y-110684755D01*
X149822968Y-110678044D01*
X149912003Y-110533697D01*
X149925786Y-110492101D01*
X149955811Y-110443423D01*
X149979000Y-110420234D01*
X150030519Y-110368716D01*
X150030519Y-110368714D01*
X150040724Y-110358510D01*
X150040728Y-110358505D01*
X151027875Y-109371357D01*
X151089196Y-109337874D01*
X151131738Y-109336101D01*
X151199998Y-109345087D01*
X151200000Y-109345086D01*
X151200000Y-109218198D01*
X151216609Y-109156204D01*
X151239050Y-109117336D01*
X151248029Y-109103896D01*
X151251625Y-109099211D01*
X151308047Y-109058010D01*
X151377793Y-109053853D01*
X151438714Y-109088063D01*
G37*
G04 #@! TD.AperFunction*
G04 #@! TA.AperFunction,Conductor*
G36*
X170268679Y-108284835D02*
G01*
X170313034Y-108313339D01*
X170322266Y-108322571D01*
X170340597Y-108333878D01*
X170387322Y-108385826D01*
X170399500Y-108439417D01*
X170399500Y-110420234D01*
X170379815Y-110487273D01*
X170378602Y-110489125D01*
X170290609Y-110620814D01*
X170290602Y-110620827D01*
X170239061Y-110745261D01*
X170195220Y-110799665D01*
X170128926Y-110821730D01*
X170061227Y-110804451D01*
X170013616Y-110753314D01*
X170000500Y-110697809D01*
X170000500Y-108470845D01*
X170020185Y-108403806D01*
X170059403Y-108365307D01*
X170115878Y-108330472D01*
X170128044Y-108322968D01*
X170137668Y-108313343D01*
X170198987Y-108279856D01*
X170268679Y-108284835D01*
G37*
G04 #@! TD.AperFunction*
G04 #@! TA.AperFunction,Conductor*
G36*
X151722443Y-103639014D02*
G01*
X151774764Y-103660687D01*
X151781650Y-103661593D01*
X151845545Y-103689856D01*
X151884018Y-103748179D01*
X151888406Y-103768346D01*
X151889312Y-103775233D01*
X151911252Y-103828201D01*
X151918720Y-103897671D01*
X151911252Y-103923103D01*
X151889800Y-103974895D01*
X151879911Y-104049999D01*
X151879912Y-104050000D01*
X152016418Y-104050000D01*
X152083457Y-104069685D01*
X152091899Y-104075620D01*
X152152066Y-104121789D01*
X152159672Y-104127625D01*
X152200874Y-104184053D01*
X152205029Y-104253799D01*
X152170816Y-104314719D01*
X152109099Y-104347471D01*
X152084185Y-104350000D01*
X151879912Y-104350000D01*
X151889799Y-104425102D01*
X151911523Y-104477549D01*
X151918990Y-104547018D01*
X151911523Y-104572451D01*
X151889799Y-104624897D01*
X151879911Y-104699999D01*
X151879912Y-104700000D01*
X152737500Y-104700000D01*
X152737500Y-104324500D01*
X152757185Y-104257461D01*
X152809989Y-104211706D01*
X152861500Y-104200500D01*
X152913500Y-104200500D01*
X152980539Y-104220185D01*
X153026294Y-104272989D01*
X153037500Y-104324500D01*
X153037500Y-105375500D01*
X153017815Y-105442539D01*
X152965011Y-105488294D01*
X152913500Y-105499500D01*
X152861500Y-105499500D01*
X152794461Y-105479815D01*
X152748706Y-105427011D01*
X152737500Y-105375500D01*
X152737500Y-105000000D01*
X151879912Y-105000000D01*
X151889799Y-105075102D01*
X151911523Y-105127549D01*
X151918990Y-105197018D01*
X151911523Y-105222451D01*
X151889799Y-105274897D01*
X151879911Y-105349999D01*
X151879912Y-105350000D01*
X152084185Y-105350000D01*
X152151224Y-105369685D01*
X152196979Y-105422489D01*
X152206923Y-105491647D01*
X152177898Y-105555203D01*
X152159672Y-105572374D01*
X152101901Y-105616705D01*
X152091905Y-105624375D01*
X152026736Y-105649570D01*
X152016418Y-105650000D01*
X151879912Y-105650000D01*
X151889800Y-105725103D01*
X151889801Y-105725108D01*
X151911251Y-105776894D01*
X151918720Y-105846364D01*
X151911252Y-105871797D01*
X151889313Y-105924763D01*
X151889313Y-105924764D01*
X151874500Y-106037272D01*
X151874500Y-106262727D01*
X151889313Y-106375235D01*
X151889313Y-106375236D01*
X151910981Y-106427549D01*
X151918448Y-106497019D01*
X151910981Y-106522451D01*
X151889313Y-106574763D01*
X151889313Y-106574764D01*
X151874500Y-106687272D01*
X151874500Y-106912727D01*
X151889313Y-107025235D01*
X151889313Y-107025236D01*
X151910981Y-107077549D01*
X151918448Y-107147019D01*
X151910981Y-107172451D01*
X151889313Y-107224764D01*
X151888406Y-107231654D01*
X151860139Y-107295550D01*
X151801814Y-107334020D01*
X151781655Y-107338405D01*
X151774772Y-107339312D01*
X151774764Y-107339313D01*
X151721797Y-107361252D01*
X151652327Y-107368719D01*
X151626894Y-107361251D01*
X151575108Y-107339801D01*
X151575103Y-107339800D01*
X151500000Y-107329911D01*
X151500000Y-107466416D01*
X151480315Y-107533455D01*
X151474376Y-107541902D01*
X151448376Y-107575786D01*
X151391948Y-107616989D01*
X151322202Y-107621144D01*
X151261282Y-107586932D01*
X151251624Y-107575786D01*
X151225624Y-107541902D01*
X151200430Y-107476733D01*
X151200000Y-107466416D01*
X151200000Y-107329911D01*
X151199999Y-107329911D01*
X151124895Y-107339800D01*
X151073103Y-107361252D01*
X151003634Y-107368719D01*
X150978201Y-107361252D01*
X150926414Y-107339801D01*
X150925236Y-107339313D01*
X150925235Y-107339312D01*
X150925233Y-107339312D01*
X150812727Y-107324500D01*
X150812720Y-107324500D01*
X150587280Y-107324500D01*
X150587272Y-107324500D01*
X150474764Y-107339313D01*
X150474763Y-107339313D01*
X150422451Y-107360981D01*
X150352981Y-107368448D01*
X150327549Y-107360981D01*
X150300646Y-107349838D01*
X150275236Y-107339313D01*
X150261171Y-107337461D01*
X150162727Y-107324500D01*
X150162720Y-107324500D01*
X149937280Y-107324500D01*
X149937272Y-107324500D01*
X149824764Y-107339313D01*
X149824763Y-107339313D01*
X149772451Y-107360981D01*
X149702981Y-107368448D01*
X149677549Y-107360981D01*
X149650646Y-107349838D01*
X149625236Y-107339313D01*
X149611171Y-107337461D01*
X149512727Y-107324500D01*
X149512720Y-107324500D01*
X149287280Y-107324500D01*
X149287272Y-107324500D01*
X149174764Y-107339313D01*
X149174763Y-107339313D01*
X149122451Y-107360981D01*
X149052981Y-107368448D01*
X149027549Y-107360981D01*
X149000646Y-107349838D01*
X148975236Y-107339313D01*
X148961171Y-107337461D01*
X148862727Y-107324500D01*
X148862720Y-107324500D01*
X148637280Y-107324500D01*
X148637272Y-107324500D01*
X148524764Y-107339313D01*
X148524763Y-107339313D01*
X148472451Y-107360981D01*
X148402981Y-107368448D01*
X148377549Y-107360981D01*
X148350646Y-107349838D01*
X148325236Y-107339313D01*
X148318345Y-107338405D01*
X148254450Y-107310139D01*
X148215979Y-107251815D01*
X148211594Y-107231654D01*
X148210687Y-107224764D01*
X148189017Y-107172449D01*
X148181549Y-107102985D01*
X148189014Y-107077556D01*
X148210687Y-107025236D01*
X148225500Y-106912720D01*
X148225500Y-106687280D01*
X148210687Y-106574764D01*
X148189017Y-106522449D01*
X148181549Y-106452985D01*
X148189014Y-106427556D01*
X148210687Y-106375236D01*
X148225500Y-106262720D01*
X148225500Y-106037280D01*
X148210687Y-105924764D01*
X148189017Y-105872449D01*
X148181549Y-105802985D01*
X148189014Y-105777556D01*
X148210687Y-105725236D01*
X148225500Y-105612720D01*
X148225500Y-105387280D01*
X148210687Y-105274764D01*
X148189017Y-105222449D01*
X148181549Y-105152985D01*
X148189014Y-105127556D01*
X148210687Y-105075236D01*
X148225500Y-104962720D01*
X148225500Y-104737280D01*
X148210687Y-104624764D01*
X148189017Y-104572449D01*
X148181549Y-104502985D01*
X148189014Y-104477556D01*
X148210687Y-104425236D01*
X148225500Y-104312720D01*
X148225500Y-104087280D01*
X148210687Y-103974764D01*
X148189017Y-103922449D01*
X148181549Y-103852985D01*
X148189014Y-103827556D01*
X148210687Y-103775236D01*
X148211593Y-103768349D01*
X148239855Y-103704455D01*
X148298178Y-103665981D01*
X148318339Y-103661594D01*
X148325236Y-103660687D01*
X148377550Y-103639017D01*
X148447015Y-103631549D01*
X148472443Y-103639014D01*
X148524764Y-103660687D01*
X148637280Y-103675500D01*
X148637287Y-103675500D01*
X148862713Y-103675500D01*
X148862720Y-103675500D01*
X148975236Y-103660687D01*
X149027550Y-103639017D01*
X149097015Y-103631549D01*
X149122443Y-103639014D01*
X149174764Y-103660687D01*
X149287280Y-103675500D01*
X149287287Y-103675500D01*
X149512713Y-103675500D01*
X149512720Y-103675500D01*
X149625236Y-103660687D01*
X149677550Y-103639017D01*
X149747015Y-103631549D01*
X149772443Y-103639014D01*
X149824764Y-103660687D01*
X149937280Y-103675500D01*
X149937287Y-103675500D01*
X150162713Y-103675500D01*
X150162720Y-103675500D01*
X150275236Y-103660687D01*
X150327550Y-103639017D01*
X150397015Y-103631549D01*
X150422443Y-103639014D01*
X150474764Y-103660687D01*
X150587280Y-103675500D01*
X150587287Y-103675500D01*
X150812713Y-103675500D01*
X150812720Y-103675500D01*
X150925236Y-103660687D01*
X150977550Y-103639017D01*
X151047015Y-103631549D01*
X151072443Y-103639014D01*
X151124764Y-103660687D01*
X151237280Y-103675500D01*
X151237287Y-103675500D01*
X151462713Y-103675500D01*
X151462720Y-103675500D01*
X151575236Y-103660687D01*
X151627550Y-103639017D01*
X151697015Y-103631549D01*
X151722443Y-103639014D01*
G37*
G04 #@! TD.AperFunction*
G04 #@! TA.AperFunction,Conductor*
G36*
X169315913Y-91040399D02*
G01*
X169320734Y-91044969D01*
X169563181Y-91287416D01*
X169596666Y-91348739D01*
X169599500Y-91375097D01*
X169599500Y-91428846D01*
X169630261Y-91583489D01*
X169630264Y-91583501D01*
X169690602Y-91729172D01*
X169690609Y-91729185D01*
X169778210Y-91860288D01*
X169778213Y-91860292D01*
X169889707Y-91971786D01*
X169889711Y-91971789D01*
X170020814Y-92059390D01*
X170020827Y-92059397D01*
X170107197Y-92095172D01*
X170166503Y-92119737D01*
X170321153Y-92150499D01*
X170321156Y-92150500D01*
X170321158Y-92150500D01*
X170478844Y-92150500D01*
X170478845Y-92150499D01*
X170633497Y-92119737D01*
X170728048Y-92080572D01*
X170797517Y-92073104D01*
X170859996Y-92104379D01*
X170895648Y-92164468D01*
X170899500Y-92195134D01*
X170899500Y-97278650D01*
X170879815Y-97345689D01*
X170827011Y-97391444D01*
X170757853Y-97401388D01*
X170694297Y-97372363D01*
X170660939Y-97326103D01*
X170589526Y-97153698D01*
X170389740Y-96761597D01*
X170389737Y-96761590D01*
X170159828Y-96386415D01*
X170159821Y-96386404D01*
X169901173Y-96030405D01*
X169634905Y-95718646D01*
X165853554Y-99499999D01*
X165853554Y-99500000D01*
X169634905Y-103281352D01*
X169901173Y-102969594D01*
X170159821Y-102613595D01*
X170159828Y-102613584D01*
X170389737Y-102238409D01*
X170389740Y-102238402D01*
X170589526Y-101846301D01*
X170757927Y-101439745D01*
X170893903Y-101021250D01*
X170893910Y-101021227D01*
X170996636Y-100593344D01*
X171060766Y-100188439D01*
X171090695Y-100125304D01*
X171150006Y-100088372D01*
X171219869Y-100089370D01*
X171270920Y-100120155D01*
X172863181Y-101712416D01*
X172896666Y-101773739D01*
X172899500Y-101800097D01*
X172899500Y-104250903D01*
X172879815Y-104317942D01*
X172827011Y-104363697D01*
X172757853Y-104373641D01*
X172694297Y-104344616D01*
X172687819Y-104338584D01*
X171834574Y-103485339D01*
X171801089Y-103424016D01*
X171800638Y-103421849D01*
X171781326Y-103324764D01*
X171769737Y-103266503D01*
X171735881Y-103184767D01*
X171709397Y-103120827D01*
X171709390Y-103120814D01*
X171621789Y-102989711D01*
X171621786Y-102989707D01*
X171510292Y-102878213D01*
X171510288Y-102878210D01*
X171379185Y-102790609D01*
X171379172Y-102790602D01*
X171233501Y-102730264D01*
X171233489Y-102730261D01*
X171078845Y-102699500D01*
X171078842Y-102699500D01*
X170921158Y-102699500D01*
X170921155Y-102699500D01*
X170766510Y-102730261D01*
X170766498Y-102730264D01*
X170620827Y-102790602D01*
X170620814Y-102790609D01*
X170489711Y-102878210D01*
X170489707Y-102878213D01*
X170378213Y-102989707D01*
X170378210Y-102989711D01*
X170290609Y-103120814D01*
X170290602Y-103120827D01*
X170230264Y-103266498D01*
X170230261Y-103266510D01*
X170199500Y-103421153D01*
X170199500Y-103578846D01*
X170230261Y-103733489D01*
X170230264Y-103733501D01*
X170290602Y-103879172D01*
X170290609Y-103879185D01*
X170378210Y-104010288D01*
X170378213Y-104010292D01*
X170489707Y-104121786D01*
X170489711Y-104121789D01*
X170620814Y-104209390D01*
X170620827Y-104209397D01*
X170758695Y-104266503D01*
X170766503Y-104269737D01*
X170831147Y-104282595D01*
X170921849Y-104300638D01*
X170983760Y-104333023D01*
X170985339Y-104334574D01*
X171726448Y-105075683D01*
X171759933Y-105137006D01*
X171754949Y-105206698D01*
X171753329Y-105210814D01*
X171730263Y-105266502D01*
X171730260Y-105266511D01*
X171699500Y-105421153D01*
X171699500Y-105578846D01*
X171730261Y-105733489D01*
X171730264Y-105733501D01*
X171790137Y-105878048D01*
X171797606Y-105947517D01*
X171766331Y-106009996D01*
X171706241Y-106045648D01*
X171675576Y-106049500D01*
X170386670Y-106049500D01*
X170386654Y-106049499D01*
X170379058Y-106049499D01*
X170220943Y-106049499D01*
X170144579Y-106069961D01*
X170068214Y-106090423D01*
X170068209Y-106090426D01*
X169931290Y-106169475D01*
X169931282Y-106169481D01*
X169612582Y-106488181D01*
X169551259Y-106521666D01*
X169524901Y-106524500D01*
X169176662Y-106524500D01*
X169176644Y-106524501D01*
X169077292Y-106534650D01*
X169077289Y-106534651D01*
X168916305Y-106587996D01*
X168916294Y-106588001D01*
X168771959Y-106677029D01*
X168771955Y-106677032D01*
X168668573Y-106780413D01*
X168607250Y-106813897D01*
X168537558Y-106808912D01*
X168511999Y-106795831D01*
X168504183Y-106790608D01*
X168504172Y-106790602D01*
X168358501Y-106730264D01*
X168358489Y-106730261D01*
X168203845Y-106699500D01*
X168203842Y-106699500D01*
X168046158Y-106699500D01*
X168046155Y-106699500D01*
X167891510Y-106730261D01*
X167891503Y-106730263D01*
X167821950Y-106759072D01*
X167752481Y-106766539D01*
X167690002Y-106735264D01*
X167654350Y-106675174D01*
X167650499Y-106644510D01*
X167650499Y-105602129D01*
X167650498Y-105602123D01*
X167647300Y-105572375D01*
X167644091Y-105542517D01*
X167633883Y-105515149D01*
X167593797Y-105407671D01*
X167593793Y-105407664D01*
X167507547Y-105292455D01*
X167507544Y-105292452D01*
X167392335Y-105206206D01*
X167392328Y-105206202D01*
X167257482Y-105155908D01*
X167257483Y-105155908D01*
X167197883Y-105149501D01*
X167197881Y-105149500D01*
X167197873Y-105149500D01*
X167197865Y-105149500D01*
X167004290Y-105149500D01*
X166937251Y-105129815D01*
X166891496Y-105077011D01*
X166881552Y-105007853D01*
X166910577Y-104944297D01*
X166969355Y-104906523D01*
X166975343Y-104904926D01*
X167021227Y-104893910D01*
X167021250Y-104893903D01*
X167439745Y-104757927D01*
X167846301Y-104589526D01*
X168238402Y-104389740D01*
X168238409Y-104389737D01*
X168613584Y-104159828D01*
X168613595Y-104159821D01*
X168969594Y-103901173D01*
X169281352Y-103634905D01*
X165410904Y-99764457D01*
X165377419Y-99703134D01*
X165382403Y-99633442D01*
X165410904Y-99589094D01*
X165499999Y-99499999D01*
X165410904Y-99410904D01*
X165377419Y-99349581D01*
X165382403Y-99279889D01*
X165410904Y-99235542D01*
X169281352Y-95365093D01*
X168969607Y-95098836D01*
X168969593Y-95098826D01*
X168613595Y-94840178D01*
X168613584Y-94840171D01*
X168238409Y-94610262D01*
X168238402Y-94610259D01*
X167846301Y-94410473D01*
X167439745Y-94242072D01*
X167021250Y-94106096D01*
X167021232Y-94106091D01*
X166975339Y-94095073D01*
X166914748Y-94060282D01*
X166882584Y-93998256D01*
X166889060Y-93928687D01*
X166932120Y-93873663D01*
X166998092Y-93850654D01*
X167004284Y-93850499D01*
X167197872Y-93850499D01*
X167257483Y-93844091D01*
X167392331Y-93793796D01*
X167507546Y-93707546D01*
X167593796Y-93592331D01*
X167644091Y-93457483D01*
X167650500Y-93397873D01*
X167650499Y-91143952D01*
X167670184Y-91076914D01*
X167722987Y-91031159D01*
X167792146Y-91021215D01*
X167855702Y-91050240D01*
X167874291Y-91071312D01*
X167874347Y-91071267D01*
X167875618Y-91072816D01*
X167877604Y-91075067D01*
X167878210Y-91075974D01*
X167878213Y-91075978D01*
X167989707Y-91187472D01*
X167989711Y-91187475D01*
X168120814Y-91275076D01*
X168120827Y-91275083D01*
X168238285Y-91323735D01*
X168266503Y-91335423D01*
X168421153Y-91366185D01*
X168421156Y-91366186D01*
X168421158Y-91366186D01*
X168578844Y-91366186D01*
X168578845Y-91366185D01*
X168733497Y-91335423D01*
X168879179Y-91275080D01*
X169010289Y-91187475D01*
X169121789Y-91075975D01*
X169129949Y-91063763D01*
X169183559Y-91018956D01*
X169252884Y-91010246D01*
X169315913Y-91040399D01*
G37*
G04 #@! TD.AperFunction*
G04 #@! TA.AperFunction,Conductor*
G36*
X158556778Y-80520185D02*
G01*
X158602533Y-80572989D01*
X158612477Y-80642147D01*
X158600223Y-80676957D01*
X158601353Y-80677446D01*
X158598254Y-80684606D01*
X158552402Y-80842426D01*
X158552401Y-80842432D01*
X158549500Y-80879298D01*
X158549500Y-81310701D01*
X158552401Y-81347567D01*
X158552402Y-81347573D01*
X158569350Y-81405905D01*
X158569151Y-81475774D01*
X158531209Y-81534444D01*
X158467571Y-81563288D01*
X158450274Y-81564500D01*
X158421155Y-81564500D01*
X158266510Y-81595261D01*
X158266498Y-81595264D01*
X158120827Y-81655602D01*
X158120814Y-81655609D01*
X157989711Y-81743210D01*
X157989707Y-81743213D01*
X157878213Y-81854707D01*
X157878210Y-81854711D01*
X157790609Y-81985814D01*
X157790602Y-81985827D01*
X157730264Y-82131498D01*
X157730261Y-82131507D01*
X157716622Y-82200075D01*
X157684236Y-82261985D01*
X157623520Y-82296559D01*
X157578821Y-82298821D01*
X157470036Y-82284500D01*
X155549962Y-82284500D01*
X155433551Y-82299824D01*
X155433539Y-82299828D01*
X155288681Y-82359829D01*
X155288678Y-82359831D01*
X155164284Y-82455284D01*
X155068831Y-82579678D01*
X155068829Y-82579681D01*
X155008828Y-82724539D01*
X155008826Y-82724544D01*
X154993500Y-82840964D01*
X154993500Y-83679037D01*
X155008824Y-83795448D01*
X155008828Y-83795460D01*
X155068829Y-83940318D01*
X155068831Y-83940321D01*
X155115166Y-84000704D01*
X155164284Y-84064716D01*
X155244218Y-84126052D01*
X155288678Y-84160168D01*
X155288681Y-84160170D01*
X155374233Y-84195606D01*
X155433543Y-84220173D01*
X155549965Y-84235500D01*
X157470034Y-84235499D01*
X157470037Y-84235499D01*
X157586448Y-84220175D01*
X157586452Y-84220173D01*
X157586457Y-84220173D01*
X157731320Y-84160169D01*
X157855716Y-84064716D01*
X157951169Y-83940320D01*
X158011173Y-83795457D01*
X158026500Y-83679035D01*
X158026499Y-83220901D01*
X158046183Y-83153864D01*
X158098987Y-83108109D01*
X158168146Y-83098165D01*
X158197948Y-83106341D01*
X158266503Y-83134737D01*
X158421153Y-83165499D01*
X158421156Y-83165500D01*
X158450274Y-83165500D01*
X158517313Y-83185185D01*
X158563068Y-83237989D01*
X158573012Y-83307147D01*
X158569350Y-83324095D01*
X158552402Y-83382426D01*
X158552401Y-83382432D01*
X158549500Y-83419298D01*
X158549500Y-83850701D01*
X158552401Y-83887567D01*
X158552402Y-83887573D01*
X158598254Y-84045393D01*
X158598255Y-84045396D01*
X158598256Y-84045398D01*
X158618035Y-84078842D01*
X158681917Y-84186862D01*
X158686702Y-84193031D01*
X158684256Y-84194927D01*
X158710857Y-84243642D01*
X158705873Y-84313334D01*
X158685069Y-84345703D01*
X158686702Y-84346969D01*
X158681917Y-84353137D01*
X158598255Y-84494603D01*
X158598254Y-84494606D01*
X158552402Y-84652426D01*
X158552401Y-84652432D01*
X158549500Y-84689298D01*
X158549500Y-85120701D01*
X158552401Y-85157567D01*
X158552402Y-85157573D01*
X158598254Y-85315393D01*
X158598255Y-85315396D01*
X158598256Y-85315398D01*
X158635681Y-85378681D01*
X158681917Y-85456862D01*
X158681923Y-85456870D01*
X158798129Y-85573076D01*
X158798133Y-85573079D01*
X158798135Y-85573081D01*
X158939602Y-85656744D01*
X159046126Y-85687692D01*
X159105010Y-85725298D01*
X159134217Y-85788770D01*
X159124471Y-85857957D01*
X159107391Y-85885424D01*
X159103871Y-85889713D01*
X159016270Y-86020818D01*
X159016266Y-86020824D01*
X159000643Y-86058542D01*
X158973764Y-86098768D01*
X157720173Y-87352360D01*
X157658850Y-87385845D01*
X157594492Y-87381242D01*
X157594308Y-87381931D01*
X157590735Y-87380973D01*
X157589158Y-87380861D01*
X157586690Y-87379889D01*
X157586455Y-87379826D01*
X157470035Y-87364500D01*
X155549962Y-87364500D01*
X155433551Y-87379824D01*
X155433539Y-87379828D01*
X155288681Y-87439829D01*
X155288678Y-87439831D01*
X155164284Y-87535284D01*
X155068831Y-87659678D01*
X155068829Y-87659681D01*
X155008828Y-87804539D01*
X155008826Y-87804544D01*
X154993500Y-87920964D01*
X154993500Y-88105901D01*
X154973815Y-88172940D01*
X154957181Y-88193582D01*
X153924315Y-89226448D01*
X153862992Y-89259933D01*
X153793300Y-89254949D01*
X153789182Y-89253328D01*
X153733501Y-89230264D01*
X153733489Y-89230261D01*
X153578845Y-89199500D01*
X153578842Y-89199500D01*
X153421158Y-89199500D01*
X153421155Y-89199500D01*
X153266510Y-89230261D01*
X153266498Y-89230264D01*
X153120827Y-89290602D01*
X153120814Y-89290609D01*
X152989711Y-89378210D01*
X152989707Y-89378213D01*
X152878213Y-89489707D01*
X152878210Y-89489711D01*
X152790609Y-89620814D01*
X152790602Y-89620827D01*
X152730264Y-89766498D01*
X152730261Y-89766510D01*
X152699500Y-89921153D01*
X152699500Y-90078846D01*
X152730261Y-90233489D01*
X152730264Y-90233501D01*
X152790602Y-90379172D01*
X152790609Y-90379185D01*
X152878210Y-90510288D01*
X152878213Y-90510292D01*
X152989707Y-90621786D01*
X152989711Y-90621789D01*
X153120814Y-90709390D01*
X153120827Y-90709397D01*
X153266498Y-90769735D01*
X153266503Y-90769737D01*
X153385057Y-90793319D01*
X153421153Y-90800499D01*
X153421156Y-90800500D01*
X153575500Y-90800500D01*
X153642539Y-90820185D01*
X153688294Y-90872989D01*
X153699500Y-90924500D01*
X153699500Y-91078846D01*
X153730261Y-91233489D01*
X153730264Y-91233501D01*
X153790602Y-91379172D01*
X153790609Y-91379185D01*
X153878210Y-91510288D01*
X153878213Y-91510292D01*
X153989707Y-91621786D01*
X153989711Y-91621789D01*
X154120814Y-91709390D01*
X154120827Y-91709397D01*
X154258683Y-91766498D01*
X154266503Y-91769737D01*
X154421153Y-91800499D01*
X154421156Y-91800500D01*
X154421158Y-91800500D01*
X154578844Y-91800500D01*
X154578845Y-91800499D01*
X154733497Y-91769737D01*
X154879179Y-91709394D01*
X154983603Y-91639619D01*
X155050280Y-91618742D01*
X155117660Y-91637226D01*
X155150869Y-91667234D01*
X155164283Y-91684715D01*
X155288678Y-91780168D01*
X155288681Y-91780170D01*
X155380028Y-91818006D01*
X155433543Y-91840173D01*
X155549965Y-91855500D01*
X155669500Y-91855499D01*
X155736539Y-91875183D01*
X155782294Y-91927987D01*
X155793500Y-91979499D01*
X155793500Y-92320500D01*
X155773815Y-92387539D01*
X155721011Y-92433294D01*
X155669501Y-92444500D01*
X155549963Y-92444500D01*
X155433551Y-92459824D01*
X155433539Y-92459828D01*
X155288681Y-92519829D01*
X155288678Y-92519831D01*
X155164284Y-92615284D01*
X155068831Y-92739678D01*
X155068829Y-92739681D01*
X155008828Y-92884539D01*
X155008826Y-92884544D01*
X154993500Y-93000964D01*
X154993500Y-93839037D01*
X155008824Y-93955448D01*
X155008828Y-93955460D01*
X155068829Y-94100318D01*
X155068831Y-94100321D01*
X155091463Y-94129815D01*
X155164284Y-94224716D01*
X155224558Y-94270966D01*
X155288678Y-94320168D01*
X155288681Y-94320170D01*
X155380028Y-94358006D01*
X155433543Y-94380173D01*
X155549965Y-94395500D01*
X155669500Y-94395499D01*
X155736539Y-94415183D01*
X155782294Y-94467987D01*
X155793500Y-94519499D01*
X155793500Y-94860500D01*
X155773815Y-94927539D01*
X155721011Y-94973294D01*
X155669501Y-94984500D01*
X155549963Y-94984500D01*
X155433551Y-94999824D01*
X155433539Y-94999828D01*
X155288681Y-95059829D01*
X155288678Y-95059831D01*
X155164284Y-95155284D01*
X155068831Y-95279678D01*
X155068831Y-95279679D01*
X155067474Y-95282956D01*
X155065589Y-95285294D01*
X155064767Y-95286719D01*
X155064544Y-95286590D01*
X155023631Y-95337358D01*
X154957336Y-95359421D01*
X154952914Y-95359500D01*
X151119057Y-95359500D01*
X150960942Y-95359500D01*
X150808215Y-95400423D01*
X150808214Y-95400423D01*
X150808212Y-95400424D01*
X150808209Y-95400425D01*
X150758096Y-95429359D01*
X150758095Y-95429360D01*
X150714689Y-95454420D01*
X150671285Y-95479479D01*
X150671282Y-95479481D01*
X150609802Y-95540962D01*
X150559480Y-95591284D01*
X150559478Y-95591286D01*
X150515481Y-95635283D01*
X150485337Y-95665427D01*
X150424013Y-95698911D01*
X150421847Y-95699362D01*
X150380578Y-95707571D01*
X150311038Y-95701348D01*
X150310611Y-95701776D01*
X150270385Y-95728654D01*
X150120824Y-95790604D01*
X150120814Y-95790609D01*
X149989711Y-95878210D01*
X149989707Y-95878213D01*
X149878213Y-95989707D01*
X149878210Y-95989711D01*
X149790609Y-96120814D01*
X149790604Y-96120824D01*
X149728655Y-96270383D01*
X149701775Y-96310611D01*
X149472693Y-96539694D01*
X149411370Y-96573179D01*
X149341679Y-96568195D01*
X149285745Y-96526324D01*
X149261328Y-96460859D01*
X149261012Y-96452013D01*
X149261012Y-96095632D01*
X149280697Y-96028593D01*
X149297331Y-96007951D01*
X150271223Y-95034058D01*
X150265291Y-95013636D01*
X150265290Y-95013635D01*
X150186836Y-94880978D01*
X150186832Y-94880972D01*
X150077862Y-94772002D01*
X150077853Y-94771995D01*
X150016533Y-94735731D01*
X149968850Y-94684662D01*
X149956346Y-94615920D01*
X149982991Y-94551331D01*
X150040327Y-94511401D01*
X150079654Y-94504999D01*
X150579971Y-94504999D01*
X150579987Y-94504998D01*
X150682696Y-94494505D01*
X150745229Y-94473783D01*
X150745230Y-94473783D01*
X149380000Y-93108553D01*
X148021929Y-94466622D01*
X148092121Y-94496019D01*
X148180021Y-94504999D01*
X148442368Y-94504999D01*
X148509407Y-94524683D01*
X148555162Y-94577487D01*
X148565106Y-94646646D01*
X148536081Y-94710201D01*
X148505490Y-94735730D01*
X148444172Y-94771993D01*
X148444165Y-94771999D01*
X148349046Y-94867118D01*
X148287722Y-94900602D01*
X148218031Y-94895618D01*
X148173684Y-94867117D01*
X148078171Y-94771604D01*
X148078162Y-94771597D01*
X148005431Y-94728584D01*
X148005427Y-94728582D01*
X147945398Y-94693081D01*
X147864620Y-94669612D01*
X147864611Y-94669609D01*
X147797272Y-94650046D01*
X147762669Y-94647323D01*
X147762662Y-94647323D01*
X146759362Y-94647323D01*
X146759354Y-94647323D01*
X146724751Y-94650046D01*
X146724745Y-94650047D01*
X146576630Y-94693079D01*
X146576627Y-94693080D01*
X146443861Y-94771597D01*
X146443852Y-94771604D01*
X146334793Y-94880663D01*
X146334786Y-94880672D01*
X146256269Y-95013438D01*
X146256268Y-95013441D01*
X146213236Y-95161556D01*
X146213236Y-95161559D01*
X146210512Y-95196165D01*
X146210512Y-97599480D01*
X146213235Y-97634083D01*
X146213236Y-97634089D01*
X146256268Y-97782204D01*
X146256269Y-97782207D01*
X146334786Y-97914973D01*
X146334793Y-97914982D01*
X146443852Y-98024041D01*
X146443856Y-98024044D01*
X146443858Y-98024046D01*
X146566515Y-98096585D01*
X146614198Y-98147654D01*
X146626702Y-98216396D01*
X146606496Y-98272207D01*
X146540612Y-98370809D01*
X146540602Y-98370827D01*
X146480264Y-98516498D01*
X146480261Y-98516508D01*
X146449361Y-98671850D01*
X146416976Y-98733761D01*
X146415425Y-98735339D01*
X145119481Y-100031282D01*
X145119480Y-100031284D01*
X145086521Y-100088372D01*
X145069361Y-100118094D01*
X145069359Y-100118096D01*
X145040425Y-100168209D01*
X145040424Y-100168210D01*
X145040423Y-100168215D01*
X144999499Y-100320943D01*
X144999499Y-100320945D01*
X144999499Y-100489046D01*
X144999500Y-100489059D01*
X144999500Y-103576000D01*
X144979815Y-103643039D01*
X144927011Y-103688794D01*
X144875500Y-103700000D01*
X144750000Y-103700000D01*
X144750000Y-104376000D01*
X144730315Y-104443039D01*
X144677511Y-104488794D01*
X144626000Y-104500000D01*
X144500000Y-104500000D01*
X144500000Y-104575500D01*
X144480315Y-104642539D01*
X144427511Y-104688294D01*
X144376000Y-104699500D01*
X143809298Y-104699500D01*
X143772432Y-104702401D01*
X143772426Y-104702402D01*
X143625545Y-104745076D01*
X143590950Y-104750000D01*
X143227705Y-104750000D01*
X143227704Y-104750001D01*
X143227899Y-104752486D01*
X143253322Y-104839992D01*
X143253122Y-104909862D01*
X143215180Y-104968532D01*
X143196245Y-104981974D01*
X143131287Y-105019477D01*
X142985337Y-105165427D01*
X142924014Y-105198911D01*
X142921848Y-105199362D01*
X142766508Y-105230261D01*
X142760676Y-105232031D01*
X142759873Y-105229385D01*
X142702056Y-105235396D01*
X142639687Y-105203902D01*
X142604245Y-105143689D01*
X142600500Y-105113444D01*
X142600500Y-104800096D01*
X142620185Y-104733057D01*
X142636814Y-104712420D01*
X143074802Y-104274432D01*
X143136122Y-104240949D01*
X143205813Y-104245933D01*
X143211876Y-104250000D01*
X144250000Y-104250000D01*
X144250000Y-103700000D01*
X143948598Y-103700000D01*
X143881559Y-103680315D01*
X143835804Y-103627511D01*
X143825860Y-103558353D01*
X143854885Y-103494797D01*
X143860917Y-103488319D01*
X143911956Y-103437280D01*
X143980520Y-103368716D01*
X144059577Y-103231784D01*
X144089534Y-103119981D01*
X144100500Y-103079058D01*
X144100500Y-102920943D01*
X144100500Y-95800096D01*
X144120185Y-95733057D01*
X144136814Y-95712420D01*
X145958506Y-93890727D01*
X145958511Y-93890724D01*
X145968714Y-93880520D01*
X145968716Y-93880520D01*
X146080520Y-93768716D01*
X146159577Y-93631784D01*
X146200500Y-93479057D01*
X146200500Y-91182328D01*
X146220185Y-91115289D01*
X146272989Y-91069534D01*
X146342147Y-91059590D01*
X146380793Y-91071842D01*
X146466588Y-91115557D01*
X146668757Y-91181246D01*
X146878713Y-91214500D01*
X146878714Y-91214500D01*
X147091286Y-91214500D01*
X147091287Y-91214500D01*
X147301243Y-91181246D01*
X147482225Y-91122440D01*
X147552062Y-91120446D01*
X147611895Y-91156526D01*
X147642724Y-91219227D01*
X147634760Y-91288641D01*
X147626079Y-91305469D01*
X147545643Y-91435875D01*
X147545641Y-91435880D01*
X147490494Y-91602302D01*
X147490493Y-91602309D01*
X147480000Y-91705013D01*
X147480000Y-93804971D01*
X147480001Y-93804987D01*
X147490494Y-93907697D01*
X147545641Y-94074119D01*
X147545643Y-94074124D01*
X147607323Y-94174122D01*
X149026447Y-92755000D01*
X149026448Y-92754999D01*
X149733553Y-92754999D01*
X149733553Y-92755001D01*
X151152674Y-94174122D01*
X151152676Y-94174122D01*
X151214356Y-94074125D01*
X151269505Y-93907697D01*
X151269506Y-93907690D01*
X151279999Y-93804986D01*
X151279999Y-91705028D01*
X151279998Y-91705012D01*
X151269505Y-91602302D01*
X151214358Y-91435880D01*
X151214356Y-91435875D01*
X151152676Y-91335876D01*
X151152674Y-91335876D01*
X149733553Y-92754999D01*
X149026448Y-92754999D01*
X149165490Y-92615957D01*
X150745230Y-91036216D01*
X150682697Y-91015494D01*
X150682690Y-91015493D01*
X150580009Y-91005003D01*
X150515318Y-90978607D01*
X150475166Y-90921426D01*
X150472303Y-90851615D01*
X150504930Y-90793965D01*
X150555104Y-90743792D01*
X150555106Y-90743788D01*
X150555109Y-90743786D01*
X150680048Y-90571820D01*
X150680047Y-90571820D01*
X150680051Y-90571816D01*
X150776557Y-90382412D01*
X150842246Y-90180243D01*
X150875500Y-89970287D01*
X150875500Y-89757713D01*
X150842246Y-89547757D01*
X150776557Y-89345588D01*
X150680051Y-89156184D01*
X150680049Y-89156181D01*
X150680048Y-89156179D01*
X150555109Y-88984213D01*
X150404786Y-88833890D01*
X150232820Y-88708951D01*
X150232115Y-88708591D01*
X150224054Y-88704485D01*
X150173259Y-88656512D01*
X150156463Y-88588692D01*
X150178999Y-88522556D01*
X150224054Y-88483515D01*
X150232816Y-88479051D01*
X150256205Y-88462058D01*
X150404786Y-88354109D01*
X150404788Y-88354106D01*
X150404792Y-88354104D01*
X150555104Y-88203792D01*
X150555106Y-88203788D01*
X150555109Y-88203786D01*
X150680048Y-88031820D01*
X150680047Y-88031820D01*
X150680051Y-88031816D01*
X150776557Y-87842412D01*
X150842246Y-87640243D01*
X150875500Y-87430287D01*
X150875500Y-87217713D01*
X150842246Y-87007757D01*
X150776557Y-86805588D01*
X150760971Y-86774998D01*
X155888552Y-86774998D01*
X155888553Y-86774999D01*
X157131446Y-86774999D01*
X157131446Y-86774998D01*
X156510001Y-86153553D01*
X156510000Y-86153553D01*
X155888552Y-86774998D01*
X150760971Y-86774998D01*
X150680051Y-86616184D01*
X150680049Y-86616181D01*
X150680048Y-86616179D01*
X150555109Y-86444213D01*
X150404786Y-86293890D01*
X150232817Y-86168949D01*
X150223504Y-86164204D01*
X150172707Y-86116230D01*
X150155912Y-86048409D01*
X150178449Y-85982274D01*
X150223507Y-85943232D01*
X150232555Y-85938622D01*
X150286716Y-85899270D01*
X150286717Y-85899270D01*
X149525000Y-85137554D01*
X148763282Y-85899269D01*
X148763282Y-85899270D01*
X148817452Y-85938626D01*
X148817451Y-85938626D01*
X148826495Y-85943234D01*
X148877292Y-85991208D01*
X148894087Y-86059029D01*
X148871550Y-86125164D01*
X148826499Y-86164202D01*
X148817182Y-86168949D01*
X148645213Y-86293890D01*
X148494890Y-86444213D01*
X148369949Y-86616182D01*
X148365484Y-86624946D01*
X148317509Y-86675742D01*
X148249688Y-86692536D01*
X148183553Y-86669998D01*
X148144516Y-86624946D01*
X148140050Y-86616182D01*
X148015109Y-86444213D01*
X147864786Y-86293890D01*
X147692820Y-86168951D01*
X147688015Y-86166503D01*
X147684054Y-86164485D01*
X147633259Y-86116512D01*
X147616463Y-86048692D01*
X147638999Y-85982556D01*
X147684054Y-85943515D01*
X147692816Y-85939051D01*
X147748780Y-85898391D01*
X147864786Y-85814109D01*
X147864788Y-85814106D01*
X147864792Y-85814104D01*
X148015104Y-85663792D01*
X148015106Y-85663788D01*
X148015109Y-85663786D01*
X148100890Y-85545717D01*
X148140051Y-85491816D01*
X148144793Y-85482508D01*
X148192763Y-85431711D01*
X148260583Y-85414911D01*
X148326719Y-85437445D01*
X148365763Y-85482500D01*
X148370373Y-85491547D01*
X148409728Y-85545716D01*
X149171446Y-84784000D01*
X149171445Y-84783999D01*
X149878554Y-84783999D01*
X149878554Y-84784000D01*
X150640270Y-85545717D01*
X150640270Y-85545716D01*
X150679622Y-85491554D01*
X150735956Y-85380995D01*
X154994000Y-85380995D01*
X154994000Y-86218998D01*
X155009313Y-86335318D01*
X155009315Y-86335326D01*
X155069268Y-86480066D01*
X155164641Y-86604358D01*
X155270703Y-86685742D01*
X155298223Y-86658223D01*
X156156447Y-85800000D01*
X156156446Y-85799999D01*
X156863553Y-85799999D01*
X156863553Y-85800000D01*
X157749295Y-86685743D01*
X157855358Y-86604358D01*
X157950731Y-86480066D01*
X158010684Y-86335326D01*
X158010684Y-86335325D01*
X158025999Y-86219004D01*
X158025999Y-85381001D01*
X158010686Y-85264681D01*
X158010684Y-85264673D01*
X157950731Y-85119933D01*
X157855360Y-84995642D01*
X157749295Y-84914256D01*
X156863553Y-85799999D01*
X156156446Y-85799999D01*
X155270702Y-84914255D01*
X155164643Y-84995638D01*
X155069268Y-85119933D01*
X155009315Y-85264673D01*
X155009315Y-85264674D01*
X154994000Y-85380995D01*
X150735956Y-85380995D01*
X150766704Y-85320649D01*
X150776095Y-85302217D01*
X150841757Y-85100130D01*
X150841757Y-85100127D01*
X150875000Y-84890246D01*
X150875000Y-84825000D01*
X155888552Y-84825000D01*
X156510000Y-85446447D01*
X156510001Y-85446447D01*
X157131446Y-84825000D01*
X155888552Y-84825000D01*
X150875000Y-84825000D01*
X150875000Y-84677753D01*
X150841757Y-84467872D01*
X150841757Y-84467869D01*
X150776095Y-84265782D01*
X150679624Y-84076449D01*
X150640270Y-84022282D01*
X150640269Y-84022282D01*
X149878554Y-84783999D01*
X149171445Y-84783999D01*
X148409728Y-84022282D01*
X148409727Y-84022282D01*
X148370380Y-84076440D01*
X148370376Y-84076446D01*
X148365760Y-84085505D01*
X148317781Y-84136297D01*
X148249959Y-84153087D01*
X148183826Y-84130543D01*
X148144794Y-84085493D01*
X148140051Y-84076184D01*
X148140049Y-84076181D01*
X148140048Y-84076179D01*
X148015109Y-83904213D01*
X147864786Y-83753890D01*
X147692820Y-83628951D01*
X147684600Y-83624763D01*
X147684054Y-83624485D01*
X147633259Y-83576512D01*
X147616463Y-83508692D01*
X147638999Y-83442556D01*
X147684054Y-83403515D01*
X147692816Y-83399051D01*
X147795985Y-83324095D01*
X147864786Y-83274109D01*
X147864788Y-83274106D01*
X147864792Y-83274104D01*
X148015104Y-83123792D01*
X148015106Y-83123788D01*
X148015109Y-83123786D01*
X148140048Y-82951820D01*
X148140047Y-82951820D01*
X148140051Y-82951816D01*
X148144514Y-82943054D01*
X148192488Y-82892259D01*
X148260308Y-82875463D01*
X148326444Y-82897999D01*
X148365486Y-82943056D01*
X148369951Y-82951820D01*
X148494890Y-83123786D01*
X148645213Y-83274109D01*
X148817179Y-83399048D01*
X148817181Y-83399049D01*
X148817184Y-83399051D01*
X148826493Y-83403794D01*
X148877290Y-83451766D01*
X148894087Y-83519587D01*
X148871552Y-83585722D01*
X148826505Y-83624760D01*
X148817446Y-83629376D01*
X148817440Y-83629380D01*
X148763282Y-83668727D01*
X148763282Y-83668728D01*
X149525000Y-84430446D01*
X149525001Y-84430446D01*
X150286716Y-83668728D01*
X150232547Y-83629373D01*
X150232547Y-83629372D01*
X150223500Y-83624763D01*
X150172706Y-83576788D01*
X150155912Y-83508966D01*
X150178451Y-83442832D01*
X150223508Y-83403793D01*
X150232816Y-83399051D01*
X150359312Y-83307147D01*
X150404786Y-83274109D01*
X150404788Y-83274106D01*
X150404792Y-83274104D01*
X150555104Y-83123792D01*
X150555106Y-83123788D01*
X150555109Y-83123786D01*
X150680048Y-82951820D01*
X150680047Y-82951820D01*
X150680051Y-82951816D01*
X150776557Y-82762412D01*
X150842246Y-82560243D01*
X150875500Y-82350287D01*
X150875500Y-82137713D01*
X150842246Y-81927757D01*
X150776557Y-81725588D01*
X150680051Y-81536184D01*
X150680049Y-81536181D01*
X150680048Y-81536179D01*
X150555109Y-81364213D01*
X150404786Y-81213890D01*
X150232820Y-81088951D01*
X150043414Y-80992444D01*
X150043413Y-80992443D01*
X150043412Y-80992443D01*
X149841243Y-80926754D01*
X149841241Y-80926753D01*
X149841240Y-80926753D01*
X149679957Y-80901208D01*
X149631287Y-80893500D01*
X149418713Y-80893500D01*
X149370042Y-80901208D01*
X149208760Y-80926753D01*
X149006585Y-80992444D01*
X148817179Y-81088951D01*
X148645213Y-81213890D01*
X148494890Y-81364213D01*
X148369949Y-81536182D01*
X148365484Y-81544946D01*
X148317509Y-81595742D01*
X148249688Y-81612536D01*
X148183553Y-81589998D01*
X148144516Y-81544946D01*
X148140050Y-81536182D01*
X148015109Y-81364213D01*
X147864786Y-81213890D01*
X147692820Y-81088951D01*
X147503414Y-80992444D01*
X147503413Y-80992443D01*
X147503412Y-80992443D01*
X147301243Y-80926754D01*
X147301241Y-80926753D01*
X147301240Y-80926753D01*
X147139957Y-80901208D01*
X147091287Y-80893500D01*
X146878713Y-80893500D01*
X146830042Y-80901208D01*
X146668760Y-80926753D01*
X146466585Y-80992444D01*
X146277179Y-81088951D01*
X146105213Y-81213890D01*
X145954890Y-81364213D01*
X145829951Y-81536179D01*
X145733444Y-81725585D01*
X145667753Y-81927760D01*
X145638505Y-82112426D01*
X145634500Y-82137713D01*
X145634500Y-82350287D01*
X145667754Y-82560243D01*
X145721137Y-82724539D01*
X145733444Y-82762414D01*
X145829951Y-82951820D01*
X145954890Y-83123786D01*
X146105213Y-83274109D01*
X146277182Y-83399050D01*
X146285946Y-83403516D01*
X146336742Y-83451491D01*
X146353536Y-83519312D01*
X146330998Y-83585447D01*
X146285946Y-83624484D01*
X146277182Y-83628949D01*
X146105213Y-83753890D01*
X145954890Y-83904213D01*
X145829951Y-84076179D01*
X145733444Y-84265585D01*
X145667753Y-84467760D01*
X145634500Y-84677713D01*
X145634500Y-84890286D01*
X145667735Y-85100127D01*
X145667754Y-85100243D01*
X145727516Y-85284172D01*
X145733444Y-85302414D01*
X145829951Y-85491820D01*
X145954890Y-85663786D01*
X146105213Y-85814109D01*
X146277182Y-85939050D01*
X146285946Y-85943516D01*
X146336742Y-85991491D01*
X146353536Y-86059312D01*
X146330998Y-86125447D01*
X146285946Y-86164484D01*
X146277182Y-86168949D01*
X146105213Y-86293890D01*
X145954890Y-86444213D01*
X145829951Y-86616179D01*
X145733444Y-86805585D01*
X145667753Y-87007760D01*
X145634500Y-87217713D01*
X145634500Y-87430286D01*
X145664614Y-87620423D01*
X145667754Y-87640243D01*
X145725626Y-87818355D01*
X145733444Y-87842414D01*
X145829951Y-88031820D01*
X145954890Y-88203786D01*
X146105213Y-88354109D01*
X146277182Y-88479050D01*
X146285946Y-88483516D01*
X146336742Y-88531491D01*
X146353536Y-88599312D01*
X146330998Y-88665447D01*
X146285946Y-88704484D01*
X146277182Y-88708949D01*
X146105213Y-88833890D01*
X145954890Y-88984213D01*
X145829951Y-89156179D01*
X145733444Y-89345585D01*
X145667753Y-89547759D01*
X145667019Y-89550817D01*
X145666422Y-89551854D01*
X145666249Y-89552390D01*
X145666136Y-89552353D01*
X145632219Y-89611403D01*
X145570188Y-89643558D01*
X145500620Y-89637072D01*
X145458768Y-89609533D01*
X141552818Y-85703583D01*
X141519333Y-85642260D01*
X141516499Y-85615902D01*
X141516499Y-85380962D01*
X141501175Y-85264551D01*
X141501173Y-85264546D01*
X141501173Y-85264543D01*
X141456863Y-85157569D01*
X141441170Y-85119681D01*
X141441168Y-85119678D01*
X141371587Y-85029000D01*
X141345716Y-84995284D01*
X141283518Y-84947557D01*
X141221321Y-84899831D01*
X141221318Y-84899829D01*
X141076460Y-84839828D01*
X141076455Y-84839826D01*
X140960036Y-84824500D01*
X140960035Y-84824500D01*
X140840500Y-84824500D01*
X140773461Y-84804815D01*
X140727706Y-84752011D01*
X140716500Y-84700500D01*
X140716499Y-84359499D01*
X140736183Y-84292460D01*
X140788987Y-84246705D01*
X140840499Y-84235499D01*
X140960037Y-84235499D01*
X141076448Y-84220175D01*
X141076452Y-84220173D01*
X141076457Y-84220173D01*
X141221320Y-84160169D01*
X141345716Y-84064716D01*
X141441169Y-83940320D01*
X141501173Y-83795457D01*
X141516500Y-83679035D01*
X141516499Y-82840966D01*
X141516499Y-82840964D01*
X141516499Y-82840962D01*
X141501175Y-82724551D01*
X141501173Y-82724544D01*
X141501173Y-82724543D01*
X141458210Y-82620821D01*
X141441170Y-82579681D01*
X141441168Y-82579678D01*
X141407913Y-82536340D01*
X141345716Y-82455284D01*
X141283518Y-82407557D01*
X141221321Y-82359831D01*
X141221318Y-82359829D01*
X141076460Y-82299828D01*
X141076455Y-82299826D01*
X140960035Y-82284500D01*
X139039962Y-82284500D01*
X138923551Y-82299824D01*
X138923536Y-82299829D01*
X138921943Y-82300489D01*
X138920492Y-82300644D01*
X138915697Y-82301930D01*
X138915496Y-82301181D01*
X138852473Y-82307952D01*
X138789996Y-82276672D01*
X138754349Y-82216580D01*
X138750500Y-82185924D01*
X138750500Y-80624500D01*
X138770185Y-80557461D01*
X138822989Y-80511706D01*
X138874500Y-80500500D01*
X158489739Y-80500500D01*
X158556778Y-80520185D01*
G37*
G04 #@! TD.AperFunction*
G04 #@! TA.AperFunction,Conductor*
G36*
X154095350Y-103711008D02*
G01*
X154214811Y-103830469D01*
X154214813Y-103830470D01*
X154214815Y-103830472D01*
X154360394Y-103918478D01*
X154360397Y-103918479D01*
X154360396Y-103918479D01*
X154374301Y-103922812D01*
X154432449Y-103961549D01*
X154460423Y-104025574D01*
X154449341Y-104094560D01*
X154402723Y-104146603D01*
X154401562Y-104147313D01*
X154364814Y-104169528D01*
X154364810Y-104169531D01*
X154244530Y-104289811D01*
X154156522Y-104435393D01*
X154156522Y-104435394D01*
X154108225Y-104590384D01*
X154069489Y-104648531D01*
X154005464Y-104676505D01*
X153936479Y-104665424D01*
X153884436Y-104618805D01*
X153875281Y-104600949D01*
X153863478Y-104572456D01*
X153856008Y-104502986D01*
X153863477Y-104477546D01*
X153885200Y-104425102D01*
X153895088Y-104350000D01*
X153690815Y-104350000D01*
X153623776Y-104330315D01*
X153578021Y-104277511D01*
X153568077Y-104208353D01*
X153597102Y-104144797D01*
X153615328Y-104127625D01*
X153622934Y-104121789D01*
X153683096Y-104075624D01*
X153748264Y-104050430D01*
X153758582Y-104050000D01*
X153895088Y-104050000D01*
X153895088Y-104049999D01*
X153885199Y-103974896D01*
X153885199Y-103974894D01*
X153863748Y-103923106D01*
X153856279Y-103853636D01*
X153863745Y-103828206D01*
X153885687Y-103775236D01*
X153885688Y-103775231D01*
X153887790Y-103767388D01*
X153891032Y-103768256D01*
X153912996Y-103718608D01*
X153971320Y-103680136D01*
X154041185Y-103679304D01*
X154095350Y-103711008D01*
G37*
G04 #@! TD.AperFunction*
G04 #@! TA.AperFunction,Conductor*
G36*
X153737273Y-101620185D02*
G01*
X153739125Y-101621398D01*
X153870814Y-101709390D01*
X153870827Y-101709397D01*
X154016498Y-101769735D01*
X154016503Y-101769737D01*
X154126987Y-101791713D01*
X154149691Y-101796230D01*
X154211602Y-101828615D01*
X154246176Y-101889330D01*
X154249500Y-101917847D01*
X154249500Y-102083480D01*
X154229815Y-102150519D01*
X154213181Y-102171161D01*
X154094531Y-102289810D01*
X154094530Y-102289811D01*
X154006522Y-102435393D01*
X153955913Y-102597807D01*
X153949500Y-102668386D01*
X153949500Y-102979236D01*
X153929815Y-103046275D01*
X153877011Y-103092030D01*
X153807853Y-103101974D01*
X153744297Y-103072949D01*
X153737819Y-103066917D01*
X153735455Y-103064553D01*
X153735452Y-103064551D01*
X153735451Y-103064549D01*
X153615233Y-102972302D01*
X153615229Y-102972300D01*
X153551801Y-102946027D01*
X153475236Y-102914313D01*
X153461171Y-102912461D01*
X153362727Y-102899500D01*
X153362720Y-102899500D01*
X153224500Y-102899500D01*
X153157461Y-102879815D01*
X153111706Y-102827011D01*
X153100500Y-102775500D01*
X153100500Y-102125832D01*
X153120185Y-102058793D01*
X153136819Y-102038151D01*
X153538152Y-101636819D01*
X153599475Y-101603334D01*
X153625833Y-101600500D01*
X153670234Y-101600500D01*
X153737273Y-101620185D01*
G37*
G04 #@! TD.AperFunction*
G04 #@! TA.AperFunction,Conductor*
G36*
X171229159Y-90204176D02*
G01*
X171255244Y-90234279D01*
X171301575Y-90309394D01*
X171307289Y-90318657D01*
X171431343Y-90442711D01*
X171431347Y-90442714D01*
X171461190Y-90461122D01*
X171507915Y-90513070D01*
X171519136Y-90582033D01*
X171491293Y-90646115D01*
X171483774Y-90654341D01*
X171239425Y-90898690D01*
X171178102Y-90932175D01*
X171108410Y-90927191D01*
X171052477Y-90885319D01*
X171048655Y-90879919D01*
X171021789Y-90839711D01*
X171021787Y-90839708D01*
X170910292Y-90728213D01*
X170910288Y-90728210D01*
X170828214Y-90673369D01*
X170783409Y-90619756D01*
X170774702Y-90550431D01*
X170804857Y-90487404D01*
X170832010Y-90464728D01*
X170868339Y-90442320D01*
X170868344Y-90442316D01*
X170992317Y-90318343D01*
X171044167Y-90234281D01*
X171096115Y-90187556D01*
X171165077Y-90176333D01*
X171229159Y-90204176D01*
G37*
G04 #@! TD.AperFunction*
G04 #@! TA.AperFunction,Conductor*
G36*
X173363700Y-80520185D02*
G01*
X173409455Y-80572989D01*
X173419399Y-80642147D01*
X173402199Y-80689595D01*
X173354936Y-80766222D01*
X173315186Y-80830666D01*
X173260001Y-80997203D01*
X173260000Y-80997204D01*
X173249500Y-81099984D01*
X173249500Y-84100015D01*
X173260000Y-84202795D01*
X173260001Y-84202797D01*
X173270838Y-84235500D01*
X173315186Y-84369335D01*
X173315187Y-84369337D01*
X173407286Y-84518651D01*
X173407289Y-84518655D01*
X173531344Y-84642710D01*
X173531348Y-84642713D01*
X173680662Y-84734812D01*
X173680664Y-84734813D01*
X173680666Y-84734814D01*
X173847203Y-84789999D01*
X173949992Y-84800500D01*
X173949997Y-84800500D01*
X175050003Y-84800500D01*
X175050008Y-84800500D01*
X175112897Y-84794075D01*
X175181590Y-84806844D01*
X175232475Y-84854724D01*
X175249500Y-84917433D01*
X175249500Y-90659480D01*
X175229815Y-90726519D01*
X175177011Y-90772274D01*
X175107853Y-90782218D01*
X175044297Y-90753193D01*
X175037819Y-90747161D01*
X174960188Y-90669530D01*
X174943563Y-90659480D01*
X174814606Y-90581522D01*
X174652196Y-90530914D01*
X174652194Y-90530913D01*
X174652192Y-90530913D01*
X174602778Y-90526423D01*
X174581616Y-90524500D01*
X174068384Y-90524500D01*
X174049145Y-90526248D01*
X173997807Y-90530913D01*
X173835393Y-90581522D01*
X173689811Y-90669530D01*
X173689810Y-90669531D01*
X173587681Y-90771661D01*
X173526358Y-90805146D01*
X173456666Y-90800162D01*
X173412319Y-90771661D01*
X173326303Y-90685645D01*
X173292818Y-90624322D01*
X173297802Y-90554630D01*
X173326254Y-90510331D01*
X173327203Y-90509382D01*
X173352927Y-90489635D01*
X173368716Y-90480520D01*
X173414664Y-90434571D01*
X173475983Y-90401088D01*
X173478152Y-90400637D01*
X173478841Y-90400500D01*
X173478842Y-90400500D01*
X173633497Y-90369737D01*
X173779179Y-90309394D01*
X173910289Y-90221789D01*
X174021789Y-90110289D01*
X174109394Y-89979179D01*
X174169737Y-89833497D01*
X174200500Y-89678842D01*
X174200500Y-89521158D01*
X174200500Y-89521155D01*
X174200499Y-89521153D01*
X174176867Y-89402349D01*
X174169737Y-89366503D01*
X174159774Y-89342450D01*
X174109397Y-89220827D01*
X174109390Y-89220814D01*
X174021789Y-89089711D01*
X174021786Y-89089707D01*
X173910292Y-88978213D01*
X173910288Y-88978210D01*
X173779185Y-88890609D01*
X173779172Y-88890602D01*
X173633501Y-88830264D01*
X173633491Y-88830261D01*
X173478149Y-88799361D01*
X173416238Y-88766976D01*
X173414660Y-88765425D01*
X173186818Y-88537583D01*
X173153333Y-88476260D01*
X173150499Y-88449902D01*
X173150499Y-86799998D01*
X173150498Y-86799981D01*
X173139999Y-86697203D01*
X173139998Y-86697200D01*
X173084814Y-86530666D01*
X172992712Y-86381344D01*
X172868656Y-86257288D01*
X172721481Y-86166510D01*
X172719336Y-86165187D01*
X172719331Y-86165185D01*
X172684228Y-86153553D01*
X172552797Y-86110001D01*
X172552795Y-86110000D01*
X172450010Y-86099500D01*
X171849998Y-86099500D01*
X171849980Y-86099501D01*
X171747203Y-86110000D01*
X171747200Y-86110001D01*
X171580668Y-86165185D01*
X171580663Y-86165187D01*
X171431342Y-86257289D01*
X171307288Y-86381343D01*
X171307285Y-86381347D01*
X171255244Y-86465719D01*
X171203296Y-86512444D01*
X171134334Y-86523665D01*
X171070252Y-86495822D01*
X171044167Y-86465719D01*
X170992315Y-86381654D01*
X170868345Y-86257684D01*
X170719124Y-86165643D01*
X170719119Y-86165641D01*
X170552697Y-86110494D01*
X170552690Y-86110493D01*
X170449986Y-86100000D01*
X170400000Y-86100000D01*
X170400000Y-88226000D01*
X170380315Y-88293039D01*
X170327511Y-88338794D01*
X170276000Y-88350000D01*
X170150000Y-88350000D01*
X170150000Y-88476000D01*
X170130315Y-88543039D01*
X170077511Y-88588794D01*
X170026000Y-88600000D01*
X169150000Y-88600000D01*
X169150000Y-88876403D01*
X169130315Y-88943443D01*
X169077511Y-88989198D01*
X169008353Y-88999141D01*
X168944797Y-88970116D01*
X168938319Y-88964084D01*
X167792590Y-87818355D01*
X167792588Y-87818352D01*
X167673717Y-87699481D01*
X167673709Y-87699475D01*
X167571115Y-87640243D01*
X167571113Y-87640242D01*
X167536790Y-87620425D01*
X167536789Y-87620424D01*
X167524263Y-87617067D01*
X167384057Y-87579499D01*
X167225943Y-87579499D01*
X167218347Y-87579499D01*
X167218331Y-87579500D01*
X161344500Y-87579500D01*
X161277461Y-87559815D01*
X161231706Y-87507011D01*
X161220500Y-87455501D01*
X161220499Y-87293240D01*
X161220499Y-87254191D01*
X161220118Y-87250000D01*
X163700384Y-87250000D01*
X164750000Y-87250000D01*
X164750000Y-86620000D01*
X164334231Y-86620000D01*
X164264712Y-86626316D01*
X164264705Y-86626318D01*
X164104738Y-86676166D01*
X164104732Y-86676168D01*
X163961342Y-86762850D01*
X163961338Y-86762853D01*
X163842853Y-86881338D01*
X163842850Y-86881342D01*
X163756168Y-87024732D01*
X163756166Y-87024738D01*
X163706318Y-87184705D01*
X163706317Y-87184712D01*
X163700384Y-87250000D01*
X161220118Y-87250000D01*
X161214178Y-87184623D01*
X161214176Y-87184616D01*
X161164291Y-87024529D01*
X161164290Y-87024527D01*
X161077545Y-86881032D01*
X161077542Y-86881028D01*
X160958971Y-86762457D01*
X160958967Y-86762454D01*
X160815473Y-86675710D01*
X160815472Y-86675709D01*
X160815471Y-86675709D01*
X160655380Y-86625823D01*
X160641110Y-86624526D01*
X160637026Y-86624155D01*
X160572044Y-86598482D01*
X160531257Y-86541753D01*
X160527250Y-86485072D01*
X160525566Y-86484907D01*
X160526163Y-86478844D01*
X160526163Y-86321155D01*
X160526162Y-86321153D01*
X160513537Y-86257684D01*
X160495400Y-86166503D01*
X160494855Y-86165187D01*
X160435060Y-86020827D01*
X160435053Y-86020814D01*
X160353252Y-85898391D01*
X160332374Y-85831714D01*
X160350858Y-85764333D01*
X160402837Y-85717643D01*
X160456354Y-85705500D01*
X160915686Y-85705500D01*
X160915694Y-85705500D01*
X160952569Y-85702598D01*
X160952571Y-85702597D01*
X160952573Y-85702597D01*
X161003879Y-85687691D01*
X161110398Y-85656744D01*
X161251865Y-85573081D01*
X161262869Y-85562076D01*
X161324189Y-85528592D01*
X161393881Y-85533574D01*
X161419442Y-85546655D01*
X161520814Y-85614390D01*
X161520827Y-85614397D01*
X161640079Y-85663792D01*
X161666503Y-85674737D01*
X161804060Y-85702099D01*
X161821153Y-85705499D01*
X161821156Y-85705500D01*
X161821158Y-85705500D01*
X161978844Y-85705500D01*
X161978845Y-85705499D01*
X162133497Y-85674737D01*
X162246166Y-85628067D01*
X162279172Y-85614397D01*
X162279172Y-85614396D01*
X162279179Y-85614394D01*
X162410289Y-85526789D01*
X162521789Y-85415289D01*
X162609394Y-85284179D01*
X162662901Y-85155001D01*
X163502704Y-85155001D01*
X163502899Y-85157486D01*
X163548718Y-85315198D01*
X163632314Y-85456552D01*
X163632321Y-85456561D01*
X163748438Y-85572678D01*
X163748447Y-85572685D01*
X163889803Y-85656282D01*
X163889806Y-85656283D01*
X164047504Y-85702099D01*
X164047510Y-85702100D01*
X164084350Y-85704999D01*
X164084366Y-85705000D01*
X164725000Y-85705000D01*
X164725000Y-85155000D01*
X163502705Y-85155000D01*
X163502704Y-85155001D01*
X162662901Y-85155001D01*
X162669737Y-85138497D01*
X162700500Y-84983842D01*
X162700500Y-84880268D01*
X162701137Y-84874006D01*
X162712044Y-84847240D01*
X162720185Y-84819516D01*
X162725065Y-84815287D01*
X162727504Y-84809303D01*
X162751153Y-84792681D01*
X162772989Y-84773761D01*
X162779382Y-84772841D01*
X162784668Y-84769127D01*
X162813542Y-84767929D01*
X162842147Y-84763817D01*
X162851396Y-84766360D01*
X162854477Y-84766233D01*
X162857616Y-84768071D01*
X162860411Y-84768840D01*
X162860676Y-84767969D01*
X162866492Y-84769732D01*
X162866503Y-84769737D01*
X163014537Y-84799183D01*
X163021153Y-84800499D01*
X163021156Y-84800500D01*
X163021158Y-84800500D01*
X163178844Y-84800500D01*
X163178845Y-84800499D01*
X163333497Y-84769737D01*
X163479179Y-84709394D01*
X163479184Y-84709390D01*
X163479187Y-84709389D01*
X163529308Y-84675899D01*
X163595985Y-84655020D01*
X163598200Y-84655000D01*
X164851000Y-84655000D01*
X164918039Y-84674685D01*
X164963794Y-84727489D01*
X164975000Y-84779000D01*
X164975000Y-84905000D01*
X165101000Y-84905000D01*
X165168039Y-84924685D01*
X165213794Y-84977489D01*
X165225000Y-85029000D01*
X165225000Y-85705000D01*
X165775500Y-85705000D01*
X165842539Y-85724685D01*
X165888294Y-85777489D01*
X165899500Y-85829000D01*
X165899500Y-85920234D01*
X165879815Y-85987273D01*
X165878602Y-85989125D01*
X165790609Y-86120814D01*
X165790602Y-86120827D01*
X165730264Y-86266498D01*
X165730261Y-86266510D01*
X165699500Y-86421153D01*
X165699500Y-86496000D01*
X165679815Y-86563039D01*
X165627011Y-86608794D01*
X165575500Y-86620000D01*
X165250000Y-86620000D01*
X165250000Y-87250000D01*
X166194189Y-87250000D01*
X166241636Y-87259437D01*
X166266503Y-87269737D01*
X166266510Y-87269738D01*
X166266511Y-87269739D01*
X166421153Y-87300499D01*
X166421156Y-87300500D01*
X166421158Y-87300500D01*
X166578844Y-87300500D01*
X166578845Y-87300499D01*
X166733497Y-87269737D01*
X166879179Y-87209394D01*
X167010289Y-87121789D01*
X167121789Y-87010289D01*
X167209394Y-86879179D01*
X167216365Y-86862349D01*
X167242185Y-86800013D01*
X169150000Y-86800013D01*
X169150000Y-88100000D01*
X169900000Y-88100000D01*
X169900000Y-86100000D01*
X169899999Y-86099999D01*
X169850029Y-86100000D01*
X169850011Y-86100001D01*
X169747302Y-86110494D01*
X169580880Y-86165641D01*
X169580875Y-86165643D01*
X169431654Y-86257684D01*
X169307684Y-86381654D01*
X169215643Y-86530875D01*
X169215641Y-86530880D01*
X169160494Y-86697302D01*
X169160493Y-86697309D01*
X169150000Y-86800013D01*
X167242185Y-86800013D01*
X167263145Y-86749412D01*
X167263145Y-86749411D01*
X167269737Y-86733497D01*
X167300500Y-86578842D01*
X167300500Y-86421158D01*
X167300500Y-86421155D01*
X167300499Y-86421153D01*
X167283427Y-86335326D01*
X167269737Y-86266503D01*
X167266084Y-86257684D01*
X167209397Y-86120827D01*
X167209390Y-86120814D01*
X167121398Y-85989125D01*
X167100520Y-85922447D01*
X167100500Y-85920234D01*
X167100500Y-84922541D01*
X167120185Y-84855502D01*
X167172989Y-84809747D01*
X167237103Y-84799183D01*
X167249992Y-84800500D01*
X167249997Y-84800500D01*
X168350003Y-84800500D01*
X168350008Y-84800500D01*
X168452797Y-84789999D01*
X168619334Y-84734814D01*
X168768655Y-84642711D01*
X168892711Y-84518655D01*
X168984814Y-84369334D01*
X169039999Y-84202797D01*
X169050500Y-84100008D01*
X169050500Y-81099992D01*
X169039999Y-80997203D01*
X168984814Y-80830666D01*
X168897800Y-80689596D01*
X168879360Y-80622205D01*
X168900282Y-80555542D01*
X168953924Y-80510772D01*
X169003339Y-80500500D01*
X173296661Y-80500500D01*
X173363700Y-80520185D01*
G37*
G04 #@! TD.AperFunction*
M02*
