G04 #@! TF.GenerationSoftware,KiCad,Pcbnew,10.0.5*
G04 #@! TF.CreationDate,2026-09-02T11:39:21+01:00*
G04 #@! TF.ProjectId,CyberwatchV1B,43796265-7277-4617-9463-685631422e6b,rev?*
G04 #@! TF.SameCoordinates,Original*
G04 #@! TF.FileFunction,Copper,L2,Bot*
G04 #@! TF.FilePolarity,Positive*
%FSLAX46Y46*%
G04 Gerber Fmt 4.6, Leading zero omitted, Abs format (unit mm)*
G04 Created by KiCad (PCBNEW 10.0.5) date 2026-09-02 11:39:21*
%MOMM*%
%LPD*%
G01*
G04 APERTURE LIST*
G04 #@! TA.AperFunction,ViaPad*
%ADD10C,0.600000*%
G04 #@! TD*
G04 #@! TA.AperFunction,Conductor*
%ADD11C,0.200000*%
G04 #@! TD*
G04 APERTURE END LIST*
D10*
X147250000Y-98750000D03*
X150500000Y-98800000D03*
X150500000Y-96500000D03*
X163500000Y-122151471D03*
X170900000Y-118500000D03*
X153501923Y-98000000D03*
X150750000Y-95250000D03*
X154250000Y-101000000D03*
X153575735Y-102575735D03*
X150500000Y-110000000D03*
X148100000Y-101500000D03*
X150050000Y-101500000D03*
X143500000Y-115500000D03*
X146000000Y-118000000D03*
X151500000Y-101500000D03*
X179500000Y-101500000D03*
X168500000Y-90565686D03*
X173400000Y-89600000D03*
X166500000Y-111000000D03*
X146000000Y-113500000D03*
X132650000Y-88500000D03*
X145151471Y-110500000D03*
X179849999Y-89270000D03*
X169500000Y-116700000D03*
X170000000Y-111000000D03*
X165000000Y-120000000D03*
X181049999Y-94551473D03*
X154114018Y-104300196D03*
X179849999Y-91810000D03*
X131125000Y-101875000D03*
X131000000Y-99500000D03*
X153500000Y-90000000D03*
X157000000Y-117500000D03*
X161500000Y-119000000D03*
X161000000Y-114000000D03*
X157000000Y-110000000D03*
X172488235Y-92500000D03*
X170400000Y-91350000D03*
X155088987Y-106050000D03*
X161900000Y-84905000D03*
X159725663Y-86400000D03*
X158500000Y-90000000D03*
X163000000Y-91500000D03*
X163100000Y-84000000D03*
X159000000Y-88500000D03*
X158500000Y-82365000D03*
X159500000Y-103000000D03*
X168125000Y-107500000D03*
X171000000Y-122000000D03*
X167500000Y-111000000D03*
X161500000Y-117500000D03*
X172100000Y-117932187D03*
X181250000Y-97387761D03*
X162500000Y-83000000D03*
X171400000Y-114000000D03*
X153860697Y-106453126D03*
X182050625Y-91050625D03*
X156500000Y-102000000D03*
X143500000Y-93500000D03*
X163760001Y-116239999D03*
X169500000Y-119700000D03*
X166500000Y-86500000D03*
X171562816Y-112397847D03*
X160500000Y-104500000D03*
X156486482Y-106189678D03*
X145000000Y-109500000D03*
X148750000Y-100000000D03*
X146174265Y-107825735D03*
X172062500Y-111437500D03*
X159900000Y-105500000D03*
X134250000Y-88500000D03*
X132500000Y-96900000D03*
X149550003Y-100000000D03*
X143000000Y-106000000D03*
X149500000Y-116000000D03*
X154500000Y-91000000D03*
X161000000Y-107000000D03*
X146000000Y-120000000D03*
X141500000Y-92000000D03*
X149000000Y-121250000D03*
X149000000Y-122500000D03*
X171000000Y-111000000D03*
X172500000Y-108500000D03*
X174500000Y-116000000D03*
X166500000Y-110000000D03*
X160585735Y-109735735D03*
X161500000Y-111000000D03*
X174600000Y-112000000D03*
X171000000Y-103500000D03*
X158500000Y-93420000D03*
X172500000Y-105500000D03*
X180749999Y-104000001D03*
X181000000Y-100750000D03*
X163500000Y-123500000D03*
X169500000Y-117700000D03*
X147500000Y-110000000D03*
X149500000Y-117500000D03*
X141500000Y-97460000D03*
X153000000Y-110000000D03*
D11*
X142000000Y-98500000D02*
X142100000Y-98400000D01*
X142000000Y-116500000D02*
X142000000Y-98500000D01*
X142100000Y-98400000D02*
X142100000Y-92600000D01*
X145500000Y-120000000D02*
X142000000Y-116500000D01*
X142100000Y-92600000D02*
X141500000Y-92000000D01*
X146000000Y-120000000D02*
X145500000Y-120000000D01*
X130400000Y-96100000D02*
X132650000Y-93850000D01*
X130400000Y-97600000D02*
X130400000Y-96100000D01*
X132650000Y-93850000D02*
X132650000Y-88500000D01*
X131000000Y-98200000D02*
X130400000Y-97600000D01*
X131000000Y-99500000D02*
X131000000Y-98200000D01*
X181000000Y-103750000D02*
X181000000Y-100750000D01*
X180749999Y-104000001D02*
X181000000Y-103750000D01*
X171550000Y-92500000D02*
X170400000Y-91350000D01*
X172488235Y-92500000D02*
X171550000Y-92500000D01*
X168934314Y-91000000D02*
X168500000Y-90565686D01*
X170900000Y-89600000D02*
X169500000Y-91000000D01*
X173400000Y-89600000D02*
X170900000Y-89600000D01*
X169500000Y-91000000D02*
X168934314Y-91000000D01*
X171500000Y-105000000D02*
X171500000Y-108000000D01*
X172000000Y-104500000D02*
X171500000Y-105000000D01*
X172000000Y-101000000D02*
X172000000Y-104500000D01*
X166500000Y-86500000D02*
X166500000Y-95500000D01*
X166500000Y-95500000D02*
X172000000Y-101000000D01*
X161830000Y-84975000D02*
X161900000Y-84905000D01*
X159725663Y-86274337D02*
X161025000Y-84975000D01*
X159725663Y-86400000D02*
X159725663Y-86274337D01*
X161025000Y-84975000D02*
X161830000Y-84975000D01*
X149350000Y-100248529D02*
X149350000Y-100000000D01*
X147400000Y-100600000D02*
X148998530Y-100600000D01*
X145000000Y-103000000D02*
X147400000Y-100600000D01*
X145000000Y-104598529D02*
X145000000Y-103000000D01*
X144098529Y-105500000D02*
X145000000Y-104598529D01*
X143500000Y-105500000D02*
X144098529Y-105500000D01*
X149350000Y-100000000D02*
X149550003Y-100000000D01*
X148998530Y-100600000D02*
X149350000Y-100248529D01*
X143000000Y-106000000D02*
X143500000Y-105500000D01*
X141000000Y-108500000D02*
X141000000Y-97960000D01*
X141500000Y-109000000D02*
X141000000Y-108500000D01*
X141500000Y-118000000D02*
X141500000Y-109000000D01*
X146600000Y-123100000D02*
X141500000Y-118000000D01*
X151000000Y-122065685D02*
X149965686Y-123100000D01*
X151000000Y-118631372D02*
X151000000Y-122065685D01*
X152300000Y-117331372D02*
X151000000Y-118631372D01*
X152300000Y-110700000D02*
X152300000Y-117331372D01*
X153000000Y-110000000D02*
X152300000Y-110700000D01*
X149965686Y-123100000D02*
X146600000Y-123100000D01*
X141000000Y-97960000D02*
X141500000Y-97460000D01*
X167168629Y-108200000D02*
X170700000Y-108200000D01*
X170700000Y-108200000D02*
X171500000Y-109000000D01*
X171500000Y-109000000D02*
X171500000Y-108000000D01*
X166000000Y-109000000D02*
X166368628Y-109000000D01*
X166368628Y-109000000D02*
X167168629Y-108200000D01*
X161500000Y-104500000D02*
X166000000Y-109000000D01*
X160500000Y-104500000D02*
X161500000Y-104500000D01*
X173000000Y-110500000D02*
X171500000Y-109000000D01*
X171500000Y-109000000D02*
X171500000Y-107500000D01*
X171500000Y-107500000D02*
X171500000Y-108000000D01*
X173000000Y-113663403D02*
X173000000Y-110500000D01*
X163700000Y-123500000D02*
X163500000Y-123500000D01*
X169500000Y-117700000D02*
X163700000Y-123500000D01*
X144886765Y-107825735D02*
X146174265Y-107825735D01*
X144400000Y-108312500D02*
X144886765Y-107825735D01*
X144400000Y-113301469D02*
X144400000Y-108312500D01*
X149198531Y-118100000D02*
X144400000Y-113301469D01*
X150400000Y-118100000D02*
X149198531Y-118100000D01*
X151500000Y-117000000D02*
X150400000Y-118100000D01*
X151500000Y-110085786D02*
X151500000Y-117000000D01*
X152835786Y-108750000D02*
X151500000Y-110085786D01*
X153664215Y-108750000D02*
X152835786Y-108750000D01*
X160665686Y-114600000D02*
X155065686Y-109000000D01*
X153914215Y-109000000D02*
X153664215Y-108750000D01*
X163600000Y-114600000D02*
X160665686Y-114600000D01*
X155065686Y-109000000D02*
X153914215Y-109000000D01*
X164500000Y-115500000D02*
X163600000Y-114600000D01*
X164500000Y-117848528D02*
X164500000Y-115500000D01*
X163500000Y-118848528D02*
X164500000Y-117848528D01*
X163500000Y-122151471D02*
X163500000Y-118848528D01*
X153500000Y-90996154D02*
X153500000Y-90000000D01*
X153501923Y-90998077D02*
X153500000Y-90996154D01*
X154058212Y-100808212D02*
X154250000Y-101000000D01*
X153501923Y-98000000D02*
X153501923Y-90998077D01*
X154058212Y-99558212D02*
X154058212Y-100808212D01*
X153500000Y-99000000D02*
X154058212Y-99558212D01*
X153501923Y-98998077D02*
X153500000Y-99000000D01*
X153501923Y-98000000D02*
X153501923Y-98998077D01*
X154500000Y-91500000D02*
X154500000Y-91000000D01*
X152000000Y-105000000D02*
X155000000Y-102000000D01*
X152000000Y-107000000D02*
X152000000Y-105000000D01*
X155000000Y-92000000D02*
X154500000Y-91500000D01*
X153010050Y-108010050D02*
X152000000Y-107000000D01*
X155000000Y-102000000D02*
X155000000Y-92000000D01*
X151500000Y-98934314D02*
X151500000Y-96000000D01*
X152900000Y-100334314D02*
X151500000Y-98934314D01*
X153575735Y-102575735D02*
X152900000Y-101900000D01*
X152900000Y-101900000D02*
X152900000Y-100334314D01*
X151500000Y-96000000D02*
X150750000Y-95250000D01*
X145000000Y-97500000D02*
X145000000Y-95000000D01*
X147000000Y-99500000D02*
X145000000Y-97500000D01*
X148501471Y-99400000D02*
X148401471Y-99500000D01*
X148735788Y-99400000D02*
X148501471Y-99400000D01*
X149135788Y-99000000D02*
X148735788Y-99400000D01*
X150300000Y-99000000D02*
X149135788Y-99000000D01*
X148401471Y-99500000D02*
X147000000Y-99500000D01*
X150500000Y-98800000D02*
X150300000Y-99000000D01*
X145000000Y-95000000D02*
X143500000Y-93500000D01*
X149000000Y-98000000D02*
X150500000Y-96500000D01*
X148000000Y-98000000D02*
X149000000Y-98000000D01*
X147250000Y-98750000D02*
X148000000Y-98000000D01*
X148664215Y-101500000D02*
X148100000Y-101500000D01*
X149900000Y-100600000D02*
X149564215Y-100600000D01*
X150100000Y-100400000D02*
X149900000Y-100600000D01*
X151400000Y-100400000D02*
X150100000Y-100400000D01*
X152100000Y-101100000D02*
X151400000Y-100400000D01*
X150848529Y-103000000D02*
X152100000Y-101748529D01*
X149139094Y-103000000D02*
X150848529Y-103000000D01*
X144000000Y-108139094D02*
X149139094Y-103000000D01*
X144000000Y-113500000D02*
X144000000Y-108139094D01*
X150565685Y-118500000D02*
X149000000Y-118500000D01*
X151900000Y-117165686D02*
X150565685Y-118500000D01*
X151900000Y-110251472D02*
X151900000Y-117165686D01*
X153001471Y-109150000D02*
X151900000Y-110251472D01*
X149564215Y-100600000D02*
X148664215Y-101500000D01*
X153848529Y-109500000D02*
X153498529Y-109150000D01*
X155000000Y-109500000D02*
X153848529Y-109500000D01*
X160500000Y-115000000D02*
X155000000Y-109500000D01*
X153498529Y-109150000D02*
X153001471Y-109150000D01*
X162520002Y-115000000D02*
X160500000Y-115000000D01*
X149000000Y-118500000D02*
X144000000Y-113500000D01*
X163760001Y-116239999D02*
X162520002Y-115000000D01*
X152100000Y-101748529D02*
X152100000Y-101100000D01*
X171400000Y-118000000D02*
X170900000Y-118500000D01*
X171400000Y-114100000D02*
X171400000Y-118000000D01*
X171300000Y-114000000D02*
X171400000Y-114100000D01*
X171400000Y-114000000D02*
X171300000Y-114000000D01*
X153888987Y-106691929D02*
X153888987Y-106481416D01*
X155697058Y-108500000D02*
X153888987Y-106691929D01*
X158651471Y-108500000D02*
X155697058Y-108500000D01*
X160751471Y-106400000D02*
X158651471Y-108500000D01*
X161334314Y-106400000D02*
X160751471Y-106400000D01*
X161967157Y-107032843D02*
X161334314Y-106400000D01*
X168651471Y-114000000D02*
X161967157Y-107315686D01*
X171400000Y-114000000D02*
X168651471Y-114000000D01*
X161967157Y-107315686D02*
X161967157Y-107032843D01*
X153888987Y-106481416D02*
X153860697Y-106453126D01*
X169900000Y-113400000D02*
X167500000Y-111000000D01*
X171739580Y-113400000D02*
X169900000Y-113400000D01*
X172000000Y-113660420D02*
X171739580Y-113400000D01*
X172000000Y-117832187D02*
X172000000Y-113660420D01*
X172100000Y-117932187D02*
X172000000Y-117832187D01*
X173000000Y-116880714D02*
X173000000Y-113663403D01*
X173500000Y-117380714D02*
X173000000Y-116880714D01*
X171180714Y-119700000D02*
X173500000Y-117380714D01*
X169500000Y-119700000D02*
X171180714Y-119700000D01*
X170500000Y-103000000D02*
X171000000Y-103500000D01*
X158500000Y-93420000D02*
X159420000Y-93420000D01*
X169000000Y-103000000D02*
X170500000Y-103000000D01*
X159420000Y-93420000D02*
X169000000Y-103000000D01*
X134250000Y-93250000D02*
X134250000Y-88500000D01*
X132500000Y-95000000D02*
X134250000Y-93250000D01*
X132500000Y-96900000D02*
X132500000Y-95000000D01*
X156500000Y-94334215D02*
X156500000Y-102000000D01*
X156000000Y-93834214D02*
X156500000Y-94334215D01*
X156000000Y-91934314D02*
X156000000Y-93834214D01*
X156500000Y-91434314D02*
X156000000Y-91934314D01*
X159400000Y-89100000D02*
X157900000Y-89100000D01*
X162500000Y-83000000D02*
X162500000Y-86000000D01*
X157900000Y-89100000D02*
X156500000Y-90500000D01*
X156500000Y-90500000D02*
X156500000Y-91434314D01*
X162500000Y-86000000D02*
X159400000Y-89100000D01*
X143000000Y-115000000D02*
X143500000Y-115500000D01*
X143000000Y-108000000D02*
X143000000Y-115000000D01*
X148867157Y-102132843D02*
X143000000Y-108000000D01*
X150000000Y-101500000D02*
X149367157Y-102132843D01*
X150050000Y-101500000D02*
X150000000Y-101500000D01*
X149367157Y-102132843D02*
X148867157Y-102132843D01*
X146000000Y-110651471D02*
X147251471Y-109400000D01*
X148750000Y-99951474D02*
X148750000Y-100000000D01*
X149301474Y-99400000D02*
X148750000Y-99951474D01*
X151400000Y-99465686D02*
X151334314Y-99400000D01*
X151400000Y-99748529D02*
X151400000Y-99465686D01*
X151751471Y-100100000D02*
X151400000Y-99748529D01*
X152500000Y-100500000D02*
X152100000Y-100100000D01*
X152500000Y-102000000D02*
X152500000Y-100500000D01*
X151600000Y-102900000D02*
X152500000Y-102000000D01*
X151014215Y-103400000D02*
X151514215Y-102900000D01*
X147000000Y-107000000D02*
X150600000Y-103400000D01*
X150600000Y-103400000D02*
X151014215Y-103400000D01*
X152100000Y-100100000D02*
X151751471Y-100100000D01*
X146000000Y-109500000D02*
X147000000Y-108500000D01*
X147000000Y-108500000D02*
X147000000Y-107000000D01*
X145000000Y-109500000D02*
X146000000Y-109500000D01*
X151334314Y-99400000D02*
X149301474Y-99400000D01*
X151514215Y-102900000D02*
X151600000Y-102900000D01*
X152837000Y-106337000D02*
X153744571Y-106337000D01*
X152400000Y-105900000D02*
X152837000Y-106337000D01*
X152400000Y-105165686D02*
X152400000Y-105900000D01*
X155565686Y-102000000D02*
X152400000Y-105165686D01*
X156500000Y-102000000D02*
X155565686Y-102000000D01*
X153744571Y-106337000D02*
X153860697Y-106453126D01*
X161500000Y-106000000D02*
X166500000Y-111000000D01*
X160585786Y-106000000D02*
X161500000Y-106000000D01*
X154762744Y-107000000D02*
X159585785Y-107000000D01*
X154488987Y-106726243D02*
X154762744Y-107000000D01*
X154488987Y-104988987D02*
X154488987Y-106726243D01*
X154114018Y-104300196D02*
X154114018Y-104614018D01*
X154114018Y-104614018D02*
X154488987Y-104988987D01*
X159585785Y-107000000D02*
X160585786Y-106000000D01*
X156400000Y-92100000D02*
X158500000Y-90000000D01*
X156400000Y-93668529D02*
X156400000Y-92100000D01*
X157211075Y-102703140D02*
X157500000Y-102414214D01*
X157211075Y-103354611D02*
X157211075Y-102703140D01*
X155088987Y-105272163D02*
X155761151Y-104599999D01*
X155088987Y-106050000D02*
X155088987Y-105272163D01*
X157500000Y-94768529D02*
X156400000Y-93668529D01*
X155965687Y-104599999D02*
X157211075Y-103354611D01*
X157500000Y-102414214D02*
X157500000Y-94768529D01*
X155761151Y-104599999D02*
X155965687Y-104599999D01*
X160100000Y-104900000D02*
X160500000Y-104500000D01*
X158751471Y-104900000D02*
X160100000Y-104900000D01*
X158400000Y-105251471D02*
X158751471Y-104900000D01*
X158400000Y-106200000D02*
X158400000Y-105251471D01*
X156489118Y-106200000D02*
X158400000Y-106200000D01*
X156485296Y-106196178D02*
X156489118Y-106200000D01*
X156486482Y-106189678D02*
X156485296Y-106190864D01*
X156485296Y-106190864D02*
X156485296Y-106196178D01*
X153829901Y-108350000D02*
X153350000Y-108350000D01*
X155231372Y-108600000D02*
X154079901Y-108600000D01*
X155631372Y-109000000D02*
X155231372Y-108600000D01*
X154079901Y-108600000D02*
X153829901Y-108350000D01*
X159000000Y-109000000D02*
X155631372Y-109000000D01*
X161000000Y-107000000D02*
X159000000Y-109000000D01*
X153350000Y-108350000D02*
X153010050Y-108010050D01*
X153010050Y-108010050D02*
X151100000Y-109920099D01*
X150100000Y-115400000D02*
X149500000Y-116000000D01*
X150100000Y-111400000D02*
X150100000Y-115400000D01*
X151100000Y-109920099D02*
X151100000Y-110400000D01*
X151100000Y-110400000D02*
X150100000Y-111400000D01*
X157000000Y-110368628D02*
X157000000Y-110000000D01*
X160631372Y-114000000D02*
X157000000Y-110368628D01*
X161000000Y-114000000D02*
X160631372Y-114000000D01*
X172000000Y-111375000D02*
X172062500Y-111437500D01*
X172000000Y-110500000D02*
X172000000Y-111375000D01*
X170100000Y-108600000D02*
X172000000Y-110500000D01*
X167334314Y-108600000D02*
X170100000Y-108600000D01*
X166534314Y-109400000D02*
X167334314Y-108600000D01*
X166251471Y-109400000D02*
X166534314Y-109400000D01*
X166151471Y-109500000D02*
X166251471Y-109400000D01*
X165934314Y-109500000D02*
X166151471Y-109500000D01*
X161934314Y-105500000D02*
X165934314Y-109500000D01*
X159900000Y-105500000D02*
X161934314Y-105500000D01*
X168000000Y-107375000D02*
X168125000Y-107500000D01*
X168000000Y-105350000D02*
X168000000Y-107375000D01*
X165650000Y-103000000D02*
X168000000Y-105350000D01*
X159500000Y-103000000D02*
X165650000Y-103000000D01*
X161500000Y-110650000D02*
X160585735Y-109735735D01*
X161500000Y-111000000D02*
X161500000Y-110650000D01*
X131000000Y-101750000D02*
X131125000Y-101875000D01*
X131000000Y-99500000D02*
X131000000Y-101750000D01*
X150500000Y-110000000D02*
X150500000Y-109954413D01*
X147748529Y-109400000D02*
X147251471Y-109400000D01*
X148100000Y-110000000D02*
X148100000Y-109751471D01*
X150500000Y-110000000D02*
X148100000Y-110000000D01*
X148100000Y-109751471D02*
X147748529Y-109400000D01*
X149032843Y-102532843D02*
X150467157Y-102532843D01*
X143500000Y-108065686D02*
X149032843Y-102532843D01*
X143500000Y-114000000D02*
X143500000Y-108065686D01*
X148250000Y-121250000D02*
X144500000Y-117500000D01*
X150467157Y-102532843D02*
X151500000Y-101500000D01*
X149000000Y-121250000D02*
X148250000Y-121250000D01*
X144500000Y-117500000D02*
X144500000Y-115000000D01*
X144500000Y-115000000D02*
X143500000Y-114000000D01*
X163000000Y-85489950D02*
X163000000Y-84100000D01*
X163000000Y-90000000D02*
X163500000Y-89500000D01*
X163500000Y-89500000D02*
X163500000Y-85989950D01*
X163000000Y-91500000D02*
X163000000Y-90000000D01*
X163500000Y-85989950D02*
X163000000Y-85489950D01*
X163000000Y-84100000D02*
X163100000Y-84000000D01*
X149600000Y-121001471D02*
X149600000Y-121900000D01*
X146598529Y-118000000D02*
X149600000Y-121001471D01*
X149600000Y-121900000D02*
X149000000Y-122500000D01*
X146000000Y-118000000D02*
X146598529Y-118000000D01*
X158500000Y-88000000D02*
X159000000Y-88500000D01*
X158500000Y-82365000D02*
X158500000Y-88000000D01*
X179500000Y-96101472D02*
X179500000Y-101500000D01*
X181049999Y-94551473D02*
X179500000Y-96101472D01*
X181649999Y-91451250D02*
X182050625Y-91050625D01*
X181250000Y-96387761D02*
X181649999Y-95987762D01*
X181250000Y-97387761D02*
X181250000Y-96387761D01*
X181649999Y-95987762D02*
X181649999Y-91451250D01*
X180991473Y-94551473D02*
X181049999Y-94551473D01*
X179849999Y-91810000D02*
X179849999Y-89270000D01*
X179849999Y-91810000D02*
X179849999Y-93409999D01*
X179849999Y-93409999D02*
X180991473Y-94551473D01*
X174000000Y-108500000D02*
X174000000Y-107000000D01*
X174552879Y-109052879D02*
X174000000Y-108500000D01*
X174552879Y-111952879D02*
X174552879Y-109052879D01*
X174600000Y-112000000D02*
X174552879Y-111952879D01*
X174000000Y-107000000D02*
X172500000Y-105500000D01*
X174000000Y-110000000D02*
X172500000Y-108500000D01*
X173500000Y-112789215D02*
X174000000Y-112289215D01*
X174000000Y-112289215D02*
X174000000Y-110000000D01*
X173500000Y-115000000D02*
X173500000Y-112789215D01*
X174500000Y-116000000D02*
X173500000Y-115000000D01*
X171734444Y-112397847D02*
X173000000Y-113663403D01*
X171562816Y-112397847D02*
X171734444Y-112397847D01*
X168000000Y-116700000D02*
X165000000Y-119700000D01*
X169500000Y-116700000D02*
X168000000Y-116700000D01*
X165000000Y-119700000D02*
X165000000Y-120000000D01*
X145151471Y-110500000D02*
X145848529Y-110500000D01*
X146000000Y-110651471D02*
X146000000Y-113500000D01*
X167500000Y-110000000D02*
X166500000Y-111000000D01*
X170000000Y-111000000D02*
X169000000Y-110000000D01*
X145848529Y-110500000D02*
X146000000Y-110651471D01*
X169000000Y-110000000D02*
X167500000Y-110000000D01*
X157000000Y-117500000D02*
X158500000Y-119000000D01*
X158500000Y-119000000D02*
X161500000Y-119000000D01*
X171000000Y-111000000D02*
X169500000Y-109500000D01*
X169500000Y-109500000D02*
X167000000Y-109500000D01*
X167000000Y-109500000D02*
X166500000Y-110000000D01*
X147500000Y-110000000D02*
X147500000Y-115000000D01*
X149500000Y-117000000D02*
X149500000Y-117500000D01*
X147500000Y-115000000D02*
X149500000Y-117000000D01*
X162500000Y-118500000D02*
X161500000Y-117500000D01*
X163500000Y-124500000D02*
X162500000Y-123500000D01*
X169500000Y-124500000D02*
X163500000Y-124500000D01*
X162500000Y-123500000D02*
X162500000Y-118500000D01*
X171000000Y-122000000D02*
X171000000Y-123000000D01*
X171000000Y-123000000D02*
X169500000Y-124500000D01*
M02*
