G04 #@! TF.GenerationSoftware,KiCad,Pcbnew,10.0.5*
G04 #@! TF.CreationDate,2026-09-02T11:39:21+01:00*
G04 #@! TF.ProjectId,CyberwatchV1B,43796265-7277-4617-9463-685631422e6b,rev?*
G04 #@! TF.SameCoordinates,Original*
G04 #@! TF.FileFunction,Soldermask,Top*
G04 #@! TF.FilePolarity,Negative*
%FSLAX46Y46*%
G04 Gerber Fmt 4.6, Leading zero omitted, Abs format (unit mm)*
G04 Created by KiCad (PCBNEW 10.0.5) date 2026-09-02 11:39:21*
%MOMM*%
%LPD*%
G01*
G04 APERTURE LIST*
G04 Aperture macros list*
%AMRoundRect*
0 Rectangle with rounded corners*
0 $1 Rounding radius*
0 $2 $3 $4 $5 $6 $7 $8 $9 X,Y pos of 4 corners*
0 Add a 4 corners polygon primitive as box body*
4,1,4,$2,$3,$4,$5,$6,$7,$8,$9,$2,$3,0*
0 Add four circle primitives for the rounded corners*
1,1,$1+$1,$2,$3*
1,1,$1+$1,$4,$5*
1,1,$1+$1,$6,$7*
1,1,$1+$1,$8,$9*
0 Add four rect primitives between the rounded corners*
20,1,$1+$1,$2,$3,$4,$5,0*
20,1,$1+$1,$4,$5,$6,$7,0*
20,1,$1+$1,$6,$7,$8,$9,0*
20,1,$1+$1,$8,$9,$2,$3,0*%
%AMFreePoly0*
4,1,15,-0.616000,0.142500,-0.283500,0.475000,0.521000,0.475000,0.557355,0.467769,0.588175,0.447175,0.608769,0.416355,0.616000,0.380000,0.616000,-0.380000,0.608769,-0.416355,0.588175,-0.447175,0.557355,-0.467769,0.521000,-0.475000,-0.283500,-0.475000,-0.616000,-0.142500,-0.616000,0.142500,-0.616000,0.142500,$1*%
G04 Aperture macros list end*
%ADD10C,1.500000*%
%ADD11RoundRect,0.200000X-0.275000X0.200000X-0.275000X-0.200000X0.275000X-0.200000X0.275000X0.200000X0*%
%ADD12RoundRect,0.200000X-0.200000X-0.275000X0.200000X-0.275000X0.200000X0.275000X-0.200000X0.275000X0*%
%ADD13RoundRect,0.200000X0.200000X0.275000X-0.200000X0.275000X-0.200000X-0.275000X0.200000X-0.275000X0*%
%ADD14RoundRect,0.225000X0.225000X0.250000X-0.225000X0.250000X-0.225000X-0.250000X0.225000X-0.250000X0*%
%ADD15C,2.100000*%
%ADD16R,3.300000X3.500000*%
%ADD17C,10.200000*%
%ADD18RoundRect,0.225000X-0.225000X-0.250000X0.225000X-0.250000X0.225000X0.250000X-0.225000X0.250000X0*%
%ADD19RoundRect,0.150000X-0.725000X-0.150000X0.725000X-0.150000X0.725000X0.150000X-0.725000X0.150000X0*%
%ADD20R,1.000000X0.900000*%
%ADD21RoundRect,0.062500X-0.325000X-0.062500X0.325000X-0.062500X0.325000X0.062500X-0.325000X0.062500X0*%
%ADD22R,0.800000X1.200000*%
%ADD23RoundRect,0.150000X-0.150000X0.587500X-0.150000X-0.587500X0.150000X-0.587500X0.150000X0.587500X0*%
%ADD24RoundRect,0.150000X0.625000X-0.150000X0.625000X0.150000X-0.625000X0.150000X-0.625000X-0.150000X0*%
%ADD25RoundRect,0.250000X0.650000X-0.350000X0.650000X0.350000X-0.650000X0.350000X-0.650000X-0.350000X0*%
%ADD26RoundRect,0.150000X-0.700000X0.150000X-0.700000X-0.150000X0.700000X-0.150000X0.700000X0.150000X0*%
%ADD27RoundRect,0.250000X-1.100000X0.250000X-1.100000X-0.250000X1.100000X-0.250000X1.100000X0.250000X0*%
%ADD28RoundRect,0.150000X-0.825000X-0.150000X0.825000X-0.150000X0.825000X0.150000X-0.825000X0.150000X0*%
%ADD29RoundRect,0.150000X-0.625000X0.150000X-0.625000X-0.150000X0.625000X-0.150000X0.625000X0.150000X0*%
%ADD30RoundRect,0.250000X-0.650000X0.350000X-0.650000X-0.350000X0.650000X-0.350000X0.650000X0.350000X0*%
%ADD31RoundRect,0.190000X-0.610000X-0.190000X0.610000X-0.190000X0.610000X0.190000X-0.610000X0.190000X0*%
%ADD32RoundRect,0.200000X0.275000X-0.200000X0.275000X0.200000X-0.275000X0.200000X-0.275000X-0.200000X0*%
%ADD33RoundRect,0.075000X0.075000X-0.437500X0.075000X0.437500X-0.075000X0.437500X-0.075000X-0.437500X0*%
%ADD34RoundRect,0.075000X0.437500X-0.075000X0.437500X0.075000X-0.437500X0.075000X-0.437500X-0.075000X0*%
%ADD35R,4.250000X4.250000*%
%ADD36RoundRect,0.095000X0.921000X0.380000X-0.921000X0.380000X-0.921000X-0.380000X0.921000X-0.380000X0*%
%ADD37RoundRect,0.095000X-0.921000X-0.380000X0.921000X-0.380000X0.921000X0.380000X-0.921000X0.380000X0*%
%ADD38FreePoly0,180.000000*%
%ADD39FreePoly0,0.000000*%
%ADD40C,1.700000*%
%ADD41RoundRect,0.110000X-0.440000X1.140000X-0.440000X-1.140000X0.440000X-1.140000X0.440000X1.140000X0*%
%ADD42RoundRect,0.250000X-1.150000X-1.000000X1.150000X-1.000000X1.150000X1.000000X-1.150000X1.000000X0*%
%ADD43RoundRect,0.225000X0.250000X-0.225000X0.250000X0.225000X-0.250000X0.225000X-0.250000X-0.225000X0*%
%ADD44R,0.800000X1.500000*%
%ADD45RoundRect,0.362500X-0.362500X-0.637500X0.362500X-0.637500X0.362500X0.637500X-0.362500X0.637500X0*%
%ADD46RoundRect,0.250000X0.250000X1.500000X-0.250000X1.500000X-0.250000X-1.500000X0.250000X-1.500000X0*%
%ADD47RoundRect,0.250001X0.499999X1.449999X-0.499999X1.449999X-0.499999X-1.449999X0.499999X-1.449999X0*%
G04 APERTURE END LIST*
D10*
X183149999Y-108500000D03*
D11*
X157000000Y-107350000D03*
X157000000Y-109000000D03*
D12*
X172675000Y-91500000D03*
X174325000Y-91500000D03*
D13*
X156650000Y-105000000D03*
X155000000Y-105000000D03*
D14*
X171000000Y-107500000D03*
X169450000Y-107500000D03*
D15*
X181750000Y-82500000D03*
D10*
X131000000Y-84000000D03*
D16*
X165500000Y-107400000D03*
X165500000Y-91600000D03*
D17*
X165500000Y-99500000D03*
D15*
X134500000Y-82500000D03*
D18*
X160450000Y-90000000D03*
X162000000Y-90000000D03*
D11*
X168500000Y-109350000D03*
X168500000Y-111000000D03*
X159000000Y-107350000D03*
X159000000Y-109000000D03*
D12*
X172850000Y-107500000D03*
X174500000Y-107500000D03*
D13*
X156500000Y-103000000D03*
X154850000Y-103000000D03*
D19*
X178250000Y-88000000D03*
X178250000Y-89270000D03*
X178250000Y-90540000D03*
X178250000Y-91810000D03*
X183400000Y-91810000D03*
X183400000Y-90540000D03*
X183400000Y-89270000D03*
X183400000Y-88000000D03*
D20*
X132700000Y-107550000D03*
X132700000Y-103450000D03*
X134300000Y-107550000D03*
X134300000Y-103450000D03*
D21*
X167525000Y-112450000D03*
X167525000Y-112950000D03*
X167525000Y-113450000D03*
X167525000Y-113950000D03*
X169500000Y-113950000D03*
X169500000Y-113450000D03*
X169500000Y-112950000D03*
X169500000Y-112450000D03*
D22*
X168512500Y-113200000D03*
D15*
X132000000Y-111000000D03*
D23*
X173950000Y-110000000D03*
X172050000Y-110000000D03*
X173000000Y-111875000D03*
D24*
X131000000Y-98200000D03*
X131000000Y-97200000D03*
X131000000Y-96200000D03*
D25*
X134875000Y-99500000D03*
X134875000Y-94900000D03*
D26*
X147700000Y-113750000D03*
X147700000Y-115000000D03*
X147700000Y-116250000D03*
X147700000Y-117500000D03*
X147700000Y-118750000D03*
X147700000Y-120000000D03*
X147700000Y-121250000D03*
X147700000Y-122500000D03*
D27*
X144500000Y-111900000D03*
X144500000Y-124350000D03*
D10*
X131000000Y-92500000D03*
D28*
X160025000Y-81095000D03*
X160025000Y-82365000D03*
X160025000Y-83635000D03*
X160025000Y-84905000D03*
X164975000Y-84905000D03*
X164975000Y-83635000D03*
X164975000Y-82365000D03*
X164975000Y-81095000D03*
D11*
X174500000Y-113175000D03*
X174500000Y-114825000D03*
D15*
X180500000Y-112950000D03*
D10*
X178149999Y-85500000D03*
X160000000Y-92000000D03*
D20*
X132650000Y-90000000D03*
X132650000Y-85900000D03*
X134250000Y-90000000D03*
X134250000Y-85900000D03*
X179149999Y-109450000D03*
X179149999Y-105350000D03*
X180749999Y-109450000D03*
X180749999Y-105350000D03*
D10*
X135500000Y-109500000D03*
X173500000Y-95000000D03*
D13*
X162500000Y-108500000D03*
X160850000Y-108500000D03*
D14*
X182250000Y-86000000D03*
X180700000Y-86000000D03*
D10*
X140500000Y-110500000D03*
D29*
X182649999Y-95750000D03*
X182649999Y-96750000D03*
X182649999Y-97750000D03*
X182649999Y-98750000D03*
X182649999Y-99750000D03*
X182649999Y-100750000D03*
X182649999Y-101750000D03*
D30*
X178774999Y-94450000D03*
X178774999Y-103050000D03*
D31*
X159920000Y-87500000D03*
X165000000Y-87500000D03*
D32*
X155000000Y-109000000D03*
X155000000Y-107350000D03*
D33*
X148100000Y-108337500D03*
X148750000Y-108337500D03*
X149400000Y-108337500D03*
X150050000Y-108337500D03*
X150700000Y-108337500D03*
X151350000Y-108337500D03*
X152000000Y-108337500D03*
D34*
X152887500Y-107450000D03*
X152887500Y-106800000D03*
X152887500Y-106150000D03*
X152887500Y-105500000D03*
X152887500Y-104850000D03*
X152887500Y-104200000D03*
X152887500Y-103550000D03*
D33*
X152000000Y-102662500D03*
X151350000Y-102662500D03*
X150700000Y-102662500D03*
X150050000Y-102662500D03*
X149400000Y-102662500D03*
X148750000Y-102662500D03*
X148100000Y-102662500D03*
D34*
X147212500Y-103550000D03*
X147212500Y-104200000D03*
X147212500Y-104850000D03*
X147212500Y-105500000D03*
X147212500Y-106150000D03*
X147212500Y-106800000D03*
X147212500Y-107450000D03*
D35*
X150050000Y-105500000D03*
D36*
X140000000Y-83260000D03*
X140000000Y-85800000D03*
X140000000Y-88340000D03*
X140000000Y-90880000D03*
X140000000Y-93420000D03*
X140000000Y-95960000D03*
X140000000Y-98500000D03*
D37*
X156510000Y-98500000D03*
X156510000Y-95960000D03*
X156510000Y-93420000D03*
X156510000Y-90880000D03*
X156510000Y-88340000D03*
X156510000Y-85800000D03*
X156510000Y-83260000D03*
D38*
X139600000Y-84530000D03*
X139600000Y-87070000D03*
X139600000Y-89610000D03*
X139600000Y-92150000D03*
X139600000Y-94690000D03*
X139600000Y-97230000D03*
D39*
X156910000Y-97230000D03*
X156910000Y-94690000D03*
X156910000Y-92150000D03*
D40*
X146985000Y-82244000D03*
X149525000Y-82244000D03*
X146985000Y-84784000D03*
X149525000Y-84784000D03*
X146985000Y-87324000D03*
X149525000Y-87324000D03*
X146985000Y-89864000D03*
X149525000Y-89864000D03*
D41*
X147261012Y-96397823D03*
X149261012Y-96397823D03*
D42*
X149380000Y-92755000D03*
D29*
X144500000Y-104500000D03*
X144500000Y-105500000D03*
X144500000Y-106500000D03*
D30*
X140625000Y-103200000D03*
X140625000Y-107800000D03*
D10*
X183149999Y-105000000D03*
D43*
X149000000Y-111550000D03*
X149000000Y-110000000D03*
D44*
X154920000Y-115800000D03*
X156020000Y-115800000D03*
X157120000Y-115800000D03*
X158220000Y-115800000D03*
X159320000Y-115800000D03*
X160420000Y-115800000D03*
X161520000Y-115800000D03*
X162620000Y-115800000D03*
D45*
X151250000Y-113200000D03*
X151250000Y-121500000D03*
X165000000Y-113200000D03*
X165000000Y-121500000D03*
D24*
X168000000Y-122700000D03*
X168000000Y-121700000D03*
X168000000Y-120700000D03*
X168000000Y-119700000D03*
X168000000Y-118700000D03*
X168000000Y-117700000D03*
X168000000Y-116700000D03*
D25*
X171875000Y-124000000D03*
X171875000Y-115400000D03*
D46*
X172150000Y-88350000D03*
X170150000Y-88350000D03*
D47*
X174500000Y-82600000D03*
X167800000Y-82600000D03*
M02*
